<svg width="24" height="25" viewBox="0 0 24 25" fill="none" xmlns="http://www.w3.org/2000/svg">
<path d="M12 10.25C11.4033 10.25 10.831 10.4871 10.409 10.909C9.98705 11.331 9.75 11.9033 9.75 12.5C9.75 13.0967 9.98705 13.669 10.409 14.091C10.831 14.5129 11.4033 14.75 12 14.75C12.5967 14.75 13.169 14.5129 13.591 14.091C14.0129 13.669 14.25 13.0967 14.25 12.5C14.25 11.9033 14.0129 11.331 13.591 10.909C13.169 10.4871 12.5967 10.25 12 10.25Z" fill="#17471A"/>
<path fill-rule="evenodd" clip-rule="evenodd" d="M12 6C9.382 6 7.028 7.051 5.332 8.353C4.482 9.005 3.785 9.729 3.296 10.433C2.816 11.125 2.5 11.851 2.5 12.5C2.5 13.149 2.817 13.875 3.296 14.566C3.786 15.271 4.482 15.995 5.332 16.646C7.028 17.95 9.382 19 12 19C14.618 19 16.972 17.949 18.668 16.647C19.518 15.995 20.215 15.271 20.703 14.567C21.183 13.875 21.5 13.149 21.5 12.5C21.5 11.851 21.183 11.125 20.703 10.434C20.215 9.729 19.518 9.005 18.668 8.354C16.972 7.05 14.618 6 12 6ZM8.25 12.5C8.25 11.5054 8.64509 10.5516 9.34835 9.84835C10.0516 9.14509 11.0054 8.75 12 8.75C12.9946 8.75 13.9484 9.14509 14.6517 9.84835C15.3549 10.5516 15.75 11.5054 15.75 12.5C15.75 13.4946 15.3549 14.4484 14.6517 15.1517C13.9484 15.8549 12.9946 16.25 12 16.25C11.0054 16.25 10.0516 15.8549 9.34835 15.1517C8.64509 14.4484 8.25 13.4946 8.25 12.5Z" fill="#17471A"/>
</svg>
