<svg width="30" height="31" viewBox="0 0 30 31" fill="none" xmlns="http://www.w3.org/2000/svg">
<path d="M15 2.01367C18.481 2.01367 21.8194 3.39648 24.2808 5.8579C26.7422 8.31931 28.125 11.6577 28.125 15.1387C28.125 18.6196 26.7422 21.958 24.2808 24.4194C21.8194 26.8809 18.481 28.2637 15 28.2637C11.519 28.2637 8.18064 26.8809 5.71922 24.4194C3.25781 21.958 1.875 18.6196 1.875 15.1387C1.875 11.6577 3.25781 8.31931 5.71922 5.8579C8.18064 3.39648 11.519 2.01367 15 2.01367ZM13.365 17.728L10.4494 14.8105C10.3449 14.706 10.2208 14.6231 10.0842 14.5665C9.94763 14.51 9.80126 14.4809 9.65344 14.4809C9.50562 14.4809 9.35925 14.51 9.22268 14.5665C9.08611 14.6231 8.96202 14.706 8.8575 14.8105C8.6464 15.0216 8.52781 15.308 8.52781 15.6065C8.52781 15.905 8.6464 16.1913 8.8575 16.4024L12.57 20.1149C12.6742 20.22 12.7982 20.3033 12.9348 20.3602C13.0714 20.4171 13.218 20.4464 13.3659 20.4464C13.5139 20.4464 13.6604 20.4171 13.797 20.3602C13.9337 20.3033 14.0576 20.22 14.1619 20.1149L21.8494 12.4255C21.9553 12.3215 22.0396 12.1974 22.0973 12.0606C22.1551 11.9238 22.1851 11.7769 22.1858 11.6284C22.1865 11.4799 22.1578 11.3327 22.1013 11.1954C22.0449 11.058 21.9618 10.9332 21.8568 10.8281C21.7519 10.7231 21.6271 10.6398 21.4899 10.5832C21.3526 10.5265 21.2054 10.4976 21.0569 10.4982C20.9084 10.4987 20.7615 10.5286 20.6246 10.5862C20.4877 10.6438 20.3636 10.7279 20.2594 10.8337L13.365 17.728Z" fill="#1CC54E"/>
</svg>
