<svg width="85" height="27" viewBox="0 0 85 27" fill="none" xmlns="http://www.w3.org/2000/svg">
<rect width="85" height="27" rx="6" fill="#F1FAF5"/>
<rect x="8" y="9.5" width="8" height="8" rx="4" fill="#00AC4F"/>
<path d="M24.87 18.14C24.618 18.14 24.3753 18.098 24.142 18.014C23.9087 17.93 23.7173 17.7807 23.568 17.566C23.4187 17.3513 23.344 17.0527 23.344 16.67V10.328H24.59V16.516C24.59 16.7307 24.6367 16.8847 24.73 16.978C24.8233 17.0713 24.9727 17.118 25.178 17.118C25.262 17.118 25.3507 17.1087 25.444 17.09C25.5373 17.0713 25.626 17.048 25.71 17.02L25.878 17.93C25.7007 18.014 25.528 18.07 25.36 18.098C25.192 18.126 25.0287 18.14 24.87 18.14ZM30.1925 18.14C29.0912 18.14 28.3025 17.888 27.8265 17.384C27.3505 16.88 27.1125 16.1613 27.1125 15.228V10.328H28.3585V15.242C28.3585 15.8673 28.5078 16.334 28.8065 16.642C29.1052 16.95 29.5672 17.104 30.1925 17.104C30.8272 17.104 31.2938 16.95 31.5925 16.642C31.9005 16.334 32.0545 15.8673 32.0545 15.242V7.57H33.3005V15.228C33.3005 16.1613 33.0578 16.88 32.5725 17.384C32.0965 17.888 31.3032 18.14 30.1925 18.14ZM26.4191 9.11V8.564L27.4271 8.116H31.2631V9.11H26.4191ZM38.2071 18.14C37.4604 18.14 36.8724 17.9673 36.4431 17.622C36.0231 17.2673 35.7244 16.7913 35.5471 16.194C35.3791 15.5967 35.2951 14.9387 35.2951 14.22C35.2951 13.4267 35.3744 12.7733 35.5331 12.26C35.7011 11.7373 35.9344 11.3267 36.2331 11.028C36.5411 10.72 36.9051 10.5053 37.3251 10.384C37.7544 10.2533 38.2257 10.188 38.7391 10.188C39.4857 10.188 40.0924 10.3 40.5591 10.524C41.0351 10.7387 41.3851 11.0467 41.6091 11.448C41.8331 11.8493 41.9451 12.33 41.9451 12.89V18H40.7131V13.002C40.7131 12.4233 40.5684 11.9847 40.2791 11.686C39.9897 11.378 39.4904 11.224 38.7811 11.224C38.3517 11.224 37.9644 11.3033 37.6191 11.462C37.2831 11.6207 37.0171 11.9147 36.8211 12.344C36.6344 12.7733 36.5411 13.4033 36.5411 14.234C36.5411 14.7753 36.5924 15.2653 36.6951 15.704C36.8071 16.1333 36.9984 16.474 37.2691 16.726C37.5397 16.978 37.9177 17.104 38.4031 17.104C38.5431 17.104 38.6737 17.0947 38.7951 17.076C38.9164 17.0573 39.0331 17.0293 39.1451 16.992L39.2711 17.958C39.1217 18.0233 38.9491 18.07 38.7531 18.098C38.5664 18.126 38.3844 18.14 38.2071 18.14ZM45.826 18.14C45.5647 18.14 45.3174 18.098 45.084 18.014C44.8507 17.93 44.6594 17.7807 44.51 17.566C44.3607 17.3513 44.286 17.0527 44.286 16.67V11.196C44.286 10.9347 44.3094 10.7247 44.356 10.566C44.4027 10.398 44.4774 10.2347 44.58 10.076C44.692 9.91733 44.846 9.71667 45.042 9.474C45.2754 9.18467 45.448 8.94667 45.56 8.76C45.672 8.57333 45.728 8.368 45.728 8.144C45.728 7.87333 45.644 7.67267 45.476 7.542C45.3174 7.402 45.07 7.332 44.734 7.332C44.4447 7.332 44.1787 7.374 43.936 7.458C43.7027 7.542 43.5067 7.626 43.348 7.71V6.646C43.4787 6.57133 43.6747 6.50133 43.936 6.436C44.2067 6.36133 44.524 6.324 44.888 6.324C45.504 6.324 45.9987 6.464 46.372 6.744C46.7547 7.01467 46.946 7.43467 46.946 8.004C46.946 8.37733 46.876 8.704 46.736 8.984C46.596 9.264 46.4327 9.516 46.246 9.74C46.0874 9.94533 45.952 10.118 45.84 10.258C45.7374 10.3887 45.658 10.524 45.602 10.664C45.5554 10.804 45.532 10.9907 45.532 11.224V16.516C45.532 16.7307 45.5787 16.8847 45.672 16.978C45.7654 17.0713 45.91 17.118 46.106 17.118C46.2087 17.118 46.3067 17.1087 46.4 17.09C46.4934 17.0713 46.5774 17.048 46.652 17.02L46.82 17.93C46.6427 18.014 46.47 18.07 46.302 18.098C46.1434 18.126 45.9847 18.14 45.826 18.14ZM50.8148 18.14C49.9282 18.14 49.2422 17.93 48.7568 17.51C48.2808 17.0807 48.0428 16.4413 48.0428 15.592V14.738C48.0428 14.2713 48.1082 13.9027 48.2388 13.632C48.3695 13.3613 48.5095 13.128 48.6588 12.932C48.8175 12.7173 48.9528 12.5307 49.0648 12.372C49.1862 12.2133 49.2468 12.022 49.2468 11.798C49.2468 11.602 49.1955 11.462 49.0928 11.378C48.9995 11.294 48.8782 11.252 48.7288 11.252C48.6168 11.252 48.4955 11.2707 48.3648 11.308C48.2435 11.3453 48.1222 11.392 48.0008 11.448L47.7208 10.552C47.8888 10.44 48.0942 10.3607 48.3368 10.314C48.5888 10.2673 48.8082 10.244 48.9948 10.244C49.3402 10.244 49.6155 10.3047 49.8208 10.426C50.0355 10.5473 50.1895 10.7153 50.2828 10.93C50.3762 11.1353 50.4228 11.378 50.4228 11.658C50.4228 12.0033 50.3622 12.288 50.2408 12.512C50.1288 12.736 49.9935 12.9553 49.8348 13.17C49.6762 13.4033 49.5455 13.6273 49.4428 13.842C49.3402 14.0567 49.2888 14.3367 49.2888 14.682V15.508C49.2888 15.9373 49.3588 16.2687 49.4988 16.502C49.6388 16.7353 49.8255 16.8987 50.0588 16.992C50.2922 17.076 50.5442 17.118 50.8148 17.118C51.2815 17.118 51.6362 17.0107 51.8788 16.796C52.1215 16.572 52.2428 16.2313 52.2428 15.774V13.814C52.2428 13.4687 52.1635 13.2073 52.0048 13.03C51.8462 12.8433 51.5895 12.75 51.2348 12.75H51.1788V11.952H51.2488C51.6315 11.952 51.9022 11.8633 52.0608 11.686C52.2195 11.5087 52.3128 11.294 52.3408 11.042C52.3782 10.7807 52.3968 10.5427 52.3968 10.328H53.6428C53.6428 10.8227 53.5822 11.2427 53.4608 11.588C53.3395 11.9333 53.0642 12.1853 52.6348 12.344V12.4C52.8962 12.4653 53.0828 12.5773 53.1948 12.736C53.3162 12.8853 53.3955 13.058 53.4328 13.254C53.4702 13.4407 53.4888 13.6227 53.4888 13.8V15.844C53.4888 16.5627 53.2648 17.1273 52.8168 17.538C52.3688 17.9393 51.7015 18.14 50.8148 18.14ZM49.7425 9.11V8.494C49.9292 8.45667 50.1205 8.40533 50.3165 8.34C50.5125 8.26533 50.6759 8.172 50.8065 8.06C50.9372 7.93867 51.0025 7.794 51.0025 7.626C51.0025 7.514 50.9699 7.42067 50.9045 7.346C50.8299 7.262 50.7179 7.22 50.5685 7.22C50.4752 7.22 50.3819 7.23867 50.2885 7.276C50.1859 7.31333 50.0972 7.346 50.0225 7.374L49.7425 6.604C49.9292 6.45467 50.1392 6.35667 50.3725 6.31C50.5965 6.26333 50.7785 6.24 50.9185 6.24C51.2919 6.24 51.5859 6.34267 51.8005 6.548C52.0059 6.75333 52.1085 7.01467 52.1085 7.332C52.1085 7.59333 52.0432 7.822 51.9125 8.018C51.7725 8.20467 51.6139 8.354 51.4365 8.466L51.2965 8.13H54.0825V9.11H49.7425ZM57.0561 18L54.6621 10.328H55.9221L57.9941 16.922H58.1621C58.3861 16.922 58.6054 16.8707 58.8201 16.768C59.0348 16.656 59.2168 16.516 59.3661 16.348C59.6461 16.04 59.8514 15.6527 59.9821 15.186C60.1128 14.71 60.1781 14.2433 60.1781 13.786C60.1781 13.0113 60.0008 12.4047 59.6461 11.966C59.3008 11.518 58.8201 11.294 58.2041 11.294C58.0828 11.294 57.9614 11.3033 57.8401 11.322C57.7281 11.3407 57.6348 11.364 57.5601 11.392L57.2521 10.398C57.4481 10.342 57.6301 10.3047 57.7981 10.286C57.9754 10.2673 58.1341 10.258 58.2741 10.258C58.7408 10.258 59.1561 10.328 59.5201 10.468C59.8934 10.5987 60.2108 10.7947 60.4721 11.056C60.7988 11.3733 61.0368 11.77 61.1861 12.246C61.3448 12.722 61.4241 13.2493 61.4241 13.828C61.4241 14.556 61.3121 15.2047 61.0881 15.774C60.8641 16.334 60.5841 16.782 60.2481 17.118C59.9774 17.3887 59.6461 17.6033 59.2541 17.762C58.8621 17.9207 58.3628 18 57.7561 18H57.0561ZM65.4856 18V12.554C65.4856 12.0967 65.3783 11.7607 65.1636 11.546C64.9583 11.3313 64.6083 11.224 64.1136 11.224C63.7776 11.224 63.4603 11.2707 63.1616 11.364C62.8723 11.448 62.5923 11.5693 62.3216 11.728V10.608C62.5083 10.5147 62.7743 10.4213 63.1196 10.328C63.465 10.2347 63.8756 10.188 64.3516 10.188C64.837 10.188 65.257 10.258 65.6116 10.398C65.9663 10.538 66.2416 10.7713 66.4376 11.098C66.6336 11.4153 66.7316 11.84 66.7316 12.372V18H65.4856ZM71.6491 18.14C71.0985 18.14 70.6225 18.0467 70.2211 17.86C69.8291 17.664 69.5258 17.37 69.3111 16.978C69.1058 16.586 69.0031 16.0773 69.0031 15.452V10.328H70.2491V15.382C70.2491 15.942 70.3891 16.3667 70.6691 16.656C70.9585 16.9453 71.3738 17.09 71.9151 17.09C72.5685 17.09 73.0725 16.88 73.4271 16.46C73.7911 16.04 73.9731 15.4753 73.9731 14.766V10.328H75.2191V18H74.1831L74.1271 16.866H74.0571C73.8891 17.2393 73.5951 17.5473 73.1751 17.79C72.7645 18.0233 72.2558 18.14 71.6491 18.14Z" fill="#202020"/>
</svg>
