<svg width="67" height="26" viewBox="0 0 67 26" fill="none" xmlns="http://www.w3.org/2000/svg">
<path d="M1.105 19V16.161C1.105 15.447 1.24667 14.8973 1.53 14.512C1.81333 14.1267 2.21567 13.8547 2.737 13.696L2.754 13.628L0.935 12.965V12.523C0.935 11.9677 1.09933 11.4577 1.428 10.993C1.75667 10.5283 2.23833 10.16 2.873 9.888C3.519 9.60467 4.301 9.463 5.219 9.463C6.08033 9.463 6.82267 9.599 7.446 9.871C8.06933 10.1317 8.551 10.5283 8.891 11.061C9.24233 11.5823 9.418 12.2453 9.418 13.05V19H6.868V13.203C6.868 12.6363 6.715 12.2113 6.409 11.928C6.11433 11.6447 5.695 11.503 5.151 11.503C4.62967 11.503 4.23867 11.6163 3.978 11.843C3.71733 12.0583 3.57567 12.3247 3.553 12.642L5.066 13.339L4.879 14.444C4.471 14.4667 4.165 14.614 3.961 14.886C3.757 15.158 3.655 15.5263 3.655 15.991V19H1.105ZM14.0934 19V12.846C14.0934 12.37 13.9801 12.0243 13.7534 11.809C13.5381 11.5937 13.1811 11.486 12.6824 11.486C12.3084 11.486 11.9627 11.537 11.6454 11.639C11.3394 11.741 11.0504 11.8657 10.7784 12.013V9.973C11.0277 9.85967 11.3791 9.74633 11.8324 9.633C12.2857 9.51967 12.8184 9.463 13.4304 9.463C14.0537 9.463 14.6034 9.55367 15.0794 9.735C15.5667 9.91633 15.9464 10.2223 16.2184 10.653C16.5017 11.0723 16.6434 11.6503 16.6434 12.387V19H14.0934ZM22.0421 19.221C21.3734 19.221 20.6991 19.1473 20.0191 19C19.3504 18.8527 18.7554 18.643 18.2341 18.371L18.9481 16.348C19.1748 16.4727 19.4468 16.603 19.7641 16.739C20.0814 16.875 20.4271 16.9883 20.8011 17.079C21.1751 17.1697 21.5548 17.215 21.9401 17.215C22.3934 17.215 22.7334 17.1527 22.9601 17.028C23.1981 16.892 23.3171 16.688 23.3171 16.416C23.3171 16.212 23.2378 16.0477 23.0791 15.923C22.9318 15.787 22.7108 15.6623 22.4161 15.549C22.1214 15.4243 21.7701 15.294 21.3621 15.158C20.7614 14.9427 20.2458 14.7103 19.8151 14.461C19.3844 14.2117 19.0501 13.9057 18.8121 13.543C18.5854 13.1803 18.4721 12.727 18.4721 12.183C18.4721 11.5597 18.6308 11.0497 18.9481 10.653C19.2654 10.2563 19.7131 9.96167 20.2911 9.769C20.8691 9.565 21.5434 9.463 22.3141 9.463C22.9488 9.463 23.5211 9.514 24.0311 9.616C24.5411 9.718 24.9378 9.84833 25.2211 10.007V12.013C25.0284 11.9223 24.7734 11.8317 24.4561 11.741C24.1501 11.6503 23.8158 11.5767 23.4531 11.52C23.1018 11.452 22.7618 11.418 22.4331 11.418C21.9684 11.418 21.6171 11.4803 21.3791 11.605C21.1411 11.7297 21.0221 11.9053 21.0221 12.132C21.0221 12.3133 21.1014 12.4663 21.2601 12.591C21.4301 12.7157 21.6738 12.8347 21.9911 12.948C22.3084 13.05 22.6881 13.1803 23.1301 13.339C23.7194 13.543 24.2181 13.7697 24.6261 14.019C25.0341 14.2683 25.3401 14.5743 25.5441 14.937C25.7594 15.2997 25.8671 15.7473 25.8671 16.28C25.8671 16.79 25.7481 17.2717 25.5101 17.725C25.2834 18.167 24.8924 18.5297 24.3371 18.813C23.7818 19.085 23.0168 19.221 22.0421 19.221ZM31.2999 19.221C30.0306 19.221 29.0729 18.9377 28.4269 18.371C27.7809 17.8043 27.4579 16.977 27.4579 15.889V15.209C27.4579 14.7443 27.5203 14.3647 27.6449 14.07C27.7696 13.764 27.9226 13.4863 28.1039 13.237C28.2853 12.9877 28.4326 12.7667 28.5459 12.574C28.6706 12.37 28.7329 12.1603 28.7329 11.945C28.7329 11.741 28.6819 11.5993 28.5799 11.52C28.4893 11.4293 28.3646 11.384 28.2059 11.384C28.0926 11.384 27.9736 11.401 27.8489 11.435C27.7356 11.469 27.6053 11.52 27.4579 11.588L27.0499 9.99C27.3673 9.82 27.7073 9.70667 28.0699 9.65C28.4439 9.582 28.7726 9.548 29.0559 9.548C29.5546 9.548 29.9513 9.62733 30.2459 9.786C30.5519 9.94467 30.7729 10.1713 30.9089 10.466C31.0449 10.7607 31.1129 11.112 31.1129 11.52C31.1129 11.8713 31.0619 12.183 30.9599 12.455C30.8579 12.7157 30.7276 12.9877 30.5689 13.271C30.4216 13.5317 30.2856 13.7753 30.1609 14.002C30.0476 14.2287 29.9909 14.5573 29.9909 14.988V15.668C29.9909 16.0307 30.0419 16.331 30.1439 16.569C30.2573 16.7957 30.4103 16.9657 30.6029 17.079C30.8069 17.181 31.0449 17.232 31.3169 17.232C31.7589 17.232 32.0876 17.1073 32.3029 16.858C32.5183 16.5973 32.6259 16.229 32.6259 15.753V9.684H35.1589V15.821C35.1589 16.943 34.8303 17.793 34.1729 18.371C33.5156 18.9377 32.5579 19.221 31.2999 19.221ZM39.8305 19V12.846C39.8305 12.37 39.7171 12.0243 39.4905 11.809C39.2751 11.5937 38.9181 11.486 38.4195 11.486C38.0455 11.486 37.6998 11.537 37.3825 11.639C37.0765 11.741 36.7875 11.8657 36.5155 12.013V9.973C36.7648 9.85967 37.1161 9.74633 37.5695 9.633C38.0228 9.51967 38.5555 9.463 39.1675 9.463C39.7908 9.463 40.3405 9.55367 40.8165 9.735C41.3038 9.91633 41.6835 10.2223 41.9555 10.653C42.2388 11.0723 42.3805 11.6503 42.3805 12.387V19H39.8305ZM48.5272 19.221C47.5072 19.221 46.6912 19.102 46.0792 18.864C45.4672 18.6147 45.0195 18.269 44.7362 17.827C44.4642 17.385 44.3282 16.875 44.3282 16.297C44.3282 15.7983 44.4018 15.396 44.5492 15.09C44.7078 14.784 44.9062 14.5517 45.1442 14.393C45.3935 14.223 45.6428 14.1097 45.8922 14.053V13.951C45.6315 13.8603 45.3822 13.7357 45.1442 13.577C44.9062 13.4183 44.7078 13.203 44.5492 12.931C44.4018 12.659 44.3282 12.319 44.3282 11.911C44.3282 11.4917 44.4245 11.1007 44.6172 10.738C44.8212 10.3753 45.1442 10.0863 45.5862 9.871C46.0282 9.64433 46.6118 9.531 47.3372 9.531C47.6885 9.531 48.0285 9.55933 48.3572 9.616C48.6858 9.66133 48.9408 9.72933 49.1222 9.82L48.7312 11.537C48.6405 11.5143 48.5158 11.4917 48.3572 11.469C48.2098 11.435 48.0568 11.418 47.8982 11.418C47.5468 11.418 47.2862 11.503 47.1162 11.673C46.9462 11.8317 46.8612 12.0413 46.8612 12.302C46.8612 12.574 46.9348 12.7837 47.0822 12.931C47.2295 13.0783 47.4165 13.1803 47.6432 13.237C47.8812 13.2937 48.1248 13.322 48.3742 13.322H48.7312V14.903H48.3742C47.8868 14.903 47.5185 14.988 47.2692 15.158C47.0312 15.328 46.9122 15.6057 46.9122 15.991C46.9122 16.195 46.9575 16.399 47.0482 16.603C47.1502 16.7957 47.3202 16.96 47.5582 17.096C47.7962 17.2207 48.1362 17.283 48.5782 17.283C48.9975 17.283 49.3262 17.2207 49.5642 17.096C49.8022 16.9713 49.9722 16.807 50.0742 16.603C50.1762 16.3877 50.2272 16.1497 50.2272 15.889V9.684H52.7772V15.804C52.7772 16.9713 52.4315 17.8327 51.7402 18.388C51.0602 18.9433 49.9892 19.221 48.5272 19.221Z" fill="#3E3E3E"/>
<path d="M64.579 7.61L65.191 8.715L62.828 9.701L65.208 10.67L64.562 11.809L62.505 10.313L62.777 12.88H61.502L61.757 10.313L59.7 11.826L59.037 10.67L61.4 9.684L59.037 8.732L59.666 7.593L61.774 9.106L61.502 6.522H62.794L62.505 9.106L64.579 7.61Z" fill="#FA0505"/>
</svg>
