<svg width="186" height="73" viewBox="0 0 186 73" fill="none" xmlns="http://www.w3.org/2000/svg">
<path d="M55.3834 19.234C54.7714 19.234 54.1954 19.162 53.6554 19.018C53.1154 18.886 52.6114 18.694 52.1434 18.442L52.8634 16.48C53.1274 16.636 53.4454 16.774 53.8174 16.894C54.1894 17.014 54.5554 17.074 54.9154 17.074C55.5874 17.074 56.1214 16.822 56.5174 16.318C56.9134 15.802 57.1114 15.034 57.1114 14.014C57.1114 13.054 56.9134 12.322 56.5174 11.818C56.1214 11.314 55.5034 11.062 54.6634 11.062C54.2674 11.062 53.8594 11.122 53.4394 11.242C53.0194 11.35 52.6714 11.488 52.3954 11.656V9.442C52.7674 9.274 53.1874 9.142 53.6554 9.046C54.1234 8.95 54.6214 8.902 55.1494 8.902C56.2534 8.902 57.1534 9.106 57.8494 9.514C58.5454 9.922 59.0554 10.51 59.3794 11.278C59.7034 12.034 59.8654 12.946 59.8654 14.014C59.8654 15.718 59.4754 17.014 58.6954 17.902C57.9154 18.79 56.8114 19.234 55.3834 19.234ZM64.7615 19V12.484C64.7615 11.98 64.6415 11.614 64.4015 11.386C64.1735 11.158 63.7955 11.044 63.2675 11.044C62.8715 11.044 62.5055 11.098 62.1695 11.206C61.8455 11.314 61.5395 11.446 61.2515 11.602V9.442C61.5155 9.322 61.8875 9.202 62.3675 9.082C62.8475 8.962 63.4115 8.902 64.0595 8.902C64.7195 8.902 65.3015 8.998 65.8055 9.19C66.3215 9.382 66.7235 9.706 67.0115 10.162C67.3115 10.606 67.4615 11.218 67.4615 11.998V19H64.7615ZM71.8157 19L68.9537 9.136H71.6717L73.8497 16.822H73.9577C74.1497 16.822 74.3297 16.768 74.4977 16.66C74.6657 16.552 74.8097 16.408 74.9297 16.228C75.1697 15.892 75.3497 15.496 75.4697 15.04C75.5897 14.572 75.6497 14.11 75.6497 13.654C75.6497 12.85 75.4937 12.232 75.1817 11.8C74.8817 11.368 74.4617 11.152 73.9217 11.152C73.8137 11.152 73.7117 11.158 73.6157 11.17C73.5317 11.182 73.4537 11.206 73.3817 11.242L72.8777 9.172C73.1537 9.088 73.4117 9.04 73.6517 9.028C73.9037 9.004 74.1077 8.992 74.2637 8.992C74.8997 8.992 75.4517 9.076 75.9197 9.244C76.3877 9.412 76.7897 9.664 77.1257 10C77.5457 10.408 77.8577 10.918 78.0617 11.53C78.2777 12.142 78.3857 12.832 78.3857 13.6C78.3857 14.572 78.2297 15.424 77.9177 16.156C77.6177 16.876 77.2517 17.446 76.8197 17.866C76.4597 18.214 76.0037 18.49 75.4517 18.694C74.9117 18.898 74.1677 19 73.2197 19H71.8157ZM81.1869 10.936V8.308C81.1869 7.852 81.2289 7.486 81.3129 7.21C81.3969 6.922 81.5109 6.688 81.6549 6.508C81.7989 6.328 81.9489 6.178 82.1049 6.058L82.0869 5.986H79.2969L79.8009 4.042H85.5249V5.986C85.0809 5.986 84.6969 6.13 84.3729 6.418C84.0489 6.706 83.8869 7.234 83.8869 8.002V10.936H81.1869ZM83.6889 19.18C83.1489 19.18 82.6929 19.096 82.3209 18.928C81.9489 18.76 81.6669 18.508 81.4749 18.172C81.2829 17.824 81.1869 17.392 81.1869 16.876V9.136H83.8869V16.552C83.8869 16.78 83.9349 16.948 84.0309 17.056C84.1389 17.164 84.3009 17.218 84.5169 17.218C84.6129 17.218 84.7149 17.206 84.8229 17.182C84.9309 17.158 85.0329 17.128 85.1289 17.092L85.3809 18.82C85.1529 18.94 84.8949 19.03 84.6069 19.09C84.3189 19.15 84.0129 19.18 83.6889 19.18ZM87.6731 19L85.9991 9.136H88.6271L89.0771 12.61C89.1011 12.754 89.1251 12.976 89.1491 13.276C89.1851 13.576 89.2211 13.924 89.2571 14.32C89.3051 14.704 89.3411 15.106 89.3651 15.526H89.4371C89.5211 15.154 89.6051 14.794 89.6891 14.446C89.7731 14.098 89.8571 13.768 89.9411 13.456C90.0251 13.132 90.1031 12.832 90.1751 12.556L91.1471 9.136H92.7851L93.7391 12.556C93.8231 12.832 93.9011 13.132 93.9731 13.456C94.0571 13.768 94.1411 14.098 94.2251 14.446C94.3091 14.794 94.3931 15.154 94.4771 15.526H94.5311C94.5671 15.094 94.6031 14.692 94.6391 14.32C94.6751 13.948 94.7051 13.618 94.7291 13.33C94.7651 13.042 94.7891 12.802 94.8011 12.61L95.6291 5.59H98.2211L96.2411 19H93.5951L92.4611 14.986C92.3411 14.53 92.2451 14.104 92.1731 13.708C92.1131 13.312 92.0531 12.91 91.9931 12.502H91.9211C91.8851 12.778 91.8431 13.042 91.7951 13.294C91.7471 13.546 91.6931 13.81 91.6331 14.086C91.5731 14.35 91.4951 14.65 91.3991 14.986L90.2471 19H87.6731ZM105.387 19V12.592C105.387 12.016 105.231 11.602 104.919 11.35C104.607 11.098 104.127 10.972 103.479 10.972C102.855 10.972 102.243 11.068 101.643 11.26C101.055 11.44 100.545 11.656 100.113 11.908V9.676C100.461 9.508 100.953 9.34 101.589 9.172C102.225 8.992 102.963 8.902 103.803 8.902C104.415 8.902 104.973 8.968 105.477 9.1C105.993 9.22 106.443 9.43 106.827 9.73C107.211 10.018 107.505 10.408 107.709 10.9C107.925 11.38 108.033 11.98 108.033 12.7V19H105.387ZM102.435 19.18C101.403 19.18 100.605 18.934 100.041 18.442C99.489 17.95 99.213 17.26 99.213 16.372C99.213 15.412 99.555 14.644 100.239 14.068C100.935 13.492 102.027 13.144 103.515 13.024L105.819 12.844V14.788L103.821 14.986C103.101 15.058 102.597 15.202 102.309 15.418C102.033 15.634 101.895 15.922 101.895 16.282C101.895 16.642 102.009 16.912 102.237 17.092C102.477 17.272 102.783 17.362 103.155 17.362C103.299 17.362 103.443 17.35 103.587 17.326C103.731 17.29 103.863 17.254 103.983 17.218L104.217 18.91C103.989 18.994 103.719 19.06 103.407 19.108C103.095 19.156 102.771 19.18 102.435 19.18ZM104.666 8.164C104.57 7.996 104.492 7.78 104.432 7.516C104.36 7.252 104.324 6.988 104.324 6.724C104.324 6.388 104.39 6.082 104.522 5.806C104.642 5.53 104.864 5.314 105.188 5.158C105.5 4.99 105.932 4.906 106.484 4.906H109.094V6.724H107.366C107.138 6.724 106.964 6.766 106.844 6.85C106.712 6.922 106.646 7.06 106.646 7.264C106.646 7.348 106.658 7.438 106.682 7.534C106.706 7.618 106.742 7.708 106.79 7.804L104.666 8.164ZM110.972 19V9.136H112.952L113.312 10.684H113.456C113.66 10.192 114.014 9.784 114.518 9.46C115.022 9.124 115.676 8.956 116.48 8.956C117.248 8.956 117.884 9.094 118.388 9.37C118.892 9.634 119.27 10.042 119.522 10.594C119.786 11.134 119.918 11.818 119.918 12.646V19H117.218V13.186C117.218 12.514 117.08 12.034 116.804 11.746C116.54 11.446 116.15 11.296 115.634 11.296C115.214 11.296 114.854 11.41 114.554 11.638C114.266 11.866 114.044 12.202 113.888 12.646C113.744 13.078 113.672 13.624 113.672 14.284V19H110.972ZM111.391 7.768V6.634L113.209 5.878H119.635V7.768H111.391ZM117.331 6.67V4.636H119.635V6.67H117.331ZM117.463 3.682V0.333999H119.803V3.682H117.463ZM126.246 19.18C125.514 19.18 124.896 19.042 124.392 18.766C123.9 18.478 123.522 18.052 123.258 17.488C123.006 16.924 122.88 16.234 122.88 15.418V9.136H125.58V14.95C125.58 15.61 125.712 16.09 125.976 16.39C126.24 16.69 126.624 16.84 127.128 16.84C127.764 16.84 128.256 16.6 128.604 16.12C128.952 15.628 129.126 14.872 129.126 13.852V9.136H131.826V19H129.774L129.486 17.488H129.324C129.12 17.968 128.766 18.37 128.262 18.694C127.77 19.018 127.098 19.18 126.246 19.18ZM123.706 7.768V6.634L125.524 5.878H131.95V7.768H123.706ZM129.646 6.67V4.636H131.95V6.67H129.646ZM129.778 3.682V0.333999H132.118V3.682H129.778Z" fill="#333333"/>
<path d="M1.47936 42.084C1.23669 42.084 1.03136 42 0.863361 41.832C0.695361 41.664 0.611361 41.4587 0.611361 41.216C0.611361 40.9733 0.695361 40.768 0.863361 40.6C1.03136 40.432 1.23669 40.348 1.47936 40.348C1.71269 40.348 1.90869 40.432 2.06736 40.6C2.23536 40.768 2.31936 40.9733 2.31936 41.216C2.31936 41.4587 2.23536 41.664 2.06736 41.832C1.90869 42 1.71269 42.084 1.47936 42.084ZM8.16681 42L6.34681 39.144L4.59681 42H3.26681L5.74481 38.192L3.26681 34.328H4.70881L6.52881 37.17L8.26481 34.328H9.59482L7.13081 38.122L9.60881 42H8.16681ZM12.286 31.64V42H11.012V31.64H12.286ZM17.3233 42.126C16.7353 42.126 16.208 42.028 15.7413 41.832C15.2747 41.6267 14.906 41.3467 14.6353 40.992C14.3647 40.628 14.2153 40.2127 14.1873 39.746H15.5033C15.5407 40.1287 15.718 40.4413 16.0353 40.684C16.362 40.9267 16.7867 41.048 17.3093 41.048C17.7947 41.048 18.1773 40.9407 18.4573 40.726C18.7373 40.5113 18.8773 40.2407 18.8773 39.914C18.8773 39.578 18.728 39.3307 18.4293 39.172C18.1307 39.004 17.6687 38.8407 17.0433 38.682C16.474 38.5327 16.0073 38.3833 15.6433 38.234C15.2887 38.0753 14.9807 37.8467 14.7193 37.548C14.4673 37.24 14.3413 36.8387 14.3413 36.344C14.3413 35.952 14.458 35.5927 14.6913 35.266C14.9247 34.9393 15.256 34.6827 15.6853 34.496C16.1147 34.3 16.6047 34.202 17.1553 34.202C18.0047 34.202 18.6907 34.4167 19.2133 34.846C19.736 35.2753 20.016 35.8633 20.0533 36.61H18.7793C18.7513 36.2087 18.588 35.8867 18.2893 35.644C18 35.4013 17.608 35.28 17.1133 35.28C16.656 35.28 16.292 35.378 16.0213 35.574C15.7507 35.77 15.6153 36.0267 15.6153 36.344C15.6153 36.596 15.6947 36.806 15.8533 36.974C16.0213 37.1327 16.2267 37.2633 16.4693 37.366C16.7213 37.4593 17.0667 37.5667 17.5053 37.688C18.056 37.8373 18.504 37.9867 18.8493 38.136C19.1947 38.276 19.4887 38.4907 19.7313 38.78C19.9833 39.0693 20.114 39.4473 20.1233 39.914C20.1233 40.334 20.0067 40.712 19.7733 41.048C19.54 41.384 19.2087 41.65 18.7793 41.846C18.3593 42.0327 17.874 42.126 17.3233 42.126ZM31.2978 34.188C31.8951 34.188 32.4271 34.314 32.8938 34.566C33.3605 34.8087 33.7291 35.1773 33.9998 35.672C34.2705 36.1667 34.4058 36.7687 34.4058 37.478V42H33.1458V37.66C33.1458 36.8947 32.9545 36.3113 32.5718 35.91C32.1985 35.4993 31.6898 35.294 31.0458 35.294C30.3831 35.294 29.8558 35.5087 29.4638 35.938C29.0718 36.358 28.8758 36.9693 28.8758 37.772V42H27.6158V37.66C27.6158 36.8947 27.4245 36.3113 27.0418 35.91C26.6685 35.4993 26.1598 35.294 25.5158 35.294C24.8531 35.294 24.3258 35.5087 23.9338 35.938C23.5418 36.358 23.3458 36.9693 23.3458 37.772V42H22.0718V34.328H23.3458V35.434C23.5978 35.0327 23.9338 34.7247 24.3538 34.51C24.7831 34.2953 25.2545 34.188 25.7678 34.188C26.4118 34.188 26.9811 34.3327 27.4758 34.622C27.9705 34.9113 28.3391 35.336 28.5818 35.896C28.7965 35.3547 29.1511 34.9347 29.6458 34.636C30.1405 34.3373 30.6911 34.188 31.2978 34.188ZM37.9616 40.236L36.3936 44.002H35.5396L36.5616 40.236H37.9616ZM43.8594 42.084C43.6168 42.084 43.4114 42 43.2434 41.832C43.0754 41.664 42.9914 41.4587 42.9914 41.216C42.9914 40.9733 43.0754 40.768 43.2434 40.6C43.4114 40.432 43.6168 40.348 43.8594 40.348C44.0928 40.348 44.2888 40.432 44.4474 40.6C44.6154 40.768 44.6994 40.9733 44.6994 41.216C44.6994 41.4587 44.6154 41.664 44.4474 41.832C44.2888 42 44.0928 42.084 43.8594 42.084ZM50.5469 42L48.7269 39.144L46.9769 42H45.6469L48.1249 38.192L45.6469 34.328H47.0889L48.9089 37.17L50.6449 34.328H51.9749L49.5109 38.122L51.9889 42H50.5469ZM54.6661 31.64V42H53.3921V31.64H54.6661ZM60.9914 42L59.1714 39.144L57.4214 42H56.0914L58.5694 38.192L56.0914 34.328H57.5334L59.3534 37.17L61.0894 34.328H62.4194L59.9554 38.122L62.4334 42H60.9914ZM66.5526 42.126C65.9646 42.126 65.4373 42.028 64.9706 41.832C64.504 41.6267 64.1353 41.3467 63.8646 40.992C63.594 40.628 63.4446 40.2127 63.4166 39.746H64.7326C64.77 40.1287 64.9473 40.4413 65.2646 40.684C65.5913 40.9267 66.016 41.048 66.5386 41.048C67.024 41.048 67.4066 40.9407 67.6866 40.726C67.9666 40.5113 68.1066 40.2407 68.1066 39.914C68.1066 39.578 67.9573 39.3307 67.6586 39.172C67.36 39.004 66.898 38.8407 66.2726 38.682C65.7033 38.5327 65.2366 38.3833 64.8726 38.234C64.518 38.0753 64.21 37.8467 63.9486 37.548C63.6966 37.24 63.5706 36.8387 63.5706 36.344C63.5706 35.952 63.6873 35.5927 63.9206 35.266C64.154 34.9393 64.4853 34.6827 64.9146 34.496C65.344 34.3 65.834 34.202 66.3846 34.202C67.234 34.202 67.92 34.4167 68.4426 34.846C68.9653 35.2753 69.2453 35.8633 69.2826 36.61H68.0086C67.9806 36.2087 67.8173 35.8867 67.5186 35.644C67.2293 35.4013 66.8373 35.28 66.3426 35.28C65.8853 35.28 65.5213 35.378 65.2506 35.574C64.98 35.77 64.8446 36.0267 64.8446 36.344C64.8446 36.596 64.924 36.806 65.0826 36.974C65.2506 37.1327 65.456 37.2633 65.6986 37.366C65.9506 37.4593 66.296 37.5667 66.7346 37.688C67.2853 37.8373 67.7333 37.9867 68.0786 38.136C68.424 38.276 68.718 38.4907 68.9606 38.78C69.2126 39.0693 69.3433 39.4473 69.3526 39.914C69.3526 40.334 69.236 40.712 69.0026 41.048C68.7693 41.384 68.438 41.65 68.0086 41.846C67.5886 42.0327 67.1033 42.126 66.5526 42.126ZM72.6171 40.236L71.0491 44.002H70.1951L71.2171 40.236H72.6171ZM78.5149 42.084C78.2722 42.084 78.0669 42 77.8989 41.832C77.7309 41.664 77.6469 41.4587 77.6469 41.216C77.6469 40.9733 77.7309 40.768 77.8989 40.6C78.0669 40.432 78.2722 40.348 78.5149 40.348C78.7482 40.348 78.9442 40.432 79.1029 40.6C79.2709 40.768 79.3549 40.9733 79.3549 41.216C79.3549 41.4587 79.2709 41.664 79.1029 41.832C78.9442 42 78.7482 42.084 78.5149 42.084ZM82.4724 35.742C82.7244 35.3033 83.0977 34.9393 83.5924 34.65C84.0964 34.3513 84.6797 34.202 85.3424 34.202C86.0237 34.202 86.6397 34.3653 87.1904 34.692C87.7504 35.0187 88.189 35.4807 88.5064 36.078C88.8237 36.666 88.9824 37.352 88.9824 38.136C88.9824 38.9107 88.8237 39.6013 88.5064 40.208C88.189 40.8147 87.7504 41.286 87.1904 41.622C86.6397 41.958 86.0237 42.126 85.3424 42.126C84.689 42.126 84.1104 41.9813 83.6064 41.692C83.1117 41.3933 82.7337 41.0247 82.4724 40.586V45.64H81.1984V34.328H82.4724V35.742ZM87.6804 38.136C87.6804 37.5573 87.5637 37.0533 87.3304 36.624C87.097 36.1947 86.7797 35.868 86.3784 35.644C85.9864 35.42 85.5524 35.308 85.0764 35.308C84.6097 35.308 84.1757 35.4247 83.7744 35.658C83.3824 35.882 83.065 36.2133 82.8224 36.652C82.589 37.0813 82.4724 37.5807 82.4724 38.15C82.4724 38.7287 82.589 39.2373 82.8224 39.676C83.065 40.1053 83.3824 40.4367 83.7744 40.67C84.1757 40.894 84.6097 41.006 85.0764 41.006C85.5524 41.006 85.9864 40.894 86.3784 40.67C86.7797 40.4367 87.097 40.1053 87.3304 39.676C87.5637 39.2373 87.6804 38.724 87.6804 38.136ZM90.3333 38.136C90.3333 37.352 90.492 36.666 90.8093 36.078C91.1266 35.4807 91.5606 35.0187 92.1113 34.692C92.6713 34.3653 93.2966 34.202 93.9873 34.202C94.5846 34.202 95.14 34.342 95.6533 34.622C96.1666 34.8927 96.5586 35.252 96.8293 35.7V31.64H98.1173V42H96.8293V40.558C96.5773 41.0153 96.204 41.3933 95.7093 41.692C95.2146 41.9813 94.636 42.126 93.9733 42.126C93.292 42.126 92.6713 41.958 92.1113 41.622C91.5606 41.286 91.1266 40.8147 90.8093 40.208C90.492 39.6013 90.3333 38.9107 90.3333 38.136ZM96.8293 38.15C96.8293 37.5713 96.7126 37.0673 96.4793 36.638C96.246 36.2087 95.9286 35.882 95.5273 35.658C95.1353 35.4247 94.7013 35.308 94.2253 35.308C93.7493 35.308 93.3153 35.42 92.9233 35.644C92.5313 35.868 92.2186 36.1947 91.9853 36.624C91.752 37.0533 91.6353 37.5573 91.6353 38.136C91.6353 38.724 91.752 39.2373 91.9853 39.676C92.2186 40.1053 92.5313 40.4367 92.9233 40.67C93.3153 40.894 93.7493 41.006 94.2253 41.006C94.7013 41.006 95.1353 40.894 95.5273 40.67C95.9286 40.4367 96.246 40.1053 96.4793 39.676C96.7126 39.2373 96.8293 38.7287 96.8293 38.15ZM103.542 35.378H101.932V42H100.658V35.378H99.6642V34.328H100.658V33.782C100.658 32.9233 100.878 32.298 101.316 31.906C101.764 31.5047 102.478 31.304 103.458 31.304V32.368C102.898 32.368 102.502 32.48 102.268 32.704C102.044 32.9187 101.932 33.278 101.932 33.782V34.328H103.542V35.378ZM106.494 40.236L104.926 44.002H104.072L105.094 40.236H106.494ZM112.391 42.084C112.149 42.084 111.943 42 111.775 41.832C111.607 41.664 111.523 41.4587 111.523 41.216C111.523 40.9733 111.607 40.768 111.775 40.6C111.943 40.432 112.149 40.348 112.391 40.348C112.625 40.348 112.821 40.432 112.979 40.6C113.147 40.768 113.231 40.9733 113.231 41.216C113.231 41.4587 113.147 41.664 112.979 41.832C112.821 42 112.625 42.084 112.391 42.084ZM114.599 38.136C114.599 37.352 114.758 36.666 115.075 36.078C115.392 35.4807 115.826 35.0187 116.377 34.692C116.937 34.3653 117.562 34.202 118.253 34.202C118.85 34.202 119.406 34.342 119.919 34.622C120.432 34.8927 120.824 35.252 121.095 35.7V31.64H122.383V42H121.095V40.558C120.843 41.0153 120.47 41.3933 119.975 41.692C119.48 41.9813 118.902 42.126 118.239 42.126C117.558 42.126 116.937 41.958 116.377 41.622C115.826 41.286 115.392 40.8147 115.075 40.208C114.758 39.6013 114.599 38.9107 114.599 38.136ZM121.095 38.15C121.095 37.5713 120.978 37.0673 120.745 36.638C120.512 36.2087 120.194 35.882 119.793 35.658C119.401 35.4247 118.967 35.308 118.491 35.308C118.015 35.308 117.581 35.42 117.189 35.644C116.797 35.868 116.484 36.1947 116.251 36.624C116.018 37.0533 115.901 37.5573 115.901 38.136C115.901 38.724 116.018 39.2373 116.251 39.676C116.484 40.1053 116.797 40.4367 117.189 40.67C117.581 40.894 118.015 41.006 118.491 41.006C118.967 41.006 119.401 40.894 119.793 40.67C120.194 40.4367 120.512 40.1053 120.745 39.676C120.978 39.2373 121.095 38.7287 121.095 38.15ZM128.032 42.126C127.313 42.126 126.66 41.9627 126.072 41.636C125.493 41.3093 125.036 40.8473 124.7 40.25C124.373 39.6433 124.21 38.9433 124.21 38.15C124.21 37.366 124.378 36.6753 124.714 36.078C125.059 35.4713 125.526 35.0093 126.114 34.692C126.702 34.3653 127.36 34.202 128.088 34.202C128.816 34.202 129.474 34.3653 130.062 34.692C130.65 35.0093 131.112 35.4667 131.448 36.064C131.793 36.6613 131.966 37.3567 131.966 38.15C131.966 38.9433 131.789 39.6433 131.434 40.25C131.089 40.8473 130.617 41.3093 130.02 41.636C129.423 41.9627 128.76 42.126 128.032 42.126ZM128.032 41.006C128.489 41.006 128.919 40.8987 129.32 40.684C129.721 40.4693 130.043 40.1473 130.286 39.718C130.538 39.2887 130.664 38.766 130.664 38.15C130.664 37.534 130.543 37.0113 130.3 36.582C130.057 36.1527 129.74 35.8353 129.348 35.63C128.956 35.4153 128.531 35.308 128.074 35.308C127.607 35.308 127.178 35.4153 126.786 35.63C126.403 35.8353 126.095 36.1527 125.862 36.582C125.629 37.0113 125.512 37.534 125.512 38.15C125.512 38.7753 125.624 39.3027 125.848 39.732C126.081 40.1613 126.389 40.4833 126.772 40.698C127.155 40.9033 127.575 41.006 128.032 41.006ZM133.315 38.15C133.315 37.3567 133.474 36.666 133.791 36.078C134.108 35.4807 134.547 35.0187 135.107 34.692C135.676 34.3653 136.325 34.202 137.053 34.202C137.996 34.202 138.77 34.4307 139.377 34.888C139.993 35.3453 140.399 35.98 140.595 36.792H139.223C139.092 36.3253 138.836 35.9567 138.453 35.686C138.08 35.4153 137.613 35.28 137.053 35.28C136.325 35.28 135.737 35.532 135.289 36.036C134.841 36.5307 134.617 37.2353 134.617 38.15C134.617 39.074 134.841 39.788 135.289 40.292C135.737 40.796 136.325 41.048 137.053 41.048C137.613 41.048 138.08 40.9173 138.453 40.656C138.826 40.3947 139.083 40.0213 139.223 39.536H140.595C140.39 40.32 139.979 40.95 139.363 41.426C138.747 41.8927 137.977 42.126 137.053 42.126C136.325 42.126 135.676 41.9627 135.107 41.636C134.547 41.3093 134.108 40.8473 133.791 40.25C133.474 39.6527 133.315 38.9527 133.315 38.15ZM143.761 40.236L142.193 44.002H141.339L142.361 40.236H143.761ZM149.659 42.084C149.416 42.084 149.211 42 149.043 41.832C148.875 41.664 148.791 41.4587 148.791 41.216C148.791 40.9733 148.875 40.768 149.043 40.6C149.211 40.432 149.416 40.348 149.659 40.348C149.892 40.348 150.088 40.432 150.247 40.6C150.415 40.768 150.499 40.9733 150.499 41.216C150.499 41.4587 150.415 41.664 150.247 41.832C150.088 42 149.892 42.084 149.659 42.084ZM151.866 38.136C151.866 37.352 152.025 36.666 152.342 36.078C152.659 35.4807 153.093 35.0187 153.644 34.692C154.204 34.3653 154.829 34.202 155.52 34.202C156.117 34.202 156.673 34.342 157.186 34.622C157.699 34.8927 158.091 35.252 158.362 35.7V31.64H159.65V42H158.362V40.558C158.11 41.0153 157.737 41.3933 157.242 41.692C156.747 41.9813 156.169 42.126 155.506 42.126C154.825 42.126 154.204 41.958 153.644 41.622C153.093 41.286 152.659 40.8147 152.342 40.208C152.025 39.6013 151.866 38.9107 151.866 38.136ZM158.362 38.15C158.362 37.5713 158.245 37.0673 158.012 36.638C157.779 36.2087 157.461 35.882 157.06 35.658C156.668 35.4247 156.234 35.308 155.758 35.308C155.282 35.308 154.848 35.42 154.456 35.644C154.064 35.868 153.751 36.1947 153.518 36.624C153.285 37.0533 153.168 37.5573 153.168 38.136C153.168 38.724 153.285 39.2373 153.518 39.676C153.751 40.1053 154.064 40.4367 154.456 40.67C154.848 40.894 155.282 41.006 155.758 41.006C156.234 41.006 156.668 40.894 157.06 40.67C157.461 40.4367 157.779 40.1053 158.012 39.676C158.245 39.2373 158.362 38.7287 158.362 38.15ZM165.299 42.126C164.58 42.126 163.927 41.9627 163.339 41.636C162.76 41.3093 162.303 40.8473 161.967 40.25C161.64 39.6433 161.477 38.9433 161.477 38.15C161.477 37.366 161.645 36.6753 161.981 36.078C162.326 35.4713 162.793 35.0093 163.381 34.692C163.969 34.3653 164.627 34.202 165.355 34.202C166.083 34.202 166.741 34.3653 167.329 34.692C167.917 35.0093 168.379 35.4667 168.715 36.064C169.06 36.6613 169.233 37.3567 169.233 38.15C169.233 38.9433 169.056 39.6433 168.701 40.25C168.356 40.8473 167.884 41.3093 167.287 41.636C166.69 41.9627 166.027 42.126 165.299 42.126ZM165.299 41.006C165.756 41.006 166.186 40.8987 166.587 40.684C166.988 40.4693 167.31 40.1473 167.553 39.718C167.805 39.2887 167.931 38.766 167.931 38.15C167.931 37.534 167.81 37.0113 167.567 36.582C167.324 36.1527 167.007 35.8353 166.615 35.63C166.223 35.4153 165.798 35.308 165.341 35.308C164.874 35.308 164.445 35.4153 164.053 35.63C163.67 35.8353 163.362 36.1527 163.129 36.582C162.896 37.0113 162.779 37.534 162.779 38.15C162.779 38.7753 162.891 39.3027 163.115 39.732C163.348 40.1613 163.656 40.4833 164.039 40.698C164.422 40.9033 164.842 41.006 165.299 41.006ZM170.582 38.15C170.582 37.3567 170.741 36.666 171.058 36.078C171.375 35.4807 171.814 35.0187 172.374 34.692C172.943 34.3653 173.592 34.202 174.32 34.202C175.263 34.202 176.037 34.4307 176.644 34.888C177.26 35.3453 177.666 35.98 177.862 36.792H176.49C176.359 36.3253 176.103 35.9567 175.72 35.686C175.347 35.4153 174.88 35.28 174.32 35.28C173.592 35.28 173.004 35.532 172.556 36.036C172.108 36.5307 171.884 37.2353 171.884 38.15C171.884 39.074 172.108 39.788 172.556 40.292C173.004 40.796 173.592 41.048 174.32 41.048C174.88 41.048 175.347 40.9173 175.72 40.656C176.093 40.3947 176.35 40.0213 176.49 39.536H177.862C177.657 40.32 177.246 40.95 176.63 41.426C176.014 41.8927 175.244 42.126 174.32 42.126C173.592 42.126 172.943 41.9627 172.374 41.636C171.814 41.3093 171.375 40.8473 171.058 40.25C170.741 39.6527 170.582 38.9527 170.582 38.15ZM183.716 42L181.896 39.144L180.146 42H178.816L181.294 38.192L178.816 34.328H180.258L182.078 37.17L183.814 34.328H185.144L182.68 38.122L185.158 42H183.716Z" fill="#5F5F5F"/>
<path d="M36.3314 66.14C35.454 66.14 34.7727 65.93 34.2874 65.51C33.8114 65.0807 33.5734 64.4413 33.5734 63.592V62.738C33.5734 62.2713 33.6387 61.9027 33.7694 61.632C33.9 61.3613 34.04 61.128 34.1894 60.932C34.348 60.7173 34.4834 60.5307 34.5954 60.372C34.7167 60.2133 34.7774 60.022 34.7774 59.798C34.7774 59.602 34.726 59.462 34.6234 59.378C34.53 59.294 34.4087 59.252 34.2594 59.252C34.1474 59.252 34.026 59.2707 33.8954 59.308C33.774 59.3453 33.6527 59.392 33.5314 59.448L33.2514 58.552C33.4194 58.44 33.6247 58.3607 33.8674 58.314C34.1194 58.2673 34.3387 58.244 34.5254 58.244C34.8707 58.244 35.146 58.3047 35.3514 58.426C35.566 58.5473 35.72 58.7153 35.8134 58.93C35.9067 59.1353 35.9534 59.378 35.9534 59.658C35.9534 60.0033 35.8927 60.288 35.7714 60.512C35.6594 60.736 35.524 60.9553 35.3654 61.17C35.2067 61.4033 35.076 61.6273 34.9734 61.842C34.8707 62.0567 34.8194 62.3367 34.8194 62.682V63.508C34.8194 63.9373 34.8894 64.2687 35.0294 64.502C35.1694 64.7353 35.356 64.8987 35.5894 64.992C35.8227 65.076 36.07 65.118 36.3314 65.118C36.798 65.118 37.1527 65.0107 37.3954 64.796C37.6474 64.572 37.7734 64.2313 37.7734 63.774V58.328H39.0194V63.844C39.0194 64.5627 38.7907 65.1273 38.3334 65.538C37.8854 65.9393 37.218 66.14 36.3314 66.14ZM44.0816 66.14C43.5309 66.14 43.0549 66.0467 42.6536 65.86C42.2616 65.664 41.9583 65.37 41.7436 64.978C41.5383 64.586 41.4356 64.0773 41.4356 63.452V58.328H42.6816V63.382C42.6816 63.942 42.8216 64.3667 43.1016 64.656C43.3909 64.9453 43.8063 65.09 44.3476 65.09C45.0009 65.09 45.5049 64.88 45.8596 64.46C46.2236 64.04 46.4056 63.4753 46.4056 62.766V58.328H47.6516V66H46.6156L46.5596 64.866H46.4896C46.3216 65.2393 46.0276 65.5473 45.6076 65.79C45.1969 66.0233 44.6883 66.14 44.0816 66.14ZM52.3415 66V60.554C52.3415 60.0967 52.2342 59.7607 52.0195 59.546C51.8142 59.3313 51.4642 59.224 50.9695 59.224C50.6335 59.224 50.3162 59.2707 50.0175 59.364C49.7282 59.448 49.4482 59.5693 49.1775 59.728V58.608C49.3642 58.5147 49.6302 58.4213 49.9755 58.328C50.3209 58.2347 50.7315 58.188 51.2075 58.188C51.6929 58.188 52.1129 58.258 52.4675 58.398C52.8222 58.538 53.0975 58.7713 53.2935 59.098C53.4895 59.4153 53.5875 59.84 53.5875 60.372V66H52.3415ZM58.627 66.14C57.8804 66.14 57.2924 65.9673 56.863 65.622C56.443 65.2673 56.1444 64.7913 55.967 64.194C55.799 63.5967 55.715 62.9387 55.715 62.22C55.715 61.4267 55.7944 60.7733 55.953 60.26C56.121 59.7373 56.3544 59.3267 56.653 59.028C56.961 58.72 57.325 58.5053 57.745 58.384C58.1744 58.2533 58.6457 58.188 59.159 58.188C59.9057 58.188 60.5124 58.3 60.979 58.524C61.455 58.7387 61.805 59.0467 62.0291 59.448C62.2531 59.8493 62.365 60.33 62.365 60.89V66H61.133V61.002C61.133 60.4233 60.9884 59.9847 60.699 59.686C60.4097 59.378 59.9104 59.224 59.201 59.224C58.7717 59.224 58.3844 59.3033 58.039 59.462C57.703 59.6207 57.437 59.9147 57.241 60.344C57.0544 60.7733 56.961 61.4033 56.961 62.234C56.961 62.7753 57.0124 63.2653 57.115 63.704C57.227 64.1333 57.4184 64.474 57.689 64.726C57.9597 64.978 58.3377 65.104 58.823 65.104C58.963 65.104 59.0937 65.0947 59.215 65.076C59.3364 65.0573 59.453 65.0293 59.565 64.992L59.691 65.958C59.5417 66.0233 59.369 66.07 59.173 66.098C58.9864 66.126 58.8044 66.14 58.627 66.14ZM65.192 59.728V57.222C65.192 56.8673 65.2247 56.5827 65.29 56.368C65.3553 56.144 65.444 55.962 65.556 55.822C65.668 55.682 65.7893 55.5653 65.92 55.472L65.906 55.416H63.47L63.792 54.436H67.74V55.416C67.3947 55.416 67.0913 55.528 66.83 55.752C66.5687 55.976 66.438 56.3867 66.438 56.984V59.728H65.192ZM66.718 66.14C66.466 66.14 66.2233 66.098 65.99 66.014C65.7567 65.93 65.5653 65.7807 65.416 65.566C65.2667 65.3513 65.192 65.0527 65.192 64.67V58.328H66.438V64.516C66.438 64.7307 66.4847 64.8847 66.578 64.978C66.6713 65.0713 66.8207 65.118 67.026 65.118C67.11 65.118 67.1987 65.1087 67.292 65.09C67.3853 65.0713 67.474 65.048 67.558 65.02L67.726 65.93C67.5487 66.014 67.376 66.07 67.208 66.098C67.04 66.126 66.8767 66.14 66.718 66.14ZM69.6982 66L68.3682 58.328H69.6422L70.1322 61.66C70.1509 61.744 70.1742 61.926 70.2022 62.206C70.2302 62.486 70.2629 62.808 70.3002 63.172C70.3469 63.536 70.3889 63.8907 70.4262 64.236H70.4962C70.5429 63.9747 70.5989 63.7087 70.6642 63.438C70.7295 63.158 70.7995 62.8687 70.8742 62.57C70.9582 62.262 71.0469 61.9447 71.1402 61.618L72.0922 58.328H73.1002L74.0522 61.618C74.1455 61.9447 74.2295 62.262 74.3042 62.57C74.3882 62.8687 74.4629 63.158 74.5282 63.438C74.5935 63.7087 74.6495 63.9747 74.6962 64.236H74.7522C74.7895 63.8533 74.8222 63.5033 74.8502 63.186C74.8875 62.8687 74.9202 62.5793 74.9482 62.318C74.9762 62.0567 74.9995 61.8373 75.0182 61.66L75.8162 55.57H77.0482L75.5082 66H74.2762L73.0022 61.828C72.9369 61.632 72.8762 61.3987 72.8202 61.128C72.7642 60.8573 72.7035 60.5167 72.6382 60.106H72.5822C72.5355 60.3767 72.4889 60.6147 72.4422 60.82C72.4049 61.0253 72.3629 61.2073 72.3162 61.366C72.2789 61.5247 72.2369 61.6787 72.1902 61.828L70.9162 66H69.6982ZM83.1152 66V60.89C83.1152 60.2833 82.9752 59.854 82.6952 59.602C82.4245 59.3407 81.9672 59.21 81.3232 59.21C80.8565 59.21 80.4085 59.2753 79.9792 59.406C79.5592 59.5273 79.1578 59.7 78.7752 59.924V58.762C79.0458 58.622 79.4098 58.4913 79.8672 58.37C80.3338 58.2487 80.8565 58.188 81.4352 58.188C81.9298 58.188 82.3592 58.244 82.7232 58.356C83.0872 58.4587 83.3858 58.6173 83.6192 58.832C83.8618 59.0467 84.0438 59.322 84.1652 59.658C84.2865 59.9847 84.3472 60.372 84.3472 60.82V66H83.1152ZM80.7072 66.14C79.8858 66.14 79.2558 65.9533 78.8172 65.58C78.3878 65.1973 78.1732 64.6513 78.1732 63.942C78.1732 63.1673 78.4532 62.57 79.0132 62.15C79.5825 61.73 80.5018 61.4827 81.7712 61.408L83.3672 61.31V62.346L81.9392 62.444C80.9872 62.5093 80.3292 62.6587 79.9652 62.892C79.6105 63.1253 79.4332 63.466 79.4332 63.914C79.4332 64.334 79.5638 64.642 79.8252 64.838C80.0958 65.034 80.4692 65.132 80.9452 65.132C81.1038 65.132 81.2485 65.1227 81.3792 65.104C81.5098 65.076 81.6358 65.0433 81.7572 65.006L81.9532 65.944C81.7758 66.0093 81.5798 66.056 81.3652 66.084C81.1598 66.1213 80.9405 66.14 80.7072 66.14ZM81.9975 57.516C81.9322 57.4133 81.8808 57.2827 81.8435 57.124C81.7968 56.956 81.7735 56.7927 81.7735 56.634C81.7735 56.438 81.8155 56.256 81.8995 56.088C81.9835 55.9107 82.1328 55.766 82.3475 55.654C82.5622 55.542 82.8608 55.486 83.2435 55.486H85.1615V56.452H83.5655C83.3788 56.452 83.2295 56.4893 83.1175 56.564C83.0055 56.6293 82.9495 56.746 82.9495 56.914C82.9495 56.9793 82.9635 57.0493 82.9915 57.124C83.0102 57.1987 83.0382 57.2733 83.0755 57.348L81.9975 57.516ZM87.3252 59.728V57.222C87.3252 56.8673 87.3579 56.5827 87.4232 56.368C87.4885 56.144 87.5772 55.962 87.6892 55.822C87.8012 55.682 87.9225 55.5653 88.0532 55.472L88.0392 55.416H85.6032L85.9252 54.436H89.8732V55.416C89.5279 55.416 89.2245 55.528 88.9632 55.752C88.7019 55.976 88.5712 56.3867 88.5712 56.984V59.728H87.3252ZM88.8512 66.14C88.5992 66.14 88.3565 66.098 88.1232 66.014C87.8899 65.93 87.6985 65.7807 87.5492 65.566C87.3999 65.3513 87.3252 65.0527 87.3252 64.67V58.328H88.5712V64.516C88.5712 64.7307 88.6179 64.8847 88.7112 64.978C88.8045 65.0713 88.9539 65.118 89.1592 65.118C89.2432 65.118 89.3319 65.1087 89.4252 65.09C89.5185 65.0713 89.6072 65.048 89.6912 65.02L89.8592 65.93C89.6819 66.014 89.5092 66.07 89.3412 66.098C89.1732 66.126 89.0099 66.14 88.8512 66.14ZM95.0172 66.14C94.4198 66.14 93.9018 66.0233 93.4632 65.79C93.0338 65.5473 92.7398 65.2113 92.5812 64.782H92.5252L92.4552 66H91.4332V58.328H92.6792V62.766C92.6792 63.2327 92.7585 63.6433 92.9172 63.998C93.0852 64.3433 93.3232 64.614 93.6312 64.81C93.9485 64.9967 94.3265 65.09 94.7652 65.09C95.3158 65.09 95.7265 64.9453 95.9972 64.656C96.2678 64.3667 96.4032 63.942 96.4032 63.382V58.328H97.6492V63.466C97.6492 64.082 97.5418 64.586 97.3272 64.978C97.1218 65.37 96.8232 65.664 96.4312 65.86C96.0392 66.0467 95.5678 66.14 95.0172 66.14ZM96.5541 57.11V54.156H97.7861V57.11H96.5541ZM101.957 66.14C101.705 66.14 101.462 66.098 101.229 66.014C100.995 65.93 100.804 65.7807 100.655 65.566C100.505 65.3513 100.431 65.0527 100.431 64.67V58.328H101.677V64.516C101.677 64.7307 101.723 64.8847 101.817 64.978C101.91 65.0713 102.059 65.118 102.265 65.118C102.349 65.118 102.437 65.1087 102.531 65.09C102.624 65.0713 102.713 65.048 102.797 65.02L102.965 65.93C102.787 66.014 102.615 66.07 102.447 66.098C102.279 66.126 102.115 66.14 101.957 66.14ZM104.43 66V63.34C104.43 62.752 104.56 62.3273 104.822 62.066C105.083 61.7953 105.414 61.6087 105.816 61.506L105.83 61.464L104.29 60.876V60.414C104.29 60.0313 104.416 59.672 104.668 59.336C104.92 58.9907 105.279 58.7153 105.746 58.51C106.222 58.2953 106.786 58.188 107.44 58.188C108.009 58.188 108.536 58.2813 109.022 58.468C109.507 58.6453 109.894 58.93 110.184 59.322C110.482 59.7047 110.632 60.2087 110.632 60.834V66H109.386V60.96C109.386 60.3347 109.194 59.8913 108.812 59.63C108.438 59.3593 107.976 59.224 107.426 59.224C106.856 59.224 106.404 59.3453 106.068 59.588C105.732 59.8213 105.564 60.12 105.564 60.484L107.076 61.24L106.964 61.912C106.618 61.912 106.315 62.0287 106.054 62.262C105.802 62.486 105.676 62.8453 105.676 63.34V66H104.43ZM104.687 57.11V56.564L105.709 56.116H110.637V57.11H104.687ZM115.84 66.14C115.29 66.14 114.814 66.0467 114.412 65.86C114.02 65.664 113.717 65.37 113.502 64.978C113.297 64.586 113.194 64.0773 113.194 63.452V58.328H114.44V63.382C114.44 63.942 114.58 64.3667 114.86 64.656C115.15 64.9453 115.565 65.09 116.106 65.09C116.76 65.09 117.264 64.88 117.618 64.46C117.982 64.04 118.164 63.4753 118.164 62.766V58.328H119.41V66H118.374L118.318 64.866H118.248C118.08 65.2393 117.786 65.5473 117.366 65.79C116.956 66.0233 116.447 66.14 115.84 66.14ZM125.211 57.04V55.878H127.843V66H126.555V57.04H125.211ZM141.665 59.07C141.395 58.5007 141.003 58.062 140.489 57.754C139.976 57.4367 139.379 57.278 138.697 57.278C138.016 57.278 137.4 57.4367 136.849 57.754C136.308 58.062 135.879 58.51 135.561 59.098C135.253 59.6767 135.099 60.3487 135.099 61.114C135.099 61.8793 135.253 62.5513 135.561 63.13C135.879 63.7087 136.308 64.1567 136.849 64.474C137.4 64.782 138.016 64.936 138.697 64.936C139.649 64.936 140.433 64.6513 141.049 64.082C141.665 63.5127 142.025 62.7427 142.127 61.772H138.235V60.736H143.485V61.716C143.411 62.5187 143.159 63.256 142.729 63.928C142.3 64.5907 141.735 65.118 141.035 65.51C140.335 65.8927 139.556 66.084 138.697 66.084C137.792 66.084 136.966 65.874 136.219 65.454C135.473 65.0247 134.88 64.432 134.441 63.676C134.012 62.92 133.797 62.066 133.797 61.114C133.797 60.162 134.012 59.308 134.441 58.552C134.88 57.7867 135.473 57.194 136.219 56.774C136.966 56.3447 137.792 56.13 138.697 56.13C139.733 56.13 140.648 56.3867 141.441 56.9C142.244 57.4133 142.827 58.1367 143.191 59.07H141.665ZM150.206 60.974C150.561 61.03 150.883 61.1747 151.172 61.408C151.471 61.6413 151.704 61.9307 151.872 62.276C152.049 62.6213 152.138 62.99 152.138 63.382C152.138 63.8767 152.012 64.3247 151.76 64.726C151.508 65.118 151.139 65.4307 150.654 65.664C150.178 65.888 149.613 66 148.96 66H145.32V56.242H148.82C149.483 56.242 150.047 56.354 150.514 56.578C150.981 56.7927 151.331 57.0867 151.564 57.46C151.797 57.8333 151.914 58.2533 151.914 58.72C151.914 59.2987 151.755 59.7793 151.438 60.162C151.13 60.5353 150.719 60.806 150.206 60.974ZM146.594 60.456H148.736C149.333 60.456 149.795 60.316 150.122 60.036C150.449 59.756 150.612 59.3687 150.612 58.874C150.612 58.3793 150.449 57.992 150.122 57.712C149.795 57.432 149.324 57.292 148.708 57.292H146.594V60.456ZM148.848 64.95C149.483 64.95 149.977 64.8007 150.332 64.502C150.687 64.2033 150.864 63.788 150.864 63.256C150.864 62.7147 150.677 62.29 150.304 61.982C149.931 61.6647 149.431 61.506 148.806 61.506H146.594V64.95H148.848Z" fill="#5F5F5F"/>
</svg>
