<svg width="169" height="73" viewBox="0 0 169 73" fill="none" xmlns="http://www.w3.org/2000/svg">
<path d="M47.2254 19.234C46.6134 19.234 46.0374 19.162 45.4974 19.018C44.9574 18.886 44.4534 18.694 43.9854 18.442L44.7054 16.48C44.9694 16.636 45.2874 16.774 45.6594 16.894C46.0314 17.014 46.3974 17.074 46.7574 17.074C47.4294 17.074 47.9634 16.822 48.3594 16.318C48.7554 15.802 48.9534 15.034 48.9534 14.014C48.9534 13.054 48.7554 12.322 48.3594 11.818C47.9634 11.314 47.3454 11.062 46.5054 11.062C46.1094 11.062 45.7014 11.122 45.2814 11.242C44.8614 11.35 44.5134 11.488 44.2374 11.656V9.442C44.6094 9.274 45.0294 9.142 45.4974 9.046C45.9654 8.95 46.4634 8.902 46.9914 8.902C48.0954 8.902 48.9954 9.106 49.6914 9.514C50.3874 9.922 50.8974 10.51 51.2214 11.278C51.5454 12.034 51.7074 12.946 51.7074 14.014C51.7074 15.718 51.3174 17.014 50.5374 17.902C49.7574 18.79 48.6534 19.234 47.2254 19.234ZM56.6035 19V12.484C56.6035 11.98 56.4835 11.614 56.2435 11.386C56.0155 11.158 55.6375 11.044 55.1095 11.044C54.7135 11.044 54.3475 11.098 54.0115 11.206C53.6875 11.314 53.3815 11.446 53.0935 11.602V9.442C53.3575 9.322 53.7295 9.202 54.2095 9.082C54.6895 8.962 55.2535 8.902 55.9015 8.902C56.5615 8.902 57.1435 8.998 57.6475 9.19C58.1635 9.382 58.5655 9.706 58.8535 10.162C59.1535 10.606 59.3035 11.218 59.3035 11.998V19H56.6035ZM63.6578 19L60.7958 9.136H63.5138L65.6918 16.822H65.7998C65.9918 16.822 66.1718 16.768 66.3398 16.66C66.5078 16.552 66.6518 16.408 66.7718 16.228C67.0118 15.892 67.1918 15.496 67.3118 15.04C67.4318 14.572 67.4918 14.11 67.4918 13.654C67.4918 12.85 67.3358 12.232 67.0238 11.8C66.7238 11.368 66.3038 11.152 65.7638 11.152C65.6558 11.152 65.5538 11.158 65.4578 11.17C65.3738 11.182 65.2958 11.206 65.2238 11.242L64.7198 9.172C64.9958 9.088 65.2538 9.04 65.4938 9.028C65.7458 9.004 65.9498 8.992 66.1058 8.992C66.7418 8.992 67.2938 9.076 67.7618 9.244C68.2298 9.412 68.6318 9.664 68.9678 10C69.3878 10.408 69.6998 10.918 69.9038 11.53C70.1198 12.142 70.2278 12.832 70.2278 13.6C70.2278 14.572 70.0718 15.424 69.7598 16.156C69.4598 16.876 69.0938 17.446 68.6618 17.866C68.3018 18.214 67.8458 18.49 67.2938 18.694C66.7538 18.898 66.0098 19 65.0618 19H63.6578ZM73.029 10.936V8.308C73.029 7.852 73.071 7.486 73.155 7.21C73.239 6.922 73.353 6.688 73.497 6.508C73.641 6.328 73.791 6.178 73.947 6.058L73.929 5.986H71.139L71.643 4.042H77.367V5.986C76.923 5.986 76.539 6.13 76.215 6.418C75.891 6.706 75.729 7.234 75.729 8.002V10.936H73.029ZM75.531 19.18C74.991 19.18 74.535 19.096 74.163 18.928C73.791 18.76 73.509 18.508 73.317 18.172C73.125 17.824 73.029 17.392 73.029 16.876V9.136H75.729V16.552C75.729 16.78 75.777 16.948 75.873 17.056C75.981 17.164 76.143 17.218 76.359 17.218C76.455 17.218 76.557 17.206 76.665 17.182C76.773 17.158 76.875 17.128 76.971 17.092L77.223 18.82C76.995 18.94 76.737 19.03 76.449 19.09C76.161 19.15 75.855 19.18 75.531 19.18ZM79.5151 19L77.8411 9.136H80.4691L80.9191 12.61C80.9431 12.754 80.9671 12.976 80.9911 13.276C81.0271 13.576 81.0631 13.924 81.0991 14.32C81.1471 14.704 81.1831 15.106 81.2071 15.526H81.2791C81.3631 15.154 81.4471 14.794 81.5311 14.446C81.6151 14.098 81.6991 13.768 81.7831 13.456C81.8671 13.132 81.9451 12.832 82.0171 12.556L82.9891 9.136H84.6271L85.5811 12.556C85.6651 12.832 85.7431 13.132 85.8151 13.456C85.8991 13.768 85.9831 14.098 86.0671 14.446C86.1511 14.794 86.2351 15.154 86.3191 15.526H86.3731C86.4091 15.094 86.4451 14.692 86.4811 14.32C86.5171 13.948 86.5471 13.618 86.5711 13.33C86.6071 13.042 86.6311 12.802 86.6431 12.61L87.4711 5.59H90.0631L88.0831 19H85.4371L84.3031 14.986C84.1831 14.53 84.0871 14.104 84.0151 13.708C83.9551 13.312 83.8951 12.91 83.8351 12.502H83.7631C83.7271 12.778 83.6851 13.042 83.6371 13.294C83.5891 13.546 83.5351 13.81 83.4751 14.086C83.4151 14.35 83.3371 14.65 83.2411 14.986L82.0891 19H79.5151ZM97.229 19V12.592C97.229 12.016 97.073 11.602 96.761 11.35C96.449 11.098 95.969 10.972 95.321 10.972C94.697 10.972 94.085 11.068 93.485 11.26C92.897 11.44 92.387 11.656 91.955 11.908V9.676C92.303 9.508 92.795 9.34 93.431 9.172C94.067 8.992 94.805 8.902 95.645 8.902C96.257 8.902 96.815 8.968 97.319 9.1C97.835 9.22 98.285 9.43 98.669 9.73C99.053 10.018 99.347 10.408 99.551 10.9C99.767 11.38 99.875 11.98 99.875 12.7V19H97.229ZM94.277 19.18C93.245 19.18 92.447 18.934 91.883 18.442C91.331 17.95 91.055 17.26 91.055 16.372C91.055 15.412 91.397 14.644 92.081 14.068C92.777 13.492 93.869 13.144 95.357 13.024L97.661 12.844V14.788L95.663 14.986C94.943 15.058 94.439 15.202 94.151 15.418C93.875 15.634 93.737 15.922 93.737 16.282C93.737 16.642 93.851 16.912 94.079 17.092C94.319 17.272 94.625 17.362 94.997 17.362C95.141 17.362 95.285 17.35 95.429 17.326C95.573 17.29 95.705 17.254 95.825 17.218L96.059 18.91C95.831 18.994 95.561 19.06 95.249 19.108C94.937 19.156 94.613 19.18 94.277 19.18ZM96.5084 8.164C96.4124 7.996 96.3344 7.78 96.2744 7.516C96.2024 7.252 96.1664 6.988 96.1664 6.724C96.1664 6.388 96.2324 6.082 96.3644 5.806C96.4844 5.53 96.7064 5.314 97.0304 5.158C97.3424 4.99 97.7744 4.906 98.3264 4.906H100.936V6.724H99.2084C98.9804 6.724 98.8064 6.766 98.6864 6.85C98.5544 6.922 98.4884 7.06 98.4884 7.264C98.4884 7.348 98.5004 7.438 98.5244 7.534C98.5484 7.618 98.5844 7.708 98.6324 7.804L96.5084 8.164ZM102.814 19V9.136H104.794L105.154 10.684H105.298C105.502 10.192 105.856 9.784 106.36 9.46C106.864 9.124 107.518 8.956 108.322 8.956C109.09 8.956 109.726 9.094 110.23 9.37C110.734 9.634 111.112 10.042 111.364 10.594C111.628 11.134 111.76 11.818 111.76 12.646V19H109.06V13.186C109.06 12.514 108.922 12.034 108.646 11.746C108.382 11.446 107.992 11.296 107.476 11.296C107.056 11.296 106.696 11.41 106.396 11.638C106.108 11.866 105.886 12.202 105.73 12.646C105.586 13.078 105.514 13.624 105.514 14.284V19H102.814ZM103.233 7.768V6.634L105.051 5.878H111.477V7.768H103.233ZM109.173 6.67V4.636H111.477V6.67H109.173ZM109.305 3.682V0.333999H111.645V3.682H109.305ZM118.088 19.18C117.356 19.18 116.738 19.042 116.234 18.766C115.742 18.478 115.364 18.052 115.1 17.488C114.848 16.924 114.722 16.234 114.722 15.418V9.136H117.422V14.95C117.422 15.61 117.554 16.09 117.818 16.39C118.082 16.69 118.466 16.84 118.97 16.84C119.606 16.84 120.098 16.6 120.446 16.12C120.794 15.628 120.968 14.872 120.968 13.852V9.136H123.668V19H121.616L121.328 17.488H121.166C120.962 17.968 120.608 18.37 120.104 18.694C119.612 19.018 118.94 19.18 118.088 19.18ZM115.548 7.768V6.634L117.366 5.878H123.792V7.768H115.548ZM121.488 6.67V4.636H123.792V6.67H121.488ZM121.62 3.682V0.333999H123.96V3.682H121.62Z" fill="#333333"/>
<path d="M15.8214 42.084C15.5787 42.084 15.3734 42 15.2054 41.832C15.0374 41.664 14.9534 41.4587 14.9534 41.216C14.9534 40.9733 15.0374 40.768 15.2054 40.6C15.3734 40.432 15.5787 40.348 15.8214 40.348C16.0547 40.348 16.2507 40.432 16.4094 40.6C16.5774 40.768 16.6614 40.9733 16.6614 41.216C16.6614 41.4587 16.5774 41.664 16.4094 41.832C16.2507 42 16.0547 42.084 15.8214 42.084ZM19.7789 35.742C20.0309 35.3033 20.4042 34.9393 20.8989 34.65C21.4029 34.3513 21.9862 34.202 22.6489 34.202C23.3302 34.202 23.9462 34.3653 24.4969 34.692C25.0569 35.0187 25.4955 35.4807 25.8129 36.078C26.1302 36.666 26.2889 37.352 26.2889 38.136C26.2889 38.9107 26.1302 39.6013 25.8129 40.208C25.4955 40.8147 25.0569 41.286 24.4969 41.622C23.9462 41.958 23.3302 42.126 22.6489 42.126C21.9955 42.126 21.4169 41.9813 20.9129 41.692C20.4182 41.3933 20.0402 41.0247 19.7789 40.586V45.64H18.5049V34.328H19.7789V35.742ZM24.9869 38.136C24.9869 37.5573 24.8702 37.0533 24.6369 36.624C24.4035 36.1947 24.0862 35.868 23.6849 35.644C23.2929 35.42 22.8589 35.308 22.3829 35.308C21.9162 35.308 21.4822 35.4247 21.0809 35.658C20.6889 35.882 20.3715 36.2133 20.1289 36.652C19.8955 37.0813 19.7789 37.5807 19.7789 38.15C19.7789 38.7287 19.8955 39.2373 20.1289 39.676C20.3715 40.1053 20.6889 40.4367 21.0809 40.67C21.4822 40.894 21.9162 41.006 22.3829 41.006C22.8589 41.006 23.2929 40.894 23.6849 40.67C24.0862 40.4367 24.4035 40.1053 24.6369 39.676C24.8702 39.2373 24.9869 38.724 24.9869 38.136ZM31.8538 34.188C32.7871 34.188 33.5431 34.4727 34.1218 35.042C34.7005 35.602 34.9898 36.414 34.9898 37.478V42H33.7298V37.66C33.7298 36.8947 33.5385 36.3113 33.1558 35.91C32.7731 35.4993 32.2505 35.294 31.5878 35.294C30.9158 35.294 30.3791 35.504 29.9778 35.924C29.5858 36.344 29.3898 36.9553 29.3898 37.758V42H28.1158V34.328H29.3898V35.42C29.6418 35.028 29.9825 34.7247 30.4118 34.51C30.8505 34.2953 31.3311 34.188 31.8538 34.188ZM40.3849 34.202C41.0475 34.202 41.6262 34.3467 42.1209 34.636C42.6249 34.9253 42.9982 35.2893 43.2409 35.728V34.328H44.5289V42.168C44.5289 42.868 44.3795 43.4887 44.0809 44.03C43.7822 44.5807 43.3529 45.01 42.7929 45.318C42.2422 45.626 41.5982 45.78 40.8609 45.78C39.8529 45.78 39.0129 45.542 38.3409 45.066C37.6689 44.59 37.2722 43.9413 37.1509 43.12H38.4109C38.5509 43.5867 38.8402 43.96 39.2789 44.24C39.7175 44.5293 40.2449 44.674 40.8609 44.674C41.5609 44.674 42.1302 44.4547 42.5689 44.016C43.0169 43.5773 43.2409 42.9613 43.2409 42.168V40.558C42.9889 41.006 42.6155 41.3793 42.1209 41.678C41.6262 41.9767 41.0475 42.126 40.3849 42.126C39.7035 42.126 39.0829 41.958 38.5229 41.622C37.9722 41.286 37.5382 40.8147 37.2209 40.208C36.9035 39.6013 36.7449 38.9107 36.7449 38.136C36.7449 37.352 36.9035 36.666 37.2209 36.078C37.5382 35.4807 37.9722 35.0187 38.5229 34.692C39.0829 34.3653 39.7035 34.202 40.3849 34.202ZM43.2409 38.15C43.2409 37.5713 43.1242 37.0673 42.8909 36.638C42.6575 36.2087 42.3402 35.882 41.9389 35.658C41.5469 35.4247 41.1129 35.308 40.6369 35.308C40.1609 35.308 39.7269 35.42 39.3349 35.644C38.9429 35.868 38.6302 36.1947 38.3969 36.624C38.1635 37.0533 38.0469 37.5573 38.0469 38.136C38.0469 38.724 38.1635 39.2373 38.3969 39.676C38.6302 40.1053 38.9429 40.4367 39.3349 40.67C39.7269 40.894 40.1609 41.006 40.6369 41.006C41.1129 41.006 41.5469 40.894 41.9389 40.67C42.3402 40.4367 42.6575 40.1053 42.8909 39.676C43.1242 39.2373 43.2409 38.7287 43.2409 38.15ZM48.1478 40.236L46.5798 44.002H45.7258L46.7478 40.236H48.1478ZM54.0456 42.084C53.803 42.084 53.5976 42 53.4296 41.832C53.2616 41.664 53.1776 41.4587 53.1776 41.216C53.1776 40.9733 53.2616 40.768 53.4296 40.6C53.5976 40.432 53.803 40.348 54.0456 40.348C54.279 40.348 54.475 40.432 54.6336 40.6C54.8016 40.768 54.8856 40.9733 54.8856 41.216C54.8856 41.4587 54.8016 41.664 54.6336 41.832C54.475 42 54.279 42.084 54.0456 42.084ZM57.4151 33.082C57.1724 33.082 56.9671 32.998 56.7991 32.83C56.6404 32.662 56.5611 32.4567 56.5611 32.214C56.5611 31.9713 56.6404 31.766 56.7991 31.598C56.9671 31.43 57.1724 31.346 57.4151 31.346C57.6577 31.346 57.8584 31.43 58.0171 31.598C58.1851 31.766 58.2691 31.9713 58.2691 32.214C58.2691 32.4567 58.1851 32.662 58.0171 32.83C57.8584 32.998 57.6577 33.082 57.4151 33.082ZM58.0451 43.666C58.0451 44.3473 57.8724 44.8467 57.5271 45.164C57.1817 45.4813 56.6777 45.64 56.0151 45.64H55.2731V44.562H55.8051C56.1597 44.562 56.4071 44.492 56.5471 44.352C56.6964 44.212 56.7711 43.974 56.7711 43.638V34.328H58.0451V43.666ZM61.6257 35.742C61.8777 35.3033 62.2511 34.9393 62.7457 34.65C63.2497 34.3513 63.8331 34.202 64.4957 34.202C65.1771 34.202 65.7931 34.3653 66.3437 34.692C66.9037 35.0187 67.3424 35.4807 67.6597 36.078C67.9771 36.666 68.1357 37.352 68.1357 38.136C68.1357 38.9107 67.9771 39.6013 67.6597 40.208C67.3424 40.8147 66.9037 41.286 66.3437 41.622C65.7931 41.958 65.1771 42.126 64.4957 42.126C63.8424 42.126 63.2637 41.9813 62.7597 41.692C62.2651 41.3933 61.8871 41.0247 61.6257 40.586V45.64H60.3517V34.328H61.6257V35.742ZM66.8337 38.136C66.8337 37.5573 66.7171 37.0533 66.4837 36.624C66.2504 36.1947 65.9331 35.868 65.5317 35.644C65.1397 35.42 64.7057 35.308 64.2297 35.308C63.7631 35.308 63.3291 35.4247 62.9277 35.658C62.5357 35.882 62.2184 36.2133 61.9757 36.652C61.7424 37.0813 61.6257 37.5807 61.6257 38.15C61.6257 38.7287 61.7424 39.2373 61.9757 39.676C62.2184 40.1053 62.5357 40.4367 62.9277 40.67C63.3291 40.894 63.7631 41.006 64.2297 41.006C64.7057 41.006 65.1397 40.894 65.5317 40.67C65.9331 40.4367 66.2504 40.1053 66.4837 39.676C66.7171 39.2373 66.8337 38.724 66.8337 38.136ZM73.1267 34.202C73.7893 34.202 74.368 34.3467 74.8627 34.636C75.3667 34.9253 75.74 35.2893 75.9827 35.728V34.328H77.2707V42.168C77.2707 42.868 77.1213 43.4887 76.8227 44.03C76.524 44.5807 76.0947 45.01 75.5347 45.318C74.984 45.626 74.34 45.78 73.6027 45.78C72.5947 45.78 71.7547 45.542 71.0827 45.066C70.4107 44.59 70.014 43.9413 69.8927 43.12H71.1527C71.2927 43.5867 71.582 43.96 72.0207 44.24C72.4593 44.5293 72.9867 44.674 73.6027 44.674C74.3027 44.674 74.872 44.4547 75.3107 44.016C75.7587 43.5773 75.9827 42.9613 75.9827 42.168V40.558C75.7307 41.006 75.3573 41.3793 74.8627 41.678C74.368 41.9767 73.7893 42.126 73.1267 42.126C72.4453 42.126 71.8247 41.958 71.2647 41.622C70.714 41.286 70.28 40.8147 69.9627 40.208C69.6453 39.6013 69.4867 38.9107 69.4867 38.136C69.4867 37.352 69.6453 36.666 69.9627 36.078C70.28 35.4807 70.714 35.0187 71.2647 34.692C71.8247 34.3653 72.4453 34.202 73.1267 34.202ZM75.9827 38.15C75.9827 37.5713 75.866 37.0673 75.6327 36.638C75.3993 36.2087 75.082 35.882 74.6807 35.658C74.2887 35.4247 73.8547 35.308 73.3787 35.308C72.9027 35.308 72.4687 35.42 72.0767 35.644C71.6847 35.868 71.372 36.1947 71.1387 36.624C70.9053 37.0533 70.7887 37.5573 70.7887 38.136C70.7887 38.724 70.9053 39.2373 71.1387 39.676C71.372 40.1053 71.6847 40.4367 72.0767 40.67C72.4687 40.894 72.9027 41.006 73.3787 41.006C73.8547 41.006 74.2887 40.894 74.6807 40.67C75.082 40.4367 75.3993 40.1053 75.6327 39.676C75.866 39.2373 75.9827 38.7287 75.9827 38.15ZM80.8896 40.236L79.3216 44.002H78.4676L79.4896 40.236H80.8896ZM86.7874 42.084C86.5448 42.084 86.3394 42 86.1714 41.832C86.0034 41.664 85.9194 41.4587 85.9194 41.216C85.9194 40.9733 86.0034 40.768 86.1714 40.6C86.3394 40.432 86.5448 40.348 86.7874 40.348C87.0208 40.348 87.2168 40.432 87.3754 40.6C87.5434 40.768 87.6274 40.9733 87.6274 41.216C87.6274 41.4587 87.5434 41.664 87.3754 41.832C87.2168 42 87.0208 42.084 86.7874 42.084ZM90.1569 33.082C89.9142 33.082 89.7089 32.998 89.5409 32.83C89.3822 32.662 89.3029 32.4567 89.3029 32.214C89.3029 31.9713 89.3822 31.766 89.5409 31.598C89.7089 31.43 89.9142 31.346 90.1569 31.346C90.3995 31.346 90.6002 31.43 90.7589 31.598C90.9269 31.766 91.0109 31.9713 91.0109 32.214C91.0109 32.4567 90.9269 32.662 90.7589 32.83C90.6002 32.998 90.3995 33.082 90.1569 33.082ZM90.7869 43.666C90.7869 44.3473 90.6142 44.8467 90.2689 45.164C89.9235 45.4813 89.4195 45.64 88.7569 45.64H88.0149V44.562H88.5469C88.9015 44.562 89.1489 44.492 89.2889 44.352C89.4382 44.212 89.5129 43.974 89.5129 43.638V34.328H90.7869V43.666ZM94.3675 35.742C94.6195 35.3033 94.9929 34.9393 95.4875 34.65C95.9915 34.3513 96.5749 34.202 97.2375 34.202C97.9189 34.202 98.5349 34.3653 99.0855 34.692C99.6455 35.0187 100.084 35.4807 100.402 36.078C100.719 36.666 100.878 37.352 100.878 38.136C100.878 38.9107 100.719 39.6013 100.402 40.208C100.084 40.8147 99.6455 41.286 99.0855 41.622C98.5349 41.958 97.9189 42.126 97.2375 42.126C96.5842 42.126 96.0055 41.9813 95.5015 41.692C95.0069 41.3933 94.6289 41.0247 94.3675 40.586V45.64H93.0935V34.328H94.3675V35.742ZM99.5755 38.136C99.5755 37.5573 99.4589 37.0533 99.2255 36.624C98.9922 36.1947 98.6749 35.868 98.2735 35.644C97.8815 35.42 97.4475 35.308 96.9715 35.308C96.5049 35.308 96.0709 35.4247 95.6695 35.658C95.2775 35.882 94.9602 36.2133 94.7175 36.652C94.4842 37.0813 94.3675 37.5807 94.3675 38.15C94.3675 38.7287 94.4842 39.2373 94.7175 39.676C94.9602 40.1053 95.2775 40.4367 95.6695 40.67C96.0709 40.894 96.5049 41.006 96.9715 41.006C97.4475 41.006 97.8815 40.894 98.2735 40.67C98.6749 40.4367 98.9922 40.1053 99.2255 39.676C99.4589 39.2373 99.5755 38.724 99.5755 38.136ZM109.704 37.87C109.704 38.1127 109.69 38.3693 109.662 38.64H103.53C103.577 39.396 103.834 39.9887 104.3 40.418C104.776 40.838 105.35 41.048 106.022 41.048C106.573 41.048 107.03 40.922 107.394 40.67C107.768 40.4087 108.029 40.0633 108.178 39.634H109.55C109.345 40.3713 108.934 40.9733 108.318 41.44C107.702 41.8973 106.937 42.126 106.022 42.126C105.294 42.126 104.641 41.9627 104.062 41.636C103.493 41.3093 103.045 40.8473 102.718 40.25C102.392 39.6433 102.228 38.9433 102.228 38.15C102.228 37.3567 102.387 36.6613 102.704 36.064C103.022 35.4667 103.465 35.0093 104.034 34.692C104.613 34.3653 105.276 34.202 106.022 34.202C106.75 34.202 107.394 34.3607 107.954 34.678C108.514 34.9953 108.944 35.434 109.242 35.994C109.55 36.5447 109.704 37.17 109.704 37.87ZM108.388 37.604C108.388 37.1187 108.281 36.7033 108.066 36.358C107.852 36.0033 107.558 35.7373 107.184 35.56C106.82 35.3733 106.414 35.28 105.966 35.28C105.322 35.28 104.772 35.4853 104.314 35.896C103.866 36.3067 103.61 36.876 103.544 37.604H108.388ZM114.7 34.202C115.363 34.202 115.941 34.3467 116.436 34.636C116.94 34.9253 117.313 35.2893 117.556 35.728V34.328H118.844V42.168C118.844 42.868 118.695 43.4887 118.396 44.03C118.097 44.5807 117.668 45.01 117.108 45.318C116.557 45.626 115.913 45.78 115.176 45.78C114.168 45.78 113.328 45.542 112.656 45.066C111.984 44.59 111.587 43.9413 111.466 43.12H112.726C112.866 43.5867 113.155 43.96 113.594 44.24C114.033 44.5293 114.56 44.674 115.176 44.674C115.876 44.674 116.445 44.4547 116.884 44.016C117.332 43.5773 117.556 42.9613 117.556 42.168V40.558C117.304 41.006 116.931 41.3793 116.436 41.678C115.941 41.9767 115.363 42.126 114.7 42.126C114.019 42.126 113.398 41.958 112.838 41.622C112.287 41.286 111.853 40.8147 111.536 40.208C111.219 39.6013 111.06 38.9107 111.06 38.136C111.06 37.352 111.219 36.666 111.536 36.078C111.853 35.4807 112.287 35.0187 112.838 34.692C113.398 34.3653 114.019 34.202 114.7 34.202ZM117.556 38.15C117.556 37.5713 117.439 37.0673 117.206 36.638C116.973 36.2087 116.655 35.882 116.254 35.658C115.862 35.4247 115.428 35.308 114.952 35.308C114.476 35.308 114.042 35.42 113.65 35.644C113.258 35.868 112.945 36.1947 112.712 36.624C112.479 37.0533 112.362 37.5573 112.362 38.136C112.362 38.724 112.479 39.2373 112.712 39.676C112.945 40.1053 113.258 40.4367 113.65 40.67C114.042 40.894 114.476 41.006 114.952 41.006C115.428 41.006 115.862 40.894 116.254 40.67C116.655 40.4367 116.973 40.1053 117.206 39.676C117.439 39.2373 117.556 38.7287 117.556 38.15ZM122.463 40.236L120.895 44.002H120.041L121.063 40.236H122.463ZM128.361 42.084C128.118 42.084 127.913 42 127.745 41.832C127.577 41.664 127.493 41.4587 127.493 41.216C127.493 40.9733 127.577 40.768 127.745 40.6C127.913 40.432 128.118 40.348 128.361 40.348C128.594 40.348 128.79 40.432 128.949 40.6C129.117 40.768 129.201 40.9733 129.201 41.216C129.201 41.4587 129.117 41.664 128.949 41.832C128.79 42 128.594 42.084 128.361 42.084ZM133.76 42.126C133.172 42.126 132.645 42.028 132.178 41.832C131.712 41.6267 131.343 41.3467 131.072 40.992C130.802 40.628 130.652 40.2127 130.624 39.746H131.94C131.978 40.1287 132.155 40.4413 132.472 40.684C132.799 40.9267 133.224 41.048 133.746 41.048C134.232 41.048 134.614 40.9407 134.894 40.726C135.174 40.5113 135.314 40.2407 135.314 39.914C135.314 39.578 135.165 39.3307 134.866 39.172C134.568 39.004 134.106 38.8407 133.48 38.682C132.911 38.5327 132.444 38.3833 132.08 38.234C131.726 38.0753 131.418 37.8467 131.156 37.548C130.904 37.24 130.778 36.8387 130.778 36.344C130.778 35.952 130.895 35.5927 131.128 35.266C131.362 34.9393 131.693 34.6827 132.122 34.496C132.552 34.3 133.042 34.202 133.592 34.202C134.442 34.202 135.128 34.4167 135.65 34.846C136.173 35.2753 136.453 35.8633 136.49 36.61H135.216C135.188 36.2087 135.025 35.8867 134.726 35.644C134.437 35.4013 134.045 35.28 133.55 35.28C133.093 35.28 132.729 35.378 132.458 35.574C132.188 35.77 132.052 36.0267 132.052 36.344C132.052 36.596 132.132 36.806 132.29 36.974C132.458 37.1327 132.664 37.2633 132.906 37.366C133.158 37.4593 133.504 37.5667 133.942 37.688C134.493 37.8373 134.941 37.9867 135.286 38.136C135.632 38.276 135.926 38.4907 136.168 38.78C136.42 39.0693 136.551 39.4473 136.56 39.914C136.56 40.334 136.444 40.712 136.21 41.048C135.977 41.384 135.646 41.65 135.216 41.846C134.796 42.0327 134.311 42.126 133.76 42.126ZM141.365 40.824L143.745 34.328H145.103L142.093 42H140.609L137.599 34.328H138.971L141.365 40.824ZM149.67 34.202C150.333 34.202 150.912 34.3467 151.406 34.636C151.91 34.9253 152.284 35.2893 152.526 35.728V34.328H153.814V42.168C153.814 42.868 153.665 43.4887 153.366 44.03C153.068 44.5807 152.638 45.01 152.078 45.318C151.528 45.626 150.884 45.78 150.146 45.78C149.138 45.78 148.298 45.542 147.626 45.066C146.954 44.59 146.558 43.9413 146.436 43.12H147.696C147.836 43.5867 148.126 43.96 148.564 44.24C149.003 44.5293 149.53 44.674 150.146 44.674C150.846 44.674 151.416 44.4547 151.854 44.016C152.302 43.5773 152.526 42.9613 152.526 42.168V40.558C152.274 41.006 151.901 41.3793 151.406 41.678C150.912 41.9767 150.333 42.126 149.67 42.126C148.989 42.126 148.368 41.958 147.808 41.622C147.258 41.286 146.824 40.8147 146.506 40.208C146.189 39.6013 146.03 38.9107 146.03 38.136C146.03 37.352 146.189 36.666 146.506 36.078C146.824 35.4807 147.258 35.0187 147.808 34.692C148.368 34.3653 148.989 34.202 149.67 34.202ZM152.526 38.15C152.526 37.5713 152.41 37.0673 152.176 36.638C151.943 36.2087 151.626 35.882 151.224 35.658C150.832 35.4247 150.398 35.308 149.922 35.308C149.446 35.308 149.012 35.42 148.62 35.644C148.228 35.868 147.916 36.1947 147.682 36.624C147.449 37.0533 147.332 37.5573 147.332 38.136C147.332 38.724 147.449 39.2373 147.682 39.676C147.916 40.1053 148.228 40.4367 148.62 40.67C149.012 40.894 149.446 41.006 149.922 41.006C150.398 41.006 150.832 40.894 151.224 40.67C151.626 40.4367 151.943 40.1053 152.176 39.676C152.41 39.2373 152.526 38.7287 152.526 38.15Z" fill="#5F5F5F"/>
<path d="M4.6734 66.14C3.79607 66.14 3.11474 65.93 2.6294 65.51C2.1534 65.0807 1.9154 64.4413 1.9154 63.592V62.738C1.9154 62.2713 1.98074 61.9027 2.1114 61.632C2.24207 61.3613 2.38207 61.128 2.5314 60.932C2.69007 60.7173 2.8254 60.5307 2.9374 60.372C3.05874 60.2133 3.1194 60.022 3.1194 59.798C3.1194 59.602 3.06807 59.462 2.9654 59.378C2.87207 59.294 2.75074 59.252 2.6014 59.252C2.4894 59.252 2.36807 59.2707 2.2374 59.308C2.11607 59.3453 1.99474 59.392 1.8734 59.448L1.5934 58.552C1.7614 58.44 1.96674 58.3607 2.2094 58.314C2.4614 58.2673 2.68074 58.244 2.8674 58.244C3.21274 58.244 3.48807 58.3047 3.6934 58.426C3.90807 58.5473 4.06207 58.7153 4.1554 58.93C4.24874 59.1353 4.2954 59.378 4.2954 59.658C4.2954 60.0033 4.23474 60.288 4.1134 60.512C4.0014 60.736 3.86607 60.9553 3.7074 61.17C3.54874 61.4033 3.41807 61.6273 3.3154 61.842C3.21274 62.0567 3.1614 62.3367 3.1614 62.682V63.508C3.1614 63.9373 3.2314 64.2687 3.3714 64.502C3.5114 64.7353 3.69807 64.8987 3.9314 64.992C4.16474 65.076 4.41207 65.118 4.6734 65.118C5.14007 65.118 5.49474 65.0107 5.7374 64.796C5.9894 64.572 6.1154 64.2313 6.1154 63.774V58.328H7.3614V63.844C7.3614 64.5627 7.13274 65.1273 6.6754 65.538C6.2274 65.9393 5.56007 66.14 4.6734 66.14ZM12.4237 66.14C11.873 66.14 11.397 66.0467 10.9957 65.86C10.6037 65.664 10.3003 65.37 10.0857 64.978C9.88032 64.586 9.77765 64.0773 9.77765 63.452V58.328H11.0237V63.382C11.0237 63.942 11.1637 64.3667 11.4437 64.656C11.733 64.9453 12.1483 65.09 12.6897 65.09C13.343 65.09 13.847 64.88 14.2017 64.46C14.5657 64.04 14.7477 63.4753 14.7477 62.766V58.328H15.9937V66H14.9577L14.9017 64.866H14.8317C14.6637 65.2393 14.3697 65.5473 13.9497 65.79C13.539 66.0233 13.0303 66.14 12.4237 66.14ZM20.6836 66V60.554C20.6836 60.0967 20.5763 59.7607 20.3616 59.546C20.1563 59.3313 19.8063 59.224 19.3116 59.224C18.9756 59.224 18.6583 59.2707 18.3596 59.364C18.0703 59.448 17.7903 59.5693 17.5196 59.728V58.608C17.7063 58.5147 17.9723 58.4213 18.3176 58.328C18.6629 58.2347 19.0736 58.188 19.5496 58.188C20.0349 58.188 20.4549 58.258 20.8096 58.398C21.1643 58.538 21.4396 58.7713 21.6356 59.098C21.8316 59.4153 21.9296 59.84 21.9296 60.372V66H20.6836ZM26.9691 66.14C26.2224 66.14 25.6344 65.9673 25.2051 65.622C24.7851 65.2673 24.4864 64.7913 24.3091 64.194C24.1411 63.5967 24.0571 62.9387 24.0571 62.22C24.0571 61.4267 24.1364 60.7733 24.2951 60.26C24.4631 59.7373 24.6964 59.3267 24.9951 59.028C25.3031 58.72 25.6671 58.5053 26.0871 58.384C26.5164 58.2533 26.9878 58.188 27.5011 58.188C28.2478 58.188 28.8544 58.3 29.3211 58.524C29.7971 58.7387 30.1471 59.0467 30.3711 59.448C30.5951 59.8493 30.7071 60.33 30.7071 60.89V66H29.4751V61.002C29.4751 60.4233 29.3304 59.9847 29.0411 59.686C28.7518 59.378 28.2524 59.224 27.5431 59.224C27.1138 59.224 26.7264 59.3033 26.3811 59.462C26.0451 59.6207 25.7791 59.9147 25.5831 60.344C25.3964 60.7733 25.3031 61.4033 25.3031 62.234C25.3031 62.7753 25.3544 63.2653 25.4571 63.704C25.5691 64.1333 25.7604 64.474 26.0311 64.726C26.3018 64.978 26.6798 65.104 27.1651 65.104C27.3051 65.104 27.4358 65.0947 27.5571 65.076C27.6784 65.0573 27.7951 65.0293 27.9071 64.992L28.0331 65.958C27.8838 66.0233 27.7111 66.07 27.5151 66.098C27.3284 66.126 27.1464 66.14 26.9691 66.14ZM35.284 66.14C34.7334 66.14 34.22 66.0887 33.744 65.986C33.2774 65.874 32.8807 65.7433 32.554 65.594L32.918 64.586C33.114 64.6607 33.338 64.74 33.59 64.824C33.842 64.908 34.1127 64.978 34.402 65.034C34.7007 65.0807 35.004 65.104 35.312 65.104C35.8067 65.104 36.2174 65.0107 36.544 64.824C36.8707 64.6373 37.034 64.3667 37.034 64.012C37.034 63.7973 36.9734 63.6153 36.852 63.466C36.74 63.3073 36.5627 63.1627 36.32 63.032C36.0774 62.9013 35.7647 62.7753 35.382 62.654C34.794 62.4673 34.2947 62.2713 33.884 62.066C33.4827 61.8513 33.1747 61.5993 32.96 61.31C32.7547 61.0113 32.652 60.6427 32.652 60.204C32.652 59.812 32.7547 59.4667 32.96 59.168C33.1747 58.86 33.5014 58.622 33.94 58.454C34.388 58.2767 34.9574 58.188 35.648 58.188C36.096 58.188 36.516 58.23 36.908 58.314C37.3094 58.3887 37.622 58.496 37.846 58.636V59.686C37.6874 59.6113 37.4867 59.5367 37.244 59.462C37.0107 59.3873 36.754 59.3267 36.474 59.28C36.194 59.2333 35.9047 59.21 35.606 59.21C34.9807 59.21 34.5374 59.308 34.276 59.504C34.024 59.6907 33.898 59.9053 33.898 60.148C33.898 60.3533 33.954 60.526 34.066 60.666C34.1874 60.806 34.388 60.9413 34.668 61.072C34.9574 61.2027 35.3447 61.352 35.83 61.52C36.278 61.6693 36.6887 61.842 37.062 62.038C37.4354 62.234 37.7294 62.4813 37.944 62.78C38.168 63.0693 38.28 63.4427 38.28 63.9C38.28 64.292 38.182 64.6607 37.986 65.006C37.7994 65.342 37.4867 65.6173 37.048 65.832C36.6094 66.0373 36.0214 66.14 35.284 66.14ZM35.914 69.71C35.3166 69.71 34.864 69.5887 34.556 69.346C34.2386 69.1127 34.08 68.7767 34.08 68.338V68.1C34.08 67.9413 34.0426 67.8433 33.968 67.806C33.884 67.778 33.772 67.7827 33.632 67.82L33.548 66.98C33.6786 66.9427 33.8093 66.9193 33.94 66.91C34.0613 66.9007 34.1546 66.896 34.22 66.896C34.556 66.896 34.7986 66.9707 34.948 67.12C35.088 67.2693 35.158 67.4793 35.158 67.75V68.226C35.158 68.4033 35.214 68.5527 35.326 68.674C35.438 68.7953 35.6293 68.856 35.9 68.856C36.18 68.856 36.376 68.7953 36.488 68.674C36.5906 68.5527 36.642 68.4033 36.642 68.226V66.938H37.734V68.296C37.734 68.7533 37.58 69.1033 37.272 69.346C36.964 69.5887 36.5113 69.71 35.914 69.71ZM43.344 66.14C42.2426 66.14 41.454 65.888 40.978 65.384C40.502 64.88 40.264 64.1613 40.264 63.228V58.328H41.51V63.242C41.51 63.8673 41.6593 64.334 41.958 64.642C42.2566 64.95 42.7186 65.104 43.344 65.104C43.9786 65.104 44.4453 64.95 44.744 64.642C45.052 64.334 45.206 63.8673 45.206 63.242V55.57H46.452V63.228C46.452 64.1613 46.2093 64.88 45.724 65.384C45.248 65.888 44.4546 66.14 43.344 66.14ZM50.6265 66.14C50.3745 66.14 50.1319 66.098 49.8985 66.014C49.6652 65.93 49.4739 65.7807 49.3245 65.566C49.1752 65.3513 49.1005 65.0527 49.1005 64.67V58.328H50.3465V64.516C50.3465 64.7307 50.3932 64.8847 50.4865 64.978C50.5799 65.0713 50.7292 65.118 50.9345 65.118C51.0185 65.118 51.1072 65.1087 51.2005 65.09C51.2939 65.0713 51.3825 65.048 51.4665 65.02L51.6345 65.93C51.4572 66.014 51.2845 66.07 51.1165 66.098C50.9485 66.126 50.7852 66.14 50.6265 66.14ZM54.4485 66.14C54.1965 66.14 53.9539 66.098 53.7205 66.014C53.4872 65.93 53.2959 65.7807 53.1465 65.566C52.9972 65.3513 52.9225 65.0527 52.9225 64.67V58.328H54.1685V64.516C54.1685 64.7307 54.2152 64.8847 54.3085 64.978C54.4019 65.0713 54.5512 65.118 54.7565 65.118C54.8405 65.118 54.9292 65.1087 55.0225 65.09C55.1159 65.0713 55.2045 65.048 55.2885 65.02L55.4565 65.93C55.2792 66.014 55.1065 66.07 54.9385 66.098C54.7705 66.126 54.6072 66.14 54.4485 66.14ZM59.5615 66.14C59.0109 66.14 58.5349 66.0467 58.1335 65.86C57.7415 65.664 57.4382 65.37 57.2235 64.978C57.0182 64.586 56.9155 64.0773 56.9155 63.452V58.328H58.1615V63.382C58.1615 63.942 58.3015 64.3667 58.5815 64.656C58.8709 64.9453 59.2862 65.09 59.8275 65.09C60.4809 65.09 60.9849 64.88 61.3395 64.46C61.7035 64.04 61.8855 63.4753 61.8855 62.766V58.328H63.1315V66H62.0955L62.0395 64.866H61.9695C61.8015 65.2393 61.5075 65.5473 61.0875 65.79C60.6769 66.0233 60.1682 66.14 59.5615 66.14ZM66.6595 61.184C66.2768 61.184 65.9641 61.128 65.7215 61.016C65.4881 60.8947 65.3201 60.7453 65.2175 60.568C65.1148 60.3813 65.0635 60.1853 65.0635 59.98C65.0635 59.84 65.0821 59.6953 65.1195 59.546C65.1661 59.3967 65.2221 59.2707 65.2875 59.168L66.3375 59.336C66.3188 59.3827 66.2955 59.448 66.2675 59.532C66.2488 59.616 66.2395 59.7 66.2395 59.784C66.2395 59.9053 66.2721 60.008 66.3375 60.092C66.4028 60.1667 66.5241 60.204 66.7015 60.204H68.7035V61.184H66.6595ZM66.6595 65.104C66.2768 65.104 65.9641 65.048 65.7215 64.936C65.4881 64.8147 65.3201 64.6653 65.2175 64.488C65.1148 64.3013 65.0635 64.1053 65.0635 63.9C65.0635 63.76 65.0821 63.6153 65.1195 63.466C65.1661 63.3167 65.2221 63.1907 65.2875 63.088L66.3375 63.256C66.3188 63.3027 66.2955 63.368 66.2675 63.452C66.2488 63.536 66.2395 63.62 66.2395 63.704C66.2395 63.8253 66.2721 63.928 66.3375 64.012C66.4028 64.0867 66.5241 64.124 66.7015 64.124H68.7035V65.104H66.6595ZM73.1779 66.14C72.6273 66.14 72.1513 66.0467 71.7499 65.86C71.3579 65.664 71.0546 65.37 70.8399 64.978C70.6346 64.586 70.5319 64.0773 70.5319 63.452V58.328H71.7779V63.382C71.7779 63.942 71.9179 64.3667 72.1979 64.656C72.4873 64.9453 72.9026 65.09 73.4439 65.09C74.0973 65.09 74.6013 64.88 74.9559 64.46C75.3199 64.04 75.5019 63.4753 75.5019 62.766V58.328H76.7479V66H75.7119L75.6559 64.866H75.5859C75.4179 65.2393 75.1239 65.5473 74.7039 65.79C74.2933 66.0233 73.7846 66.14 73.1779 66.14ZM75.8939 57.446C75.4272 57.446 75.0586 57.3387 74.7879 57.124C74.5172 56.9 74.3819 56.5873 74.3819 56.186C74.3819 55.7753 74.5172 55.4627 74.7879 55.248C75.0586 55.0333 75.4272 54.926 75.8939 54.926C76.3606 54.926 76.7339 55.0333 77.0139 55.248C77.2939 55.4627 77.4339 55.7753 77.4339 56.186C77.4339 56.5873 77.2939 56.9 77.0139 57.124C76.7339 57.3387 76.3606 57.446 75.8939 57.446ZM75.8939 56.788C76.1179 56.788 76.2906 56.732 76.4119 56.62C76.5239 56.508 76.5799 56.3633 76.5799 56.186C76.5799 55.9993 76.5239 55.8547 76.4119 55.752C76.2906 55.64 76.1179 55.584 75.8939 55.584C75.6792 55.584 75.5159 55.64 75.4039 55.752C75.2826 55.8547 75.2219 55.9993 75.2219 56.186C75.2219 56.3633 75.2826 56.508 75.4039 56.62C75.5159 56.732 75.6792 56.788 75.8939 56.788ZM81.5879 66V60.554C81.5879 60.0967 81.4806 59.7607 81.2659 59.546C81.0606 59.3313 80.7106 59.224 80.2159 59.224C79.8799 59.224 79.5626 59.2707 79.2639 59.364C78.9746 59.448 78.6946 59.5693 78.4239 59.728V58.608C78.6106 58.5147 78.8766 58.4213 79.2219 58.328C79.5672 58.2347 79.9779 58.188 80.4539 58.188C80.9392 58.188 81.3592 58.258 81.7139 58.398C82.0686 58.538 82.3439 58.7713 82.5399 59.098C82.7359 59.4153 82.8339 59.84 82.8339 60.372V66H81.5879ZM90.5098 63.284C90.6031 63.816 90.8178 64.2267 91.1538 64.516C91.4991 64.8053 91.9611 64.95 92.5398 64.95C93.3145 64.95 93.8838 64.6467 94.2478 64.04C94.6211 63.4333 94.7985 62.4113 94.7798 60.974C94.5838 61.394 94.2571 61.7253 93.7998 61.968C93.3425 62.2013 92.8338 62.318 92.2738 62.318C91.6485 62.318 91.0885 62.192 90.5938 61.94C90.1085 61.6787 89.7258 61.3007 89.4458 60.806C89.1658 60.3113 89.0258 59.714 89.0258 59.014C89.0258 58.0153 89.3151 57.2127 89.8938 56.606C90.4725 55.99 91.2938 55.682 92.3578 55.682C93.6645 55.682 94.5791 56.1067 95.1018 56.956C95.6338 57.8053 95.8998 59.07 95.8998 60.75C95.8998 61.926 95.7925 62.8967 95.5778 63.662C95.3725 64.4273 95.0178 65.0107 94.5138 65.412C94.0191 65.8133 93.3378 66.014 92.4698 66.014C91.5178 66.014 90.7758 65.7573 90.2438 65.244C89.7118 64.7307 89.4085 64.0773 89.3338 63.284H90.5098ZM92.4838 61.24C93.1091 61.24 93.6225 61.0487 94.0238 60.666C94.4251 60.274 94.6258 59.7467 94.6258 59.084C94.6258 58.384 94.4298 57.8193 94.0378 57.39C93.6458 56.9607 93.0951 56.746 92.3858 56.746C91.7325 56.746 91.2098 56.9513 90.8178 57.362C90.4351 57.7727 90.2438 58.314 90.2438 58.986C90.2438 59.6673 90.4351 60.2133 90.8178 60.624C91.2005 61.0347 91.7558 61.24 92.4838 61.24ZM97.8402 60.834C97.8402 59.2287 98.1015 57.978 98.6242 57.082C99.1468 56.1767 100.062 55.724 101.368 55.724C102.666 55.724 103.576 56.1767 104.098 57.082C104.621 57.978 104.882 59.2287 104.882 60.834C104.882 62.4673 104.621 63.7367 104.098 64.642C103.576 65.5473 102.666 66 101.368 66C100.062 66 99.1468 65.5473 98.6242 64.642C98.1015 63.7367 97.8402 62.4673 97.8402 60.834ZM103.622 60.834C103.622 60.022 103.566 59.336 103.454 58.776C103.352 58.2067 103.132 57.7493 102.796 57.404C102.47 57.0587 101.994 56.886 101.368 56.886C100.734 56.886 100.248 57.0587 99.9122 57.404C99.5855 57.7493 99.3662 58.2067 99.2542 58.776C99.1515 59.336 99.1002 60.022 99.1002 60.834C99.1002 61.674 99.1515 62.3787 99.2542 62.948C99.3662 63.5173 99.5855 63.9747 99.9122 64.32C100.248 64.6653 100.734 64.838 101.368 64.838C101.994 64.838 102.47 64.6653 102.796 64.32C103.132 63.9747 103.352 63.5173 103.454 62.948C103.566 62.3787 103.622 61.674 103.622 60.834ZM106.781 60.834C106.781 59.2287 107.043 57.978 107.565 57.082C108.088 56.1767 109.003 55.724 110.309 55.724C111.607 55.724 112.517 56.1767 113.039 57.082C113.562 57.978 113.823 59.2287 113.823 60.834C113.823 62.4673 113.562 63.7367 113.039 64.642C112.517 65.5473 111.607 66 110.309 66C109.003 66 108.088 65.5473 107.565 64.642C107.043 63.7367 106.781 62.4673 106.781 60.834ZM112.563 60.834C112.563 60.022 112.507 59.336 112.395 58.776C112.293 58.2067 112.073 57.7493 111.737 57.404C111.411 57.0587 110.935 56.886 110.309 56.886C109.675 56.886 109.189 57.0587 108.853 57.404C108.527 57.7493 108.307 58.2067 108.195 58.776C108.093 59.336 108.041 60.022 108.041 60.834C108.041 61.674 108.093 62.3787 108.195 62.948C108.307 63.5173 108.527 63.9747 108.853 64.32C109.189 64.6653 109.675 64.838 110.309 64.838C110.935 64.838 111.411 64.6653 111.737 64.32C112.073 63.9747 112.293 63.5173 112.395 62.948C112.507 62.3787 112.563 61.674 112.563 60.834ZM119.936 66L118.116 63.144L116.366 66H115.036L117.514 62.192L115.036 58.328H116.478L118.298 61.17L120.034 58.328H121.364L118.9 62.122L121.378 66H119.936ZM128.213 58.286C128.008 57.25 127.369 56.732 126.295 56.732C125.465 56.732 124.844 57.054 124.433 57.698C124.023 58.3327 123.822 59.3827 123.831 60.848C124.046 60.3627 124.401 59.9847 124.895 59.714C125.399 59.434 125.959 59.294 126.575 59.294C127.537 59.294 128.302 59.5927 128.871 60.19C129.45 60.7873 129.739 61.6133 129.739 62.668C129.739 63.3027 129.613 63.872 129.361 64.376C129.119 64.88 128.745 65.2813 128.241 65.58C127.747 65.8787 127.145 66.028 126.435 66.028C125.474 66.028 124.723 65.8133 124.181 65.384C123.64 64.9547 123.262 64.362 123.047 63.606C122.833 62.85 122.725 61.9167 122.725 60.806C122.725 57.3807 123.92 55.668 126.309 55.668C127.224 55.668 127.943 55.9153 128.465 56.41C128.988 56.9047 129.296 57.53 129.389 58.286H128.213ZM126.309 60.372C125.908 60.372 125.53 60.456 125.175 60.624C124.821 60.7827 124.531 61.03 124.307 61.366C124.093 61.6927 123.985 62.094 123.985 62.57C123.985 63.2793 124.191 63.858 124.601 64.306C125.012 64.7447 125.6 64.964 126.365 64.964C127.019 64.964 127.537 64.7633 127.919 64.362C128.311 63.9513 128.507 63.4007 128.507 62.71C128.507 61.982 128.321 61.4127 127.947 61.002C127.574 60.582 127.028 60.372 126.309 60.372ZM131.608 60.834C131.608 59.2287 131.869 57.978 132.392 57.082C132.915 56.1767 133.829 55.724 135.136 55.724C136.433 55.724 137.343 56.1767 137.866 57.082C138.389 57.978 138.65 59.2287 138.65 60.834C138.65 62.4673 138.389 63.7367 137.866 64.642C137.343 65.5473 136.433 66 135.136 66C133.829 66 132.915 65.5473 132.392 64.642C131.869 63.7367 131.608 62.4673 131.608 60.834ZM137.39 60.834C137.39 60.022 137.334 59.336 137.222 58.776C137.119 58.2067 136.9 57.7493 136.564 57.404C136.237 57.0587 135.761 56.886 135.136 56.886C134.501 56.886 134.016 57.0587 133.68 57.404C133.353 57.7493 133.134 58.2067 133.022 58.776C132.919 59.336 132.868 60.022 132.868 60.834C132.868 61.674 132.919 62.3787 133.022 62.948C133.134 63.5173 133.353 63.9747 133.68 64.32C134.016 64.6653 134.501 64.838 135.136 64.838C135.761 64.838 136.237 64.6653 136.564 64.32C136.9 63.9747 137.119 63.5173 137.222 62.948C137.334 62.3787 137.39 61.674 137.39 60.834ZM140.549 60.834C140.549 59.2287 140.81 57.978 141.333 57.082C141.856 56.1767 142.77 55.724 144.077 55.724C145.374 55.724 146.284 56.1767 146.807 57.082C147.33 57.978 147.591 59.2287 147.591 60.834C147.591 62.4673 147.33 63.7367 146.807 64.642C146.284 65.5473 145.374 66 144.077 66C142.77 66 141.856 65.5473 141.333 64.642C140.81 63.7367 140.549 62.4673 140.549 60.834ZM146.331 60.834C146.331 60.022 146.275 59.336 146.163 58.776C146.06 58.2067 145.841 57.7493 145.505 57.404C145.178 57.0587 144.702 56.886 144.077 56.886C143.442 56.886 142.957 57.0587 142.621 57.404C142.294 57.7493 142.075 58.2067 141.963 58.776C141.86 59.336 141.809 60.022 141.809 60.834C141.809 61.674 141.86 62.3787 141.963 62.948C142.075 63.5173 142.294 63.9747 142.621 64.32C142.957 64.6653 143.442 64.838 144.077 64.838C144.702 64.838 145.178 64.6653 145.505 64.32C145.841 63.9747 146.06 63.5173 146.163 62.948C146.275 62.3787 146.331 61.674 146.331 60.834ZM154.857 59.742C155.109 59.3033 155.482 58.9393 155.977 58.65C156.481 58.3513 157.064 58.202 157.727 58.202C158.408 58.202 159.024 58.3653 159.575 58.692C160.135 59.0187 160.573 59.4807 160.891 60.078C161.208 60.666 161.367 61.352 161.367 62.136C161.367 62.9107 161.208 63.6013 160.891 64.208C160.573 64.8147 160.135 65.286 159.575 65.622C159.024 65.958 158.408 66.126 157.727 66.126C157.073 66.126 156.495 65.9813 155.991 65.692C155.496 65.3933 155.118 65.0247 154.857 64.586V69.64H153.583V58.328H154.857V59.742ZM160.065 62.136C160.065 61.5573 159.948 61.0533 159.715 60.624C159.481 60.1947 159.164 59.868 158.763 59.644C158.371 59.42 157.937 59.308 157.461 59.308C156.994 59.308 156.56 59.4247 156.159 59.658C155.767 59.882 155.449 60.2133 155.207 60.652C154.973 61.0813 154.857 61.5807 154.857 62.15C154.857 62.7287 154.973 63.2373 155.207 63.676C155.449 64.1053 155.767 64.4367 156.159 64.67C156.56 64.894 156.994 65.006 157.461 65.006C157.937 65.006 158.371 64.894 158.763 64.67C159.164 64.4367 159.481 64.1053 159.715 63.676C159.948 63.2373 160.065 62.724 160.065 62.136ZM167.198 66L165.378 63.144L163.628 66H162.298L164.776 62.192L162.298 58.328H163.74L165.56 61.17L167.296 58.328H168.626L166.162 62.122L168.64 66H167.198Z" fill="#5F5F5F"/>
</svg>
