<svg width="81" height="27" viewBox="0 0 81 27" fill="none" xmlns="http://www.w3.org/2000/svg">
<rect width="81" height="27" rx="6" fill="#F2F2F2"/>
<rect x="8" y="9.5" width="8" height="8" rx="4" fill="#B5B7C0"/>
<path d="M26.214 18.14C25.1127 18.14 24.324 17.888 23.848 17.384C23.372 16.88 23.134 16.1613 23.134 15.228V10.328H24.38V15.242C24.38 15.8673 24.5293 16.334 24.828 16.642C25.1267 16.95 25.5887 17.104 26.214 17.104C26.8487 17.104 27.3153 16.95 27.614 16.642C27.922 16.334 28.076 15.8673 28.076 15.242V7.57H29.322V15.228C29.322 16.1613 29.0793 16.88 28.594 17.384C28.118 17.888 27.3247 18.14 26.214 18.14ZM22.4406 9.11V8.564L23.4486 8.116H27.2846V9.11H22.4406ZM34.2286 18.14C33.4819 18.14 32.8939 17.9673 32.4646 17.622C32.0446 17.2673 31.7459 16.7913 31.5686 16.194C31.4006 15.5967 31.3166 14.9387 31.3166 14.22C31.3166 13.4267 31.3959 12.7733 31.5546 12.26C31.7226 11.7373 31.9559 11.3267 32.2546 11.028C32.5626 10.72 32.9266 10.5053 33.3466 10.384C33.7759 10.2533 34.2472 10.188 34.7606 10.188C35.5072 10.188 36.1139 10.3 36.5806 10.524C37.0566 10.7387 37.4066 11.0467 37.6306 11.448C37.8546 11.8493 37.9666 12.33 37.9666 12.89V18H36.7346V13.002C36.7346 12.4233 36.5899 11.9847 36.3006 11.686C36.0112 11.378 35.5119 11.224 34.8026 11.224C34.3732 11.224 33.9859 11.3033 33.6406 11.462C33.3046 11.6207 33.0386 11.9147 32.8426 12.344C32.6559 12.7733 32.5626 13.4033 32.5626 14.234C32.5626 14.7753 32.6139 15.2653 32.7166 15.704C32.8286 16.1333 33.0199 16.474 33.2906 16.726C33.5612 16.978 33.9392 17.104 34.4246 17.104C34.5646 17.104 34.6952 17.0947 34.8166 17.076C34.9379 17.0573 35.0546 17.0293 35.1666 16.992L35.2926 17.958C35.1432 18.0233 34.9706 18.07 34.7746 18.098C34.5879 18.126 34.4059 18.14 34.2286 18.14ZM41.8475 18.14C41.5862 18.14 41.3388 18.098 41.1055 18.014C40.8722 17.93 40.6808 17.7807 40.5315 17.566C40.3822 17.3513 40.3075 17.0527 40.3075 16.67V11.196C40.3075 10.9347 40.3308 10.7247 40.3775 10.566C40.4242 10.398 40.4988 10.2347 40.6015 10.076C40.7135 9.91733 40.8675 9.71667 41.0635 9.474C41.2968 9.18467 41.4695 8.94667 41.5815 8.76C41.6935 8.57333 41.7495 8.368 41.7495 8.144C41.7495 7.87333 41.6655 7.67267 41.4975 7.542C41.3388 7.402 41.0915 7.332 40.7555 7.332C40.4662 7.332 40.2002 7.374 39.9575 7.458C39.7242 7.542 39.5282 7.626 39.3695 7.71V6.646C39.5002 6.57133 39.6962 6.50133 39.9575 6.436C40.2282 6.36133 40.5455 6.324 40.9095 6.324C41.5255 6.324 42.0202 6.464 42.3935 6.744C42.7762 7.01467 42.9675 7.43467 42.9675 8.004C42.9675 8.37733 42.8975 8.704 42.7575 8.984C42.6175 9.264 42.4542 9.516 42.2675 9.74C42.1088 9.94533 41.9735 10.118 41.8615 10.258C41.7588 10.3887 41.6795 10.524 41.6235 10.664C41.5768 10.804 41.5535 10.9907 41.5535 11.224V16.516C41.5535 16.7307 41.6002 16.8847 41.6935 16.978C41.7868 17.0713 41.9315 17.118 42.1275 17.118C42.2302 17.118 42.3282 17.1087 42.4215 17.09C42.5148 17.0713 42.5988 17.048 42.6735 17.02L42.8415 17.93C42.6642 18.014 42.4915 18.07 42.3235 18.098C42.1648 18.126 42.0062 18.14 41.8475 18.14ZM46.8363 18.14C45.9497 18.14 45.2637 17.93 44.7783 17.51C44.3023 17.0807 44.0643 16.4413 44.0643 15.592V14.738C44.0643 14.2713 44.1297 13.9027 44.2603 13.632C44.391 13.3613 44.531 13.128 44.6803 12.932C44.839 12.7173 44.9743 12.5307 45.0863 12.372C45.2077 12.2133 45.2683 12.022 45.2683 11.798C45.2683 11.602 45.217 11.462 45.1143 11.378C45.021 11.294 44.8997 11.252 44.7503 11.252C44.6383 11.252 44.517 11.2707 44.3863 11.308C44.265 11.3453 44.1437 11.392 44.0223 11.448L43.7423 10.552C43.9103 10.44 44.1157 10.3607 44.3583 10.314C44.6103 10.2673 44.8297 10.244 45.0163 10.244C45.3617 10.244 45.637 10.3047 45.8423 10.426C46.057 10.5473 46.211 10.7153 46.3043 10.93C46.3977 11.1353 46.4443 11.378 46.4443 11.658C46.4443 12.0033 46.3837 12.288 46.2623 12.512C46.1503 12.736 46.015 12.9553 45.8563 13.17C45.6977 13.4033 45.567 13.6273 45.4643 13.842C45.3617 14.0567 45.3103 14.3367 45.3103 14.682V15.508C45.3103 15.9373 45.3803 16.2687 45.5203 16.502C45.6603 16.7353 45.847 16.8987 46.0803 16.992C46.3137 17.076 46.5657 17.118 46.8363 17.118C47.303 17.118 47.6577 17.0107 47.9003 16.796C48.143 16.572 48.2643 16.2313 48.2643 15.774V13.814C48.2643 13.4687 48.185 13.2073 48.0263 13.03C47.8677 12.8433 47.611 12.75 47.2563 12.75H47.2003V11.952H47.2703C47.653 11.952 47.9237 11.8633 48.0823 11.686C48.241 11.5087 48.3343 11.294 48.3623 11.042C48.3997 10.7807 48.4183 10.5427 48.4183 10.328H49.6643C49.6643 10.8227 49.6037 11.2427 49.4823 11.588C49.361 11.9333 49.0857 12.1853 48.6563 12.344V12.4C48.9177 12.4653 49.1043 12.5773 49.2163 12.736C49.3377 12.8853 49.417 13.058 49.4543 13.254C49.4917 13.4407 49.5103 13.6227 49.5103 13.8V15.844C49.5103 16.5627 49.2863 17.1273 48.8383 17.538C48.3903 17.9393 47.723 18.14 46.8363 18.14ZM45.764 9.11V8.494C45.9507 8.45667 46.142 8.40533 46.338 8.34C46.534 8.26533 46.6973 8.172 46.828 8.06C46.9587 7.93867 47.024 7.794 47.024 7.626C47.024 7.514 46.9913 7.42067 46.926 7.346C46.8513 7.262 46.7393 7.22 46.59 7.22C46.4967 7.22 46.4033 7.23867 46.31 7.276C46.2073 7.31333 46.1187 7.346 46.044 7.374L45.764 6.604C45.9507 6.45467 46.1607 6.35667 46.394 6.31C46.618 6.26333 46.8 6.24 46.94 6.24C47.3133 6.24 47.6073 6.34267 47.822 6.548C48.0273 6.75333 48.13 7.01467 48.13 7.332C48.13 7.59333 48.0647 7.822 47.934 8.018C47.794 8.20467 47.6353 8.354 47.458 8.466L47.318 8.13H50.104V9.11H45.764ZM53.0776 18L50.6836 10.328H51.9436L54.0156 16.922H54.1836C54.4076 16.922 54.6269 16.8707 54.8416 16.768C55.0563 16.656 55.2383 16.516 55.3876 16.348C55.6676 16.04 55.8729 15.6527 56.0036 15.186C56.1343 14.71 56.1996 14.2433 56.1996 13.786C56.1996 13.0113 56.0223 12.4047 55.6676 11.966C55.3223 11.518 54.8416 11.294 54.2256 11.294C54.1043 11.294 53.9829 11.3033 53.8616 11.322C53.7496 11.3407 53.6563 11.364 53.5816 11.392L53.2736 10.398C53.4696 10.342 53.6516 10.3047 53.8196 10.286C53.9969 10.2673 54.1556 10.258 54.2956 10.258C54.7623 10.258 55.1776 10.328 55.5416 10.468C55.9149 10.5987 56.2323 10.7947 56.4936 11.056C56.8203 11.3733 57.0583 11.77 57.2076 12.246C57.3663 12.722 57.4456 13.2493 57.4456 13.828C57.4456 14.556 57.3336 15.2047 57.1096 15.774C56.8856 16.334 56.6056 16.782 56.2696 17.118C55.9989 17.3887 55.6676 17.6033 55.2756 17.762C54.8836 17.9207 54.3843 18 53.7776 18H53.0776ZM61.5071 18V12.554C61.5071 12.0967 61.3998 11.7607 61.1851 11.546C60.9798 11.3313 60.6298 11.224 60.1351 11.224C59.7991 11.224 59.4818 11.2707 59.1831 11.364C58.8938 11.448 58.6138 11.5693 58.3431 11.728V10.608C58.5298 10.5147 58.7958 10.4213 59.1411 10.328C59.4865 10.2347 59.8971 10.188 60.3731 10.188C60.8585 10.188 61.2785 10.258 61.6331 10.398C61.9878 10.538 62.2631 10.7713 62.4591 11.098C62.6551 11.4153 62.7531 11.84 62.7531 12.372V18H61.5071ZM67.6706 18.14C67.12 18.14 66.644 18.0467 66.2426 17.86C65.8506 17.664 65.5473 17.37 65.3326 16.978C65.1273 16.586 65.0246 16.0773 65.0246 15.452V10.328H66.2706V15.382C66.2706 15.942 66.4106 16.3667 66.6906 16.656C66.98 16.9453 67.3953 17.09 67.9366 17.09C68.59 17.09 69.094 16.88 69.4486 16.46C69.8126 16.04 69.9946 15.4753 69.9946 14.766V10.328H71.2406V18H70.2046L70.1486 16.866H70.0786C69.9106 17.2393 69.6166 17.5473 69.1966 17.79C68.786 18.0233 68.2773 18.14 67.6706 18.14Z" fill="#202020"/>
</svg>
