<svg width="133" height="88" viewBox="0 0 133 88" fill="none" xmlns="http://www.w3.org/2000/svg">
<path d="M127.656 24.4991C126.174 22.6253 126.143 19.2086 126.192 18.296C126.307 16.2195 121.677 4.09984 110.206 9.10375C106.093 9.10375 106.026 13.1642 105.246 13.9798C104.466 14.7954 103.597 15.6463 103.39 16.7573C103.028 18.728 104.898 20.6414 104.422 22.5857C104.245 23.3131 103.756 23.9347 103.412 24.6005C103.042 25.1956 102.751 26.1656 102.909 26.7034C103.108 27.2285 103.37 27.7274 103.69 28.1892C104.013 28.6554 104.161 29.2204 104.109 29.7851C103.928 30.7815 102.786 31.337 102.46 32.3025C102.134 33.268 102.751 34.2291 103.293 35.0624C103.835 35.8956 104.356 36.9493 103.919 37.8443C103.63 38.2882 103.271 38.6826 102.857 39.0126C102.298 39.5937 101.924 40.3263 101.779 41.119C101.635 41.9117 101.728 42.7294 102.045 43.4698L108.658 42.1472C108.952 39.0053 109.246 35.8604 109.54 32.7125C111.471 33.1931 113.583 31.9586 114.5 31.725L115.624 31.1166C118.084 31.5574 120.738 31.3943 122.894 30.1378C125.05 28.8813 128.246 30.4905 127.828 28.026C127.594 26.8445 128.41 25.4469 127.656 24.4991Z" fill="#263238"/>
<path d="M120.136 13.0275L111.155 10.3823C108.263 9.94142 106.191 13.4684 105.886 16.3605C105.551 19.5921 105.274 23.5512 105.56 25.9804C106.133 30.8741 109.832 31.6412 109.832 31.6412C109.832 31.6412 109.184 38.5673 109.127 40.3L120.188 34.6215L121.586 14.8219C121.612 14.3957 121.477 13.9754 121.209 13.6434C120.94 13.3113 120.558 13.0917 120.136 13.0275Z" fill="#FFD3C1"/>
<path d="M106.444 20.3349C106.435 20.497 106.491 20.6559 106.598 20.7778C106.705 20.8998 106.855 20.975 107.017 20.9874C107.096 20.9972 107.176 20.9911 107.253 20.9694C107.329 20.9477 107.401 20.9109 107.463 20.8612C107.525 20.8115 107.576 20.7498 107.614 20.6799C107.652 20.6099 107.675 20.5331 107.683 20.454C107.691 20.2919 107.636 20.1329 107.529 20.011C107.422 19.8891 107.271 19.8139 107.11 19.8015C107.031 19.791 106.95 19.7967 106.874 19.8181C106.797 19.8396 106.725 19.8763 106.663 19.9261C106.601 19.976 106.549 20.0379 106.512 20.1081C106.474 20.1784 106.451 20.2555 106.444 20.3349Z" fill="#263238"/>
<path d="M106.109 18.9129C106.529 18.9436 106.947 18.9966 107.361 19.0716C107.76 19.2334 108.15 19.4158 108.53 19.6183C108.574 19.6183 108.53 19.4728 108.345 19.2965C108.081 19.0598 107.768 18.8864 107.428 18.7895C107.098 18.6885 106.748 18.6688 106.409 18.7321C106.175 18.7895 106.078 18.8732 106.109 18.9129Z" fill="#263238"/>
<path d="M112.66 20.8465C112.652 21.009 112.709 21.168 112.816 21.2897C112.924 21.4115 113.075 21.4866 113.237 21.499C113.317 21.5082 113.397 21.5015 113.473 21.4793C113.55 21.4571 113.621 21.4199 113.683 21.3698C113.745 21.3197 113.796 21.2578 113.834 21.1876C113.872 21.1175 113.895 21.0405 113.903 20.9612C113.909 20.799 113.853 20.6406 113.745 20.5191C113.638 20.3975 113.487 20.3222 113.326 20.3087C113.246 20.2995 113.166 20.3062 113.09 20.3284C113.013 20.3506 112.942 20.3878 112.88 20.4379C112.818 20.488 112.766 20.5499 112.729 20.6201C112.691 20.6902 112.667 20.7672 112.66 20.8465Z" fill="#263238"/>
<path d="M112.774 19.7927C112.871 19.8368 113.351 19.515 114.096 19.4092C114.841 19.3034 115.441 19.4665 115.512 19.4092C115.582 19.3519 115.441 19.2813 115.181 19.2064C114.807 19.1065 114.417 19.0854 114.035 19.1447C113.662 19.1901 113.305 19.3198 112.99 19.5238C112.783 19.6561 112.725 19.7707 112.774 19.7927Z" fill="#263238"/>
<path d="M110.456 24.1713C110.108 24.0441 109.745 23.9626 109.376 23.9288C109.204 23.9068 109.045 23.8627 109.023 23.7481C109.015 23.5684 109.065 23.3908 109.164 23.2411C109.341 22.831 109.53 22.4034 109.724 21.9537C110.5 20.1285 111.073 18.6207 110.998 18.5898C110.923 18.559 110.236 20.0183 109.455 21.8435C109.27 22.2844 109.089 22.7252 108.917 23.1352C108.802 23.3383 108.761 23.5755 108.803 23.8054C108.826 23.8658 108.862 23.9204 108.908 23.9654C108.955 24.0103 109.011 24.0445 109.072 24.0655C109.166 24.0958 109.264 24.1135 109.363 24.1184C109.724 24.1807 110.091 24.1984 110.456 24.1713Z" fill="#263238"/>
<path d="M109.83 31.6188C112.091 31.7883 114.353 31.2999 116.342 30.2124C116.285 30.2124 114.349 33.5939 109.729 32.9061L109.83 31.6188Z" fill="#F4AF9B"/>
<path d="M110.675 25.8016C110.809 25.6462 110.981 25.5274 111.174 25.4564C111.367 25.3855 111.574 25.3647 111.777 25.396C111.925 25.4156 112.067 25.4648 112.195 25.5405C112.323 25.6163 112.434 25.7171 112.522 25.8369C112.607 25.9516 112.655 26.0897 112.659 26.2324C112.663 26.3751 112.623 26.5156 112.544 26.6349C112.432 26.7492 112.289 26.8281 112.132 26.8617C111.975 26.8954 111.812 26.8825 111.663 26.8244C111.351 26.6982 111.066 26.5125 110.825 26.2777C110.751 26.2218 110.69 26.1513 110.644 26.0705C110.62 26.0341 110.606 25.9911 110.606 25.9471C110.606 25.9031 110.62 25.8601 110.644 25.8236" fill="#F4AF9B"/>
<path d="M112.416 24.7135C112.306 24.7135 112.275 25.4321 111.631 25.9215C110.987 26.4108 110.216 26.3006 110.207 26.402C110.198 26.5034 110.375 26.5519 110.701 26.5739C111.126 26.5959 111.546 26.468 111.887 26.2124C112.214 25.9656 112.433 25.6025 112.5 25.1984C112.539 24.8942 112.464 24.709 112.416 24.7135Z" fill="#263238"/>
<path d="M112.862 17.4078C112.924 17.5886 113.594 17.5312 114.379 17.6591C115.163 17.787 115.789 18.025 115.9 17.8663C115.948 17.787 115.847 17.615 115.595 17.4254C115.261 17.1955 114.879 17.0447 114.478 16.9843C114.077 16.924 113.668 16.9557 113.281 17.0771C112.99 17.1785 112.84 17.3196 112.862 17.4078Z" fill="#263238"/>
<path d="M106.831 16.9682C106.941 17.1269 107.409 16.9682 107.964 17.0035C108.52 17.0387 108.987 17.1446 109.102 17.0035C109.155 16.9285 109.102 16.7742 108.886 16.6199C108.614 16.4389 108.295 16.3423 107.969 16.3423C107.642 16.3423 107.323 16.4389 107.052 16.6199C106.853 16.739 106.778 16.8933 106.831 16.9682Z" fill="#263238"/>
<path d="M110.092 9.73633C113.71 10.3056 117.246 11.3062 120.625 12.7166C121.41 13.0473 122.23 13.4308 122.671 14.1539C123.111 14.8769 123.076 15.8821 123.001 16.7991L121.877 29.8534L121.41 29.8269C120.087 30.0474 119.972 29.3596 119.007 28.3941C118.53 27.9045 118.173 27.3107 117.965 26.6595C117.757 26.0084 117.703 25.3178 117.808 24.6423C118.002 23.4563 118.69 22.2659 118.319 21.1153C117.83 19.5987 115.753 19.0608 115.255 17.5486C114.969 16.6669 115.295 15.6705 114.96 14.8064C114.625 13.9423 113.827 13.4838 113.02 13.1751C112.213 12.8665 111.345 12.6108 110.679 12.0509C110.013 11.491 109.603 10.455 110.092 9.73633Z" fill="#263238"/>
<path d="M93.7542 0.989746H58.1669C56.7181 0.989746 55.5437 2.16419 55.5437 3.61295V32.2168C55.5437 33.6656 56.7181 34.84 58.1669 34.84H93.7542C95.203 34.84 96.3774 33.6656 96.3774 32.2168V3.61295C96.3774 2.16419 95.203 0.989746 93.7542 0.989746Z" fill="#263238"/>
<path d="M87.123 34.5526L81.6209 28.6758L77.2827 31.7134L81.6209 38.1325L87.123 34.5526Z" fill="#FFD3C1"/>
<path d="M121.922 36.723L121.657 32.9976L109.229 32.8213L109.123 37.499C109.123 37.499 103.022 44.1121 100.804 51.4967C97.0832 63.9381 95.7341 79.7743 95.7341 79.7743H121.168C120.904 75.392 119.096 65.587 119.096 65.587L124.748 48.7236C126.154 42.6616 121.922 36.723 121.922 36.723Z" fill="#91AF93"/>
<path d="M91.1509 53.5594C91.1509 53.5594 91.2214 53.6299 91.3625 53.7489C91.5652 53.933 91.7819 54.101 92.0106 54.2515C92.8463 54.8148 93.799 55.1811 94.7969 55.3229C95.4847 55.421 96.1834 55.4135 96.869 55.3008C97.6053 55.2171 98.3944 55.1157 99.2233 55.0054C100.885 54.7806 102.706 54.4984 104.611 54.1766L114.354 52.4704L117.312 51.9854L118.119 51.8576L118.397 51.8047L118.115 51.84L117.308 51.9502C116.607 52.0472 115.593 52.2015 114.341 52.3911C111.841 52.7922 108.402 53.4271 104.593 54.0752C102.689 54.397 100.872 54.6792 99.2144 54.9084C98.3856 55.0187 97.5964 55.1245 96.8558 55.2126C95.1781 55.4944 93.4557 55.1374 92.0282 54.2119C91.8019 54.0624 91.5841 53.9005 91.3757 53.7269C91.2302 53.6167 91.1509 53.5594 91.1509 53.5594Z" fill="#263238"/>
<path d="M122.707 47.5501C122.72 47.5178 122.729 47.4836 122.733 47.4487C122.733 47.3605 122.773 47.2635 122.795 47.1621C122.843 46.9108 122.905 46.5493 122.971 46.0952C123.164 44.9169 123.132 43.7128 122.878 42.5462C122.595 41.3701 121.891 40.3384 120.899 39.6452C120.598 39.4453 120.265 39.2963 119.916 39.2043C119.789 39.1678 119.659 39.1427 119.528 39.1294C119.999 39.2424 120.447 39.4379 120.85 39.7069C121.812 40.4032 122.493 41.4192 122.773 42.5726C123.024 43.7316 123.063 44.9267 122.887 46.0996C122.834 46.5405 122.781 46.9152 122.742 47.1665C122.742 47.2723 122.729 47.3693 122.702 47.4575C122.7 47.4884 122.701 47.5195 122.707 47.5501Z" fill="#263238"/>
<path d="M96.254 50.5745C96.261 50.482 96.261 50.3892 96.254 50.2967L96.1834 49.5384C96.1154 48.707 96.0904 47.8727 96.1085 47.0387C96.1321 46.2041 96.1983 45.3712 96.3069 44.5433C96.3466 44.2744 96.3818 44.0275 96.4171 43.7939C96.4346 43.7022 96.4449 43.6094 96.448 43.5161C96.4186 43.6041 96.395 43.6939 96.3774 43.785C96.3378 43.9614 96.2893 44.2259 96.2408 44.5345C95.978 46.1926 95.935 47.878 96.1129 49.5473C96.1482 49.8647 96.1835 50.1248 96.2143 50.3012C96.2184 50.3934 96.2317 50.4849 96.254 50.5745Z" fill="#263238"/>
<path d="M109.267 37.4274C109.579 36.5626 110.039 35.7586 110.625 35.0511C111.507 33.8475 112.477 32.5866 113.866 32.0179C114.809 31.6343 117.247 31.8459 117.9 31.0612C119.928 28.6011 116.956 27.0933 118.032 23.6942C119.218 19.9953 118.605 20.564 118.698 17.6498L123.199 15.7056C123.909 16.2346 125.875 18.1436 125.659 19.0033C125.45 19.9442 125.509 20.9251 125.831 21.8337C126.523 24.0072 128.917 25.2857 130.046 27.2653C131.174 29.2448 129.896 31.9782 129.865 34.3192C129.834 36.6603 130.716 39.4598 132.995 39.9668C132.133 41.6904 130.73 43.0841 129.001 43.9347L127.573 41.9904C127.687 42.8789 127.484 43.7792 127 44.533C126.517 45.2869 125.783 45.8462 124.927 46.1126C124.447 44.0626 123.944 41.9552 122.701 40.2534C121.458 38.5516 119.302 37.348 117.269 37.8947C115.907 38.2562 114.858 39.3055 113.641 40.0153C112.424 40.7251 110.705 41.0293 109.735 40.0153C109.44 39.6609 109.243 39.2363 109.161 38.7829C109.079 38.3294 109.116 37.8624 109.267 37.4274Z" fill="#263238"/>
<g opacity="0.3">
<path d="M100.78 54.7111C106.644 53.6442 114.447 52.3657 120.311 51.2944C120.527 51.2326 120.756 51.2326 120.972 51.2944C121.156 51.3952 121.292 51.5636 121.353 51.7637C121.414 51.9638 121.395 52.1798 121.299 52.3657C121.09 52.7315 120.768 53.0194 120.382 53.1857C118.455 54.1909 116.202 54.2747 114.033 54.332L100.78 54.7067V54.7111Z" fill="black"/>
</g>
<path d="M96.5254 55.2959C98.3506 55.3312 119.336 51.4956 119.336 51.4956L96.5254 55.2959Z" fill="#91AF93"/>
<path d="M118.978 38.3949C120.517 38.5845 121.517 38.8358 123.316 40.7757C123.524 41.0043 123.703 41.2575 123.85 41.5296C125.851 45.0565 124.405 49.9062 120.569 51.2508L116.857 52.0135L96.5242 55.298C96.5242 55.298 92.1948 56.268 88.4739 50.4969C87.1116 48.3763 77.7166 34.3654 77.7166 34.3654L83.8888 30.2344L96.3302 43.5443L118.978 38.3949Z" fill="#91AF93"/>
<path d="M91.1509 53.5594C91.1509 53.5594 91.2214 53.6299 91.3625 53.7489C91.5652 53.933 91.7819 54.101 92.0106 54.2515C92.8463 54.8148 93.799 55.1811 94.7969 55.3229C95.4847 55.421 96.1834 55.4135 96.869 55.3008C97.6053 55.2171 98.3944 55.1157 99.2233 55.0054C100.885 54.7806 102.706 54.4984 104.611 54.1766L114.354 52.4704L117.312 51.9854L118.119 51.8576L118.397 51.8047L118.115 51.84L117.308 51.9502C116.607 52.0472 115.593 52.2015 114.341 52.3911C111.841 52.7922 108.402 53.4271 104.593 54.0752C102.689 54.397 100.872 54.6792 99.2144 54.9084C98.3856 55.0187 97.5964 55.1245 96.8558 55.2126C95.1781 55.4944 93.4557 55.1374 92.0282 54.2119C91.8019 54.0624 91.5841 53.9005 91.3757 53.7269C91.2302 53.6167 91.1509 53.5594 91.1509 53.5594Z" fill="#263238"/>
<path d="M122.707 47.5501C122.72 47.5178 122.729 47.4836 122.733 47.4487C122.733 47.3605 122.773 47.2635 122.795 47.1621C122.843 46.9108 122.905 46.5493 122.971 46.0952C123.164 44.9169 123.132 43.7128 122.878 42.5462C122.595 41.3701 121.891 40.3384 120.899 39.6452C120.598 39.4453 120.265 39.2963 119.916 39.2043C119.789 39.1678 119.659 39.1427 119.528 39.1294C119.999 39.2424 120.447 39.4379 120.85 39.7069C121.812 40.4032 122.493 41.4192 122.773 42.5726C123.024 43.7316 123.063 44.9267 122.887 46.0996C122.834 46.5405 122.781 46.9152 122.742 47.1665C122.742 47.2723 122.729 47.3693 122.702 47.4575C122.7 47.4884 122.701 47.5195 122.707 47.5501Z" fill="#263238"/>
<path d="M96.254 50.5745C96.261 50.482 96.261 50.3892 96.254 50.2967L96.1834 49.5384C96.1154 48.707 96.0904 47.8727 96.1085 47.0387C96.1321 46.2041 96.1983 45.3712 96.3069 44.5433C96.3466 44.2744 96.3818 44.0275 96.4171 43.7939C96.4346 43.7022 96.4449 43.6094 96.448 43.5161C96.4186 43.6041 96.395 43.6939 96.3774 43.785C96.3378 43.9614 96.2893 44.2259 96.2408 44.5345C95.978 46.1926 95.935 47.878 96.1129 49.5473C96.1482 49.8647 96.1835 50.1248 96.2143 50.3012C96.2184 50.3934 96.2317 50.4849 96.254 50.5745Z" fill="#263238"/>
<path d="M81.5968 24.125C81.474 23.2874 81.4356 22.4396 81.4821 21.5944C81.4865 21.5514 81.4811 21.5081 81.4663 21.4675C81.4515 21.4269 81.4278 21.3902 81.3968 21.3602C81.3659 21.3301 81.3285 21.3073 81.2876 21.2937C81.2466 21.2801 81.2031 21.2758 81.1603 21.2814C80.8952 21.3161 80.6462 21.4284 80.4447 21.6041C80.2431 21.7798 80.0979 22.0111 80.0273 22.2689C79.8912 22.7305 79.8477 23.2145 79.8994 23.693C79.8994 24.4777 79.8994 25.0993 79.8994 25.0993C79.8994 25.0993 75.9844 20.4129 75.1909 20.2012C75.125 20.1693 75.0534 20.1508 74.9803 20.1468C74.9072 20.1428 74.834 20.1535 74.765 20.1781C74.6961 20.2027 74.6327 20.2409 74.5787 20.2902C74.5246 20.3396 74.4809 20.3993 74.4502 20.4658C74.3047 20.6994 74.5957 21.2461 74.5957 21.2461L76.8001 24.4028C76.8001 24.4028 73.4626 20.479 72.8586 20.4878C72.2547 20.4966 71.9769 20.9287 72.3693 21.6561C72.6559 22.1896 75.57 25.624 75.57 25.624C75.57 25.624 72.4531 22.6172 71.8314 22.6393C71.2098 22.6613 71.3156 23.3226 71.6418 23.596C71.9681 23.8693 74.2871 26.5542 74.2871 26.5542C74.2871 26.5542 72.0342 24.6496 71.5801 24.7907C71.126 24.9318 71.32 25.4432 71.5581 25.8532C71.7962 26.2632 77.4481 31.9108 77.4481 31.9108L82.3507 29.4508C82.478 28.7629 82.4525 28.0555 82.2757 27.3787C81.9796 26.3099 81.7528 25.223 81.5968 24.125Z" fill="#FFD3C1"/>
<path d="M7.81843 62.2605C6.62533 62.2558 5.48268 61.7786 4.64068 60.9333C3.79867 60.088 3.32592 58.9434 3.32593 57.7503V18.539C3.36044 17.5493 3.7858 16.6135 4.50885 15.9368C5.2319 15.26 6.19369 14.8974 7.18357 14.9283H10.8693C11.5945 14.9427 12.3092 14.7538 12.9326 14.3829C13.5559 14.012 14.063 13.474 14.3963 12.8297L15.1854 11.2205C15.5171 10.5797 16.0206 10.0439 16.6397 9.67324C17.2588 9.30258 17.9689 9.11169 18.6904 9.12198H36.1886C36.8462 9.11345 37.4953 9.27052 38.0762 9.57869C38.6571 9.88687 39.1512 10.3363 39.5128 10.8855L40.3725 12.2478C40.7335 12.7966 41.2268 13.2458 41.8069 13.554C42.3871 13.8622 43.0354 14.0194 43.6923 14.0113H66.0005C66.9915 13.9792 67.9546 14.342 68.678 15.02C69.4014 15.6979 69.8259 16.6355 69.8582 17.6264V57.7459C69.8582 58.9421 69.383 60.0893 68.5372 60.9351C67.6914 61.7809 66.5442 62.2561 65.348 62.2561L7.81843 62.2605Z" fill="#91AF93"/>
<g opacity="0.3">
<path d="M7.82087 62.2595C6.62777 62.2548 5.48512 61.7776 4.64312 60.9323C3.80111 60.087 3.32836 58.9425 3.32837 57.7494V18.5381C3.36288 17.5483 3.78824 16.6126 4.51129 15.9358C5.23434 15.259 6.19613 14.8964 7.18601 14.9273H10.8717C11.5969 14.9417 12.3117 14.7528 12.935 14.3819C13.5584 14.011 14.0654 13.473 14.3987 12.8287L15.1879 11.2196C15.5195 10.5787 16.0231 10.0429 16.6422 9.67227C17.2612 9.3016 17.9713 9.11071 18.6928 9.121H36.1911C36.8486 9.11248 37.4977 9.26954 38.0787 9.57772C38.6596 9.88589 39.1536 10.3353 39.5153 10.8845L40.375 12.2468C40.7359 12.7957 41.2292 13.2449 41.8094 13.5531C42.3895 13.8612 43.0379 14.0185 43.6948 14.0103H66.003C66.9939 13.9782 67.957 14.341 68.6804 15.019C69.4039 15.697 69.8284 16.6345 69.8606 17.6255V57.745C69.8606 58.9411 69.3854 60.0883 68.5396 60.9341C67.6938 61.7799 66.5466 62.2551 65.3505 62.2551L7.82087 62.2595Z" fill="black"/>
</g>
<path d="M41.4542 14.0333L27.2581 14.0025L25.9928 11.6305C25.5625 10.8605 24.9323 10.221 24.1688 9.77946C23.4052 9.33792 22.5365 9.11076 21.6546 9.12198H7.78027C5.31138 9.12198 3.30981 10.9957 3.30981 13.3103V57.5034C3.30981 60.1487 5.58472 62.2605 8.38867 62.2605H64.7411C67.5495 62.2605 69.82 60.131 69.82 57.5034V17.2825C69.82 16.4208 69.4777 15.5943 68.8683 14.985C68.259 14.3756 67.4325 14.0333 66.5708 14.0333H41.4542Z" fill="#91AF93"/>
<path d="M48.6102 47.5238H42.3278C42.2109 47.5238 42.0987 47.4774 42.016 47.3947C41.9334 47.312 41.8869 47.1999 41.8869 47.083C41.8869 46.966 41.9334 46.8539 42.016 46.7712C42.0987 46.6885 42.2109 46.6421 42.3278 46.6421H48.6102C50.2394 46.6453 51.8054 46.0119 52.9743 44.877C54.1432 43.7421 54.8225 42.1955 54.8674 40.5669C54.9122 38.9383 54.3191 37.3567 53.2144 36.1591C52.1098 34.9616 50.581 34.243 48.9541 34.1566C48.8601 34.152 48.7699 34.1174 48.6969 34.0579C48.624 33.9984 48.5719 33.9171 48.5485 33.8259C48.0844 32.0336 47.1309 30.4057 45.7947 29.1242C44.4585 27.8427 42.7922 26.9581 40.9821 26.5693C39.172 26.1805 37.2894 26.3028 35.5448 26.9225C33.8002 27.5422 32.2624 28.6349 31.1031 30.0785C31.056 30.1379 30.9942 30.1841 30.924 30.2127C30.8537 30.2413 30.7772 30.2512 30.7019 30.2416C30.3862 30.2008 30.0681 30.1802 29.7497 30.1799C27.6002 30.2296 25.5555 31.1185 24.0529 32.6562C22.5503 34.194 21.709 36.2587 21.709 38.4088C21.709 40.5588 22.5503 42.6235 24.0529 44.1613C25.5555 45.6991 27.6002 46.5879 29.7497 46.6377H34.8417C34.9587 46.6377 35.0708 46.6841 35.1535 46.7668C35.2362 46.8495 35.2826 46.9616 35.2826 47.0786C35.2826 47.1955 35.2362 47.3076 35.1535 47.3903C35.0708 47.473 34.9587 47.5194 34.8417 47.5194H29.7276C27.3096 47.5194 24.9906 46.5589 23.2807 44.849C21.5709 43.1392 20.6104 40.8202 20.6104 38.4022C20.6104 35.9841 21.5709 33.6651 23.2807 31.9553C24.9906 30.2455 27.3096 29.2849 29.7276 29.2849C29.9986 29.285 30.2694 29.2997 30.5388 29.329C31.8049 27.8157 33.459 26.6756 35.3237 26.0307C37.1884 25.3858 39.1934 25.2605 41.1239 25.6683C43.0544 26.076 44.8375 27.0014 46.2821 28.3453C47.7267 29.6892 48.7784 31.4009 49.3244 33.2969C51.1558 33.4672 52.8506 34.3383 54.055 35.7284C55.2594 37.1185 55.8803 38.92 55.7882 40.757C55.696 42.5939 54.8979 44.3243 53.5604 45.5868C52.2229 46.8493 50.4494 47.5465 48.6102 47.5327V47.5238Z" fill="white"/>
<path d="M38.4541 51.5461C38.3371 51.5461 38.225 51.4997 38.1423 51.417C38.0596 51.3343 38.0132 51.2222 38.0132 51.1052V39.6425C38.0132 39.5256 38.0596 39.4135 38.1423 39.3308C38.225 39.2481 38.3371 39.2017 38.4541 39.2017C38.571 39.2017 38.6831 39.2481 38.7658 39.3308C38.8485 39.4135 38.8949 39.5256 38.8949 39.6425V51.1052C38.8949 51.2222 38.8485 51.3343 38.7658 51.417C38.6831 51.4997 38.571 51.5461 38.4541 51.5461Z" fill="white"/>
<path d="M41.8015 44.2051C41.7324 44.2058 41.664 44.1902 41.6019 44.1596C41.5399 44.129 41.4859 44.0841 41.4444 44.0288L38.5258 40.1138C38.5151 40.101 38.5016 40.0907 38.4863 40.0838C38.4711 40.0769 38.4544 40.0736 38.4377 40.0742C38.4217 40.0746 38.406 40.0783 38.3916 40.0852C38.3772 40.092 38.3643 40.1018 38.3539 40.1138L35.2678 43.9186C35.1935 44.0104 35.0859 44.0689 34.9685 44.0813C34.8511 44.0937 34.7335 44.059 34.6418 43.9847C34.55 43.9105 34.4914 43.8028 34.479 43.6854C34.4666 43.568 34.5014 43.4504 34.5756 43.3587L37.6617 39.5539C37.7588 39.4378 37.8801 39.3444 38.0173 39.2804C38.1544 39.2164 38.304 39.1833 38.4553 39.1836C38.6059 39.1858 38.7541 39.2222 38.8886 39.2902C39.023 39.3582 39.1402 39.4559 39.2312 39.576L42.1586 43.4953C42.1938 43.5421 42.2194 43.5953 42.2338 43.652C42.2482 43.7087 42.2512 43.7677 42.2426 43.8255C42.234 43.8834 42.2139 43.939 42.1836 43.989C42.1533 44.039 42.1133 44.0825 42.0661 44.117C41.9897 44.1742 41.8969 44.2051 41.8015 44.2051Z" fill="white"/>
<path d="M29.5686 71.5562V69.5811H29.9389V71.5429C29.9389 72.363 30.3225 72.7377 30.9926 72.7377C31.6628 72.7377 32.0507 72.363 32.0507 71.5429V69.5811H32.4078V71.5562C32.4078 72.5481 31.8744 73.0596 30.9926 73.0596C30.1109 73.0596 29.5686 72.5481 29.5686 71.5562Z" fill="#263238"/>
<path d="M36.0502 71.7339C36.0601 71.9076 36.0337 72.0814 35.9727 72.2443C35.9117 72.4072 35.8174 72.5556 35.6959 72.68C35.5744 72.8044 35.4282 72.9022 35.2668 72.967C35.1054 73.0319 34.9323 73.0624 34.7585 73.0566C34.5638 73.063 34.3708 73.0193 34.1979 72.9298C34.025 72.8402 33.878 72.7078 33.7709 72.5451V73.9912H33.4226V70.4642H33.7577V70.9448C33.8629 70.7758 34.0108 70.6375 34.1865 70.5438C34.3622 70.4502 34.5595 70.4045 34.7585 70.4113C34.9321 70.4062 35.105 70.4371 35.266 70.5022C35.4271 70.5673 35.573 70.665 35.6944 70.7893C35.8158 70.9136 35.9101 71.0617 35.9713 71.2243C36.0326 71.3869 36.0594 71.5604 36.0502 71.7339ZM35.7019 71.7339C35.6941 71.544 35.6307 71.3605 35.5195 71.2063C35.4083 71.0521 35.2543 70.934 35.0765 70.8666C34.8987 70.7993 34.7051 70.7856 34.5196 70.8274C34.3342 70.8692 34.1651 70.9646 34.0334 71.1017C33.9017 71.2388 33.8131 71.4115 33.7788 71.5985C33.7445 71.7855 33.7659 71.9784 33.8403 72.1534C33.9148 72.3283 34.039 72.4775 34.1975 72.5824C34.356 72.6873 34.5419 72.7434 34.732 72.7435C34.8633 72.7455 34.9937 72.7205 35.1149 72.67C35.2361 72.6194 35.3456 72.5444 35.4366 72.4497C35.5276 72.355 35.5981 72.2426 35.6438 72.1194C35.6894 71.9963 35.7092 71.8651 35.7019 71.7339Z" fill="#263238"/>
<path d="M36.7646 69.3745H37.1129V73.0338H36.7646V69.3745Z" fill="#263238"/>
<path d="M37.8279 71.7333C37.8279 71.4717 37.9055 71.216 38.0508 70.9985C38.1962 70.7809 38.4027 70.6114 38.6444 70.5113C38.8861 70.4112 39.152 70.385 39.4086 70.4361C39.6652 70.4871 39.9008 70.6131 40.0858 70.798C40.2708 70.983 40.3967 71.2187 40.4478 71.4752C40.4988 71.7318 40.4726 71.9977 40.3725 72.2394C40.2724 72.4811 40.1029 72.6877 39.8854 72.833C39.6679 72.9783 39.4121 73.0559 39.1506 73.0559C38.9752 73.062 38.8005 73.032 38.6372 72.9678C38.474 72.9035 38.3257 72.8063 38.2016 72.6822C38.0776 72.5581 37.9804 72.4099 37.9161 72.2466C37.8518 72.0833 37.8218 71.9086 37.8279 71.7333ZM40.1117 71.7333C40.103 71.5442 40.039 71.3619 39.9276 71.2089C39.8162 71.056 39.6623 70.9391 39.4851 70.8729C39.3078 70.8067 39.115 70.794 38.9306 70.8364C38.7462 70.8789 38.5783 70.9746 38.4478 71.1116C38.3174 71.2487 38.2301 71.4211 38.1967 71.6073C38.1634 71.7936 38.1856 71.9856 38.2604 72.1594C38.3353 72.3331 38.4596 72.4811 38.6178 72.5848C38.7761 72.6886 38.9613 72.7435 39.1506 72.7429C39.2815 72.745 39.4115 72.7199 39.5323 72.6693C39.6531 72.6186 39.762 72.5435 39.8523 72.4487C39.9426 72.3538 40.0123 72.2413 40.0569 72.1181C40.1016 71.995 40.1202 71.864 40.1117 71.7333Z" fill="#263238"/>
<path d="M43.1205 71.4236V73.0328H42.7854V72.6272C42.6906 72.7721 42.559 72.8893 42.4041 72.9668C42.2492 73.0442 42.0765 73.0792 41.9037 73.0681C41.3173 73.0681 40.9602 72.7639 40.9602 72.3142C40.9602 71.8645 41.2159 71.5823 41.961 71.5823H42.781V71.4236C42.781 70.9827 42.5297 70.7358 42.0492 70.7358C41.7275 70.728 41.414 70.8378 41.1674 71.0445L41.0087 70.7799C41.3097 70.5465 41.6816 70.4236 42.0624 70.4316C42.2005 70.4104 42.3416 70.4208 42.4751 70.4621C42.6086 70.5034 42.7309 70.5746 42.8329 70.6701C42.9348 70.7657 43.0137 70.8832 43.0635 71.0137C43.1133 71.1443 43.1328 71.2844 43.1205 71.4236ZM42.7678 72.2524V71.8116H41.9566C41.454 71.8116 41.2909 72.01 41.2909 72.2745C41.2909 72.539 41.5333 72.7639 41.9478 72.7639C42.1187 72.7765 42.2894 72.7358 42.4363 72.6473C42.5831 72.5589 42.6989 72.4271 42.7678 72.2701V72.2524Z" fill="#263238"/>
<path d="M46.4466 69.3731V73.0323H46.1115V72.5165C46.0078 72.6873 45.8603 72.8272 45.6844 72.9218C45.5084 73.0164 45.3103 73.0621 45.1107 73.0544C44.7599 73.0544 44.4235 72.915 44.1755 72.667C43.9274 72.4189 43.7881 72.0825 43.7881 71.7317C43.7881 71.381 43.9274 71.0446 44.1755 70.7965C44.4235 70.5485 44.7599 70.4091 45.1107 70.4091C45.3054 70.4023 45.4986 70.4457 45.6715 70.5353C45.8445 70.6249 45.9915 70.7576 46.0983 70.9205V69.3643L46.4466 69.3731ZM46.1027 71.7362C46.094 71.5471 46.03 71.3648 45.9186 71.2118C45.8072 71.0589 45.6533 70.942 45.4761 70.8758C45.2988 70.8096 45.106 70.7969 44.9216 70.8393C44.7372 70.8818 44.5693 70.9775 44.4388 71.1145C44.3084 71.2516 44.2211 71.424 44.1877 71.6102C44.1544 71.7965 44.1766 71.9885 44.2514 72.1622C44.3263 72.336 44.4506 72.484 44.6088 72.5877C44.7671 72.6915 44.9523 72.7464 45.1416 72.7457C45.2723 72.7472 45.402 72.7217 45.5225 72.6708C45.643 72.62 45.7517 72.5448 45.8418 72.4501C45.932 72.3554 46.0017 72.2431 46.0466 72.1203C46.0915 71.9975 46.1106 71.8667 46.1027 71.7362Z" fill="#263238"/>
<path d="M47.1967 72.7846C47.1955 72.7497 47.2013 72.7149 47.2139 72.6823C47.2264 72.6497 47.2454 72.62 47.2697 72.5949C47.294 72.5698 47.323 72.5499 47.3552 72.5362C47.3873 72.5226 47.4219 72.5156 47.4568 72.5156C47.4919 72.5156 47.5267 72.5226 47.5591 72.5362C47.5914 72.5497 47.6208 72.5696 47.6454 72.5947C47.67 72.6197 47.6894 72.6494 47.7025 72.682C47.7155 72.7146 47.7219 72.7495 47.7213 72.7846C47.7213 72.8551 47.6936 72.9229 47.6441 72.9732C47.5946 73.0235 47.5274 73.0523 47.4568 73.0535C47.4221 73.0529 47.3878 73.0455 47.3559 73.0317C47.324 73.0179 47.2952 72.9979 47.271 72.9729C47.2469 72.9479 47.2279 72.9184 47.2151 72.8861C47.2024 72.8538 47.1961 72.8193 47.1967 72.7846Z" fill="#263238"/>
<path d="M48.2408 72.7846C48.2402 72.7498 48.2464 72.7153 48.2592 72.683C48.272 72.6507 48.291 72.6212 48.3151 72.5962C48.3393 72.5712 48.3681 72.5513 48.4 72.5374C48.4319 72.5236 48.4661 72.5162 48.5009 72.5156C48.536 72.5156 48.5708 72.5226 48.6031 72.5362C48.6355 72.5497 48.6649 72.5696 48.6895 72.5947C48.7141 72.6197 48.7335 72.6494 48.7466 72.682C48.7596 72.7146 48.766 72.7495 48.7654 72.7846C48.7654 72.8551 48.7377 72.9229 48.6882 72.9732C48.6387 73.0235 48.5714 73.0523 48.5009 73.0535C48.4661 73.0529 48.4319 73.0455 48.4 73.0317C48.3681 73.0179 48.3393 72.9979 48.3151 72.9729C48.291 72.9479 48.272 72.9184 48.2592 72.8861C48.2464 72.8538 48.2402 72.8193 48.2408 72.7846Z" fill="#263238"/>
<path d="M49.2853 72.7846C49.2841 72.7497 49.29 72.7149 49.3025 72.6823C49.3151 72.6497 49.334 72.62 49.3583 72.5949C49.3826 72.5698 49.4117 72.5499 49.4438 72.5362C49.4759 72.5226 49.5105 72.5156 49.5454 72.5156C49.5805 72.5156 49.6153 72.5226 49.6477 72.5362C49.6801 72.5497 49.7094 72.5696 49.734 72.5947C49.7587 72.6197 49.7781 72.6494 49.7911 72.682C49.8041 72.7146 49.8105 72.7495 49.8099 72.7846C49.8099 72.8551 49.7822 72.9229 49.7327 72.9732C49.6832 73.0235 49.616 73.0523 49.5454 73.0535C49.5107 73.0529 49.4764 73.0455 49.4445 73.0317C49.4126 73.0179 49.3838 72.9979 49.3597 72.9729C49.3355 72.9479 49.3165 72.9184 49.3037 72.8861C49.291 72.8538 49.2847 72.8193 49.2853 72.7846Z" fill="#263238"/>
<path d="M123.972 79.2275H6.00207C3.23236 79.2275 0.987061 80.5954 0.987061 82.2828V83.1723C0.987061 84.8596 3.23236 86.2275 6.00207 86.2275H123.972C126.742 86.2275 128.987 84.8596 128.987 83.1723V82.2828C128.987 80.5954 126.742 79.2275 123.972 79.2275Z" fill="#E0E0E0"/>
<path d="M34.1053 79.2275H2.90394C1.3027 79.2275 0.00463867 80.5954 0.00463867 82.2828V83.1723C0.00463867 84.8596 1.3027 86.2275 2.90394 86.2275H34.1053C35.7066 86.2275 37.0046 84.8596 37.0046 83.1723V82.2828C37.0046 80.5954 35.7066 79.2275 34.1053 79.2275Z" fill="#91AF93"/>
<g opacity="0.3">
<path d="M5.68905 78.9316L1.72119 85.2317L2.34282 85.5095C2.51888 85.5885 2.70975 85.6291 2.90273 85.6285H4.16363L8.47538 78.9316H5.68905Z" fill="white"/>
</g>
<g opacity="0.3">
<path d="M12.79 78.9316L8.5708 85.6285H11.2645L15.5719 78.9316H12.79Z" fill="white"/>
</g>
<g opacity="0.3">
<path d="M19.8818 78.9316L15.6626 85.6285H18.3563L22.6681 78.9316H19.8818Z" fill="white"/>
</g>
<g opacity="0.3">
<path d="M26.9777 78.9316L22.7542 85.6285H25.4479L29.7596 78.9316H26.9777Z" fill="white"/>
</g>
<g opacity="0.3">
<path d="M34.0712 78.9316L29.8521 85.6285H32.5458L35.9405 80.338L36.3461 79.7649C35.8259 79.205 35.0279 78.9713 34.0712 78.9316Z" fill="white"/>
</g>
<path d="M122.938 86.2142C122.938 86.2142 123.172 86.2142 123.624 86.1696C124.297 86.115 124.943 85.9768 125.519 85.7641C126.463 85.4229 127.188 84.9055 127.579 84.2937C127.826 83.9069 127.939 83.4948 127.911 83.0818C127.958 82.6112 127.897 82.1391 127.73 81.6782C127.49 81.1436 126.998 80.66 126.312 80.2838C125.625 79.9076 124.772 79.6541 123.851 79.5528C123.331 79.5091 122.806 79.4927 122.281 79.5038H117.119H100.652L5.31923 79.535C4.19599 79.5356 3.10777 79.7658 2.2396 80.1866C1.37142 80.6074 0.776899 81.1927 0.557135 81.8431C0.473096 82.1703 0.442772 82.5016 0.466576 82.8323C0.44243 83.162 0.480392 83.4922 0.579775 83.817C0.805811 84.4469 1.38577 85.0133 2.22555 85.4242C3.06532 85.8351 4.11563 86.0664 5.20603 86.0805H15.2434H40.5557L83.4146 86.1072L112.312 86.1429L120.168 86.1652H112.312L83.4146 86.2053L40.5557 86.2275H15.2434H5.20603C4.01776 86.2212 2.86846 85.9765 1.94687 85.5336C1.02527 85.0907 0.386165 84.4759 0.13451 83.7902C0.0273137 83.4495 -0.0132051 83.1027 0.0137572 82.7565C-0.0132073 82.4109 0.0196701 82.0645 0.111871 81.7228C0.346456 81.019 0.988174 80.3852 1.92714 79.93C2.86611 79.4748 4.04392 79.2264 5.25886 79.2275L100.591 79.2632H117.059H122.221C122.758 79.2511 123.297 79.2705 123.828 79.3211C124.779 79.4282 125.659 79.6923 126.365 80.0827C127.072 80.4731 127.576 80.9738 127.821 81.5267C127.981 81.9972 128.037 82.478 127.987 82.957C128.005 83.3796 127.885 83.8003 127.632 84.1957C127.219 84.8154 126.471 85.3371 125.504 85.6795C124.913 85.8883 124.255 86.0219 123.572 86.0716C123.368 86.1305 123.156 86.1782 122.938 86.2142Z" fill="#263238"/>
</svg>
