<svg width="32" height="33" viewBox="0 0 32 33" fill="none" xmlns="http://www.w3.org/2000/svg">
<path d="M27.5036 21.8319C27.3998 21.7069 27.2979 21.5819 27.1979 21.4613C25.8229 19.7981 24.9911 18.7944 24.9911 14.0863C24.9911 11.6488 24.4079 9.64875 23.2586 8.14875C22.4111 7.04062 21.2654 6.2 19.7554 5.57875C19.736 5.56794 19.7186 5.55376 19.7042 5.53687C19.1611 3.71812 17.6748 2.5 15.9986 2.5C14.3223 2.5 12.8367 3.71812 12.2936 5.535C12.2791 5.55129 12.262 5.56503 12.2429 5.57562C8.71918 7.02625 7.00668 9.80938 7.00668 14.0844C7.00668 18.7944 6.17606 19.7981 4.79981 21.4594C4.69981 21.58 4.59793 21.7025 4.49418 21.83C4.22618 22.1532 4.05638 22.5464 4.00488 22.9631C3.95337 23.3798 4.02232 23.8025 4.20356 24.1812C4.58918 24.9937 5.41106 25.4981 6.34918 25.4981H25.6548C26.5886 25.4981 27.4048 24.9944 27.7917 24.1856C27.9737 23.8068 28.0433 23.3837 27.9922 22.9666C27.9412 22.5494 27.7716 22.1556 27.5036 21.8319ZM15.9986 30.5C16.9017 30.4993 17.7878 30.2541 18.5629 29.7905C19.338 29.327 19.9732 28.6622 20.4011 27.8669C20.4212 27.8288 20.4312 27.7861 20.43 27.743C20.4287 27.6999 20.4164 27.6578 20.3941 27.6209C20.3719 27.584 20.3404 27.5534 20.3029 27.5322C20.2653 27.5111 20.2229 27.5 20.1798 27.5H11.8186C11.7754 27.4998 11.7329 27.5109 11.6953 27.532C11.6576 27.5532 11.6261 27.5837 11.6038 27.6206C11.5814 27.6576 11.569 27.6997 11.5678 27.7428C11.5665 27.786 11.5765 27.8287 11.5967 27.8669C12.0245 28.6621 12.6596 29.3268 13.4346 29.7904C14.2095 30.2539 15.0955 30.4992 15.9986 30.5Z" fill="#17471A"/>
</svg>
