<svg width="24" height="24" viewBox="0 0 24 24" fill="none" xmlns="http://www.w3.org/2000/svg">
<mask id="mask0_1_3227" style="mask-type:alpha" maskUnits="userSpaceOnUse" x="0" y="0" width="24" height="24">
<rect width="24" height="24" transform="matrix(1 0 0 -1 0 24)" fill="#D9D9D9"/>
</mask>
<g mask="url(#mask0_1_3227)">
<path d="M11.9998 13.2001L8.0998 9.3001C7.91647 9.11676 7.68314 9.0251 7.3998 9.0251C7.11647 9.0251 6.88314 9.11676 6.6998 9.3001C6.51647 9.48343 6.4248 9.71676 6.4248 10.0001C6.4248 10.2834 6.51647 10.5168 6.6998 10.7001L11.2998 15.3001C11.4998 15.5001 11.7331 15.6001 11.9998 15.6001C12.2665 15.6001 12.4998 15.5001 12.6998 15.3001L17.2998 10.7001C17.4831 10.5168 17.5748 10.2834 17.5748 10.0001C17.5748 9.71676 17.4831 9.48343 17.2998 9.3001C17.1165 9.11676 16.8831 9.0251 16.5998 9.0251C16.3165 9.0251 16.0831 9.11676 15.8998 9.3001L11.9998 13.2001Z" fill="#7E7E7E"/>
</g>
</svg>
