<svg width="24" height="24" viewBox="0 0 24 24" fill="none" xmlns="http://www.w3.org/2000/svg">
<mask id="mask0_1_3242" style="mask-type:alpha" maskUnits="userSpaceOnUse" x="0" y="0" width="24" height="24">
<rect x="24" width="24" height="24" transform="rotate(90 24 0)" fill="#D9D9D9"/>
</mask>
<g mask="url(#mask0_1_3242)">
<path d="M13.2001 11.9998L9.3001 8.0998C9.11676 7.91647 9.0251 7.68314 9.0251 7.3998C9.0251 7.11647 9.11676 6.88314 9.3001 6.6998C9.48343 6.51647 9.71676 6.4248 10.0001 6.4248C10.2834 6.4248 10.5168 6.51647 10.7001 6.6998L15.3001 11.2998C15.5001 11.4998 15.6001 11.7331 15.6001 11.9998C15.6001 12.2665 15.5001 12.4998 15.3001 12.6998L10.7001 17.2998C10.5168 17.4831 10.2834 17.5748 10.0001 17.5748C9.71676 17.5748 9.48343 17.4831 9.3001 17.2998C9.11676 17.1165 9.0251 16.8831 9.0251 16.5998C9.0251 16.3165 9.11676 16.0831 9.3001 15.8998L13.2001 11.9998Z" fill="#7E7E7E"/>
</g>
</svg>
