<svg width="24" height="24" viewBox="0 0 24 24" fill="none" xmlns="http://www.w3.org/2000/svg">
<mask id="mask0_1_3238" style="mask-type:alpha" maskUnits="userSpaceOnUse" x="0" y="0" width="24" height="24">
<rect width="24" height="24" transform="matrix(4.37114e-08 1 1 -4.37114e-08 0 0)" fill="#D9D9D9"/>
</mask>
<g mask="url(#mask0_1_3238)">
<path d="M10.7999 11.9998L14.6999 8.0998C14.8832 7.91647 14.9749 7.68314 14.9749 7.3998C14.9749 7.11647 14.8832 6.88314 14.6999 6.6998C14.5166 6.51647 14.2832 6.4248 13.9999 6.4248C13.7166 6.4248 13.4832 6.51647 13.2999 6.6998L8.6999 11.2998C8.4999 11.4998 8.3999 11.7331 8.3999 11.9998C8.3999 12.2665 8.4999 12.4998 8.6999 12.6998L13.2999 17.2998C13.4832 17.4831 13.7166 17.5748 13.9999 17.5748C14.2832 17.5748 14.5166 17.4831 14.6999 17.2998C14.8832 17.1165 14.9749 16.8831 14.9749 16.5998C14.9749 16.3165 14.8832 16.0831 14.6999 15.8998L10.7999 11.9998Z" fill="#7E7E7E"/>
</g>
</svg>
