<svg width="25" height="24" viewBox="0 0 25 24" fill="none" xmlns="http://www.w3.org/2000/svg">
<path d="M15.0229 2.75195V6.34795C15.0229 6.83495 15.2169 7.30295 15.5629 7.64795C15.9098 7.99332 16.3795 8.18714 16.8689 8.18695H20.9939" stroke="black" stroke-width="1.5" stroke-linecap="round" stroke-linejoin="round"/>
<path d="M21.0874 8.56705V17.1351C21.0675 17.6955 20.937 18.2464 20.7032 18.7562C20.4695 19.2659 20.1371 19.7243 19.7254 20.1051C19.3133 20.4875 18.8299 20.7851 18.3028 20.9807C17.7757 21.1763 17.2152 21.2661 16.6534 21.2451H9.0634C8.49814 21.2709 7.93334 21.1849 7.40138 20.992C6.86942 20.7991 6.38075 20.5032 5.9634 20.1211C5.54767 19.7393 5.21195 19.2788 4.97573 18.7661C4.73951 18.2535 4.60751 17.6991 4.5874 17.1351V6.86105C4.60726 6.30063 4.73782 5.74967 4.97158 5.23993C5.20534 4.7302 5.53766 4.27177 5.9494 3.89105C6.36148 3.50857 6.84488 3.21103 7.37199 3.01543C7.89909 2.81982 8.45957 2.72999 9.0214 2.75105H14.7354C15.6077 2.74797 16.4497 3.07072 17.0964 3.65605L20.0564 6.37805C20.3723 6.65013 20.6273 6.98565 20.8049 7.3628C20.9826 7.73994 21.0788 8.15026 21.0874 8.56705Z" stroke="black" stroke-width="1.5" stroke-linecap="round" stroke-linejoin="round"/>
<path d="M12.8374 10.498V17.272" stroke="black" stroke-width="1.5" stroke-miterlimit="10" stroke-linecap="round"/>
<path d="M15.9439 13.3492L13.2789 10.6842C13.2213 10.6258 13.1526 10.5795 13.0769 10.5479C13.0012 10.5163 12.92 10.5 12.8379 10.5C12.7559 10.5 12.6747 10.5163 12.599 10.5479C12.5233 10.5795 12.4546 10.6258 12.3969 10.6842L9.73193 13.3502" stroke="black" stroke-width="1.5" stroke-linecap="round" stroke-linejoin="round"/>
</svg>
