<svg width="24" height="25" viewBox="0 0 24 25" fill="none" xmlns="http://www.w3.org/2000/svg">
<path d="M16.6983 22.4958H5.09828C4.68867 22.4975 4.28288 22.4169 3.90498 22.2589C3.52707 22.1009 3.18474 21.8686 2.89828 21.5758C2.60971 21.2851 2.3816 20.9402 2.22712 20.5608C2.07264 20.1815 1.99487 19.7753 1.99828 19.3658V7.77578C1.99317 7.36806 2.07123 6.96358 2.22769 6.58705C2.38416 6.21051 2.61573 5.86982 2.90828 5.58578C3.19293 5.29718 3.53311 5.06926 3.90828 4.91578C4.28836 4.75684 4.69631 4.67525 5.10828 4.67578H9.54828C9.74719 4.67578 9.93796 4.7548 10.0786 4.89545C10.2193 5.03611 10.2983 5.22687 10.2983 5.42578C10.2983 5.6247 10.2193 5.81546 10.0786 5.95611C9.93796 6.09677 9.74719 6.17578 9.54828 6.17578H5.10828C4.89319 6.18163 4.68046 6.22216 4.47828 6.29578C4.18362 6.42016 3.93237 6.62897 3.7562 6.89591C3.58002 7.16284 3.4868 7.47595 3.48828 7.79578V19.3858C3.48578 19.6006 3.52604 19.8139 3.60673 20.013C3.68742 20.2122 3.80693 20.3933 3.95828 20.5458C4.10961 20.6959 4.2891 20.8148 4.48644 20.8954C4.68378 20.9761 4.8951 21.017 5.10828 21.0158H16.7083C16.9213 21.0158 17.1313 20.9758 17.3283 20.8958C17.5243 20.817 17.7015 20.6978 17.8483 20.5458C18.0003 20.399 18.1195 20.2218 18.1983 20.0258C18.2867 19.8277 18.331 19.6127 18.3283 19.3958V14.9558C18.3283 14.7569 18.4073 14.5661 18.548 14.4255C18.6886 14.2848 18.8794 14.2058 19.0783 14.2058C19.2772 14.2058 19.468 14.2848 19.6086 14.4255C19.7493 14.5661 19.8283 14.7569 19.8283 14.9558V19.4258C19.83 19.8354 19.7494 20.2412 19.5914 20.6191C19.4334 20.997 19.2011 21.3393 18.9083 21.6258C18.6212 21.9139 18.2818 22.1447 17.9083 22.3058C17.5213 22.4458 17.1103 22.5108 16.6983 22.4958Z" fill="#17471A"/>
<path d="M21.8084 5.95674C21.7065 5.69925 21.5495 5.46717 21.3484 5.27674L19.1984 3.12674C19.008 2.92568 18.7759 2.76868 18.5184 2.66674C18.1315 2.50371 17.7046 2.4604 17.2929 2.54239C16.8811 2.62439 16.5034 2.82793 16.2084 3.12674L14.4984 4.83674V4.88674L6.75844 12.6167C6.36768 13.0102 6.14839 13.5422 6.14844 14.0967V16.2667C6.15107 16.8255 6.37421 17.3607 6.76935 17.7558C7.16448 18.151 7.69964 18.3741 8.25844 18.3767H10.4284C10.704 18.3771 10.9768 18.3224 11.231 18.216C11.4851 18.1095 11.7154 17.9534 11.9084 17.7567L19.6484 10.0167L21.3684 8.29674C21.5704 8.10674 21.7284 7.87474 21.8284 7.61674C21.9429 7.36027 22.002 7.08258 22.002 6.80174C22.002 6.5209 21.9429 6.2432 21.8284 5.98674L21.8084 5.95674ZM20.4284 7.00674C20.396 7.08229 20.3483 7.15037 20.2884 7.20674L19.0684 8.42674L16.0684 5.42674L17.2984 4.19674C17.4166 4.08247 17.5741 4.01802 17.7384 4.01674C17.8177 4.01805 17.8958 4.03505 17.9684 4.06674C18.0458 4.0994 18.1124 4.14607 18.1684 4.20674L20.3284 6.35674C20.3829 6.41547 20.4269 6.48312 20.4584 6.55674C20.4733 6.63269 20.4733 6.71079 20.4584 6.78674C20.4622 6.8613 20.452 6.93591 20.4284 7.00674Z" fill="#17471A"/>
</svg>
