<svg width="24" height="24" viewBox="0 0 24 24" fill="none" xmlns="http://www.w3.org/2000/svg">
<path d="M10 3.99886C8.4087 3.99886 6.88258 4.631 5.75736 5.75622C4.63214 6.88143 4 8.40756 4 9.99886C4 11.5902 4.63214 13.1163 5.75736 14.2415C6.88258 15.3667 8.4087 15.9989 10 15.9989C11.5913 15.9989 13.1174 15.3667 14.2426 14.2415C15.3679 13.1163 16 11.5902 16 9.99886C16 8.40756 15.3679 6.88143 14.2426 5.75622C13.1174 4.631 11.5913 3.99886 10 3.99886ZM2 9.99886C2.00018 8.72572 2.30422 7.471 2.88684 6.339C3.46946 5.20699 4.31384 4.23038 5.3498 3.49034C6.38577 2.7503 7.5834 2.26819 8.84315 2.08409C10.1029 1.89998 11.3884 2.0192 12.5928 2.43183C13.7973 2.84446 14.8858 3.53859 15.768 4.45652C16.6502 5.37446 17.3006 6.48969 17.6651 7.70953C18.0296 8.92938 18.0977 10.2186 17.8638 11.4701C17.6298 12.7215 17.1006 13.8991 16.32 14.9049L21.707 20.2919C21.8892 20.4805 21.99 20.7331 21.9877 20.9953C21.9854 21.2575 21.8802 21.5083 21.6948 21.6937C21.5094 21.8791 21.2586 21.9843 20.9964 21.9865C20.7342 21.9888 20.4816 21.888 20.293 21.7059L14.906 16.3189C13.7235 17.237 12.307 17.8048 10.8178 17.9578C9.32851 18.1109 7.82619 17.8429 6.48165 17.1845C5.1371 16.5261 4.00429 15.5036 3.21202 14.2333C2.41976 12.9631 1.99983 11.496 2 9.99886Z" fill="#7E7E7E"/>
</svg>
