<svg width="155" height="96" viewBox="0 0 155 96" fill="none" xmlns="http://www.w3.org/2000/svg">
<path d="M128.972 29.5895C127.688 29.3968 126.376 29.5181 125.148 29.9432C123.921 30.3682 122.815 31.0843 121.925 32.0301C119.056 34.9095 107.116 45.4234 107.116 45.4234L89.796 41.9571L87.3718 49.7013C87.3718 49.7013 107.829 56.0634 109.31 55.5149C110.791 54.9665 121.925 47.4581 121.925 47.4581L128.972 29.5895Z" fill="#91AF93"/>
<path d="M111.548 2.91976L28.1633 14.2383L37.212 80.9005L120.597 69.5819L111.548 2.91976Z" fill="#EBEBEB"/>
<path d="M111.552 2.89438L111.152 2.95471L109.989 3.12473L105.47 3.75545L88.4131 6.10833L28.1927 14.3352L28.3189 14.1706C31.0173 34.0137 34.1161 56.7582 37.3903 80.8244L37.2094 80.6873L120.575 69.3891L120.459 69.5426L113.971 21.1799C113.198 15.3553 112.589 10.7866 112.172 7.67142C111.969 6.11381 111.81 4.92915 111.706 4.10646C111.602 3.28378 111.552 2.87793 111.552 2.87793C111.552 2.87793 111.618 3.2783 111.728 4.07356C111.838 4.86882 112.008 6.06445 112.227 7.60561C112.655 10.7154 113.286 15.284 114.092 21.0757C115.688 32.7303 117.98 49.4034 120.739 69.5207V69.6578H120.602L37.2368 81.0108H37.0722V80.8463C33.8089 56.7746 30.7266 34.0302 28.0337 14.1871V14.0445H28.1763L88.5064 5.92734L105.541 3.65125L110.039 3.05892L111.19 2.91084L111.552 2.89438Z" fill="#263238"/>
<path d="M108.44 8.77302L30.9854 18.9438L38.63 77.1612L116.085 66.9903L108.44 8.77302Z" fill="#91AF93"/>
<path d="M39.531 76.2916L61.6886 36.397L81.5372 56.7776L91.2668 43.1155L117.055 65.7613L39.531 76.2916Z" fill="#91AF93"/>
<path d="M84.9756 28.7192C85.1393 29.9265 84.9413 31.1552 84.4066 32.2499C83.8719 33.3447 83.0246 34.2562 81.9717 34.8693C80.9189 35.4824 79.7079 35.7695 78.4919 35.6943C77.2759 35.619 76.1095 35.1848 75.1403 34.4466C74.1711 33.7084 73.4426 32.6993 73.0469 31.547C72.6513 30.3947 72.6063 29.1509 72.9176 27.973C73.2289 26.7951 73.8826 25.736 74.7959 24.9297C75.7093 24.1233 76.8412 23.606 78.0486 23.443C79.6667 23.2247 81.3054 23.6578 82.6043 24.6472C83.9032 25.6365 84.7562 27.1012 84.9756 28.7192Z" fill="#91AF93"/>
<g opacity="0.2">
<path d="M39.5291 76.2935L61.6867 36.3989L81.5352 56.7795L91.2648 43.1175L117.053 65.7632L39.5291 76.2935Z" fill="black"/>
</g>
<g opacity="0.2">
<path d="M84.9722 28.7143C85.1359 29.9216 84.9379 31.1503 84.4032 32.245C83.8685 33.3398 83.0211 34.2514 81.9683 34.8645C80.9155 35.4775 79.7045 35.7646 78.4885 35.6894C77.2725 35.6141 76.1061 35.1799 75.1369 34.4417C74.1676 33.7035 73.4391 32.6944 73.0435 31.5421C72.6479 30.3898 72.6029 29.146 72.9142 27.9681C73.2255 26.7902 73.8792 25.7312 74.7925 24.9248C75.7058 24.1185 76.8378 23.6011 78.0452 23.4382C79.6633 23.2198 81.302 23.6529 82.6009 24.6423C83.8998 25.6316 84.7527 27.0963 84.9722 28.7143Z" fill="black"/>
</g>
<path d="M148.656 38.2325C149.446 32.8083 146.928 31.1026 142.974 29.4573C138.038 27.4115 128.626 28.4317 125.423 31.2946L121.804 42.0224C120.284 43.7939 120.526 46.4978 121.403 48.6642C122.281 50.8306 123.696 52.7721 124.348 55.0098C125.615 59.3481 124.727 63.1818 124.425 67.6846C124.359 68.7267 123.559 70.6462 124.326 71.3483C125.094 72.0503 126.098 72.0174 127.069 71.979C134.635 71.6696 142.055 69.7927 148.859 66.467C146.276 61.2567 143.429 55.2237 145.091 51.2309C146.807 47.0604 148.004 42.6949 148.656 38.2325Z" fill="#91AF93"/>
<path d="M114.502 49.3248L112.056 57.6503C112.056 57.6503 124.829 62.2958 131.745 62.2135C138.228 62.1312 140.082 61.3963 142.363 56.1805C144.645 50.9647 147.234 44.9317 147.777 41.4709C148.164 40.3229 148.44 39.14 148.599 37.9389C149.548 30.8364 140.921 28.9661 139.643 36.0193L138.612 39.7981C138.612 39.7981 136.259 45.1181 136.149 45.4143C135.107 48.1566 133.303 52.5936 131.997 53.0927C130.692 53.5918 114.502 49.3248 114.502 49.3248Z" fill="#91AF93"/>
<path d="M145.689 49.7014C145.673 49.7693 145.651 49.8354 145.623 49.8989L145.398 50.4473C145.2 50.9464 144.893 51.6758 144.449 52.5973C143.922 53.7315 143.323 54.8307 142.656 55.888C141.78 57.2935 140.732 58.5834 139.535 59.7272C139.187 60.0491 138.82 60.3513 138.438 60.6321C138.033 60.9169 137.614 61.1805 137.182 61.4219L136.486 61.74L136.129 61.8936L135.751 61.9978L134.983 62.2117L134.177 62.3104C131.874 62.4382 129.565 62.2742 127.304 61.8223C122.116 60.8422 117.001 59.5045 111.997 57.8186L111.871 57.7747L111.909 57.643L112.216 56.59L114.35 49.3175L114.388 49.1859L114.52 49.2188C119.193 50.4692 123.613 51.5607 127.633 52.2956C128.643 52.4711 129.624 52.6247 130.579 52.7015C131.044 52.7481 131.512 52.7481 131.977 52.7015C132.084 52.6882 132.189 52.6625 132.29 52.6247C132.382 52.5918 132.46 52.5303 132.515 52.4492C132.65 52.2761 132.771 52.0928 132.877 51.9007C133.776 50.3486 134.467 48.8184 135.12 47.4473C136.403 44.705 137.385 42.4618 138.071 40.9316C138.405 40.1802 138.668 39.5879 138.855 39.1766C138.937 38.9846 139.008 38.8365 139.058 38.7213C139.107 38.6062 139.135 38.5678 139.14 38.5733C139.146 38.5787 139.14 38.6281 139.085 38.7323C139.03 38.8365 138.976 39.001 138.899 39.193L138.169 40.9261C137.517 42.4728 136.557 44.7105 135.295 47.4802C134.654 48.8623 133.979 50.387 133.102 51.9665C132.988 52.1711 132.859 52.3672 132.718 52.5534C132.637 52.6606 132.529 52.744 132.405 52.7947C132.289 52.8394 132.167 52.8688 132.043 52.8825C131.562 52.9346 131.076 52.9346 130.595 52.8825C129.624 52.8112 128.637 52.6576 127.628 52.4876C123.586 51.7691 119.165 50.6886 114.465 49.4436L114.635 49.3449L112.507 56.6229L112.2 57.6759L112.107 57.5004C117.096 59.1836 122.193 60.5249 127.365 61.5151C129.603 61.9701 131.89 62.1415 134.171 62.0252L134.955 61.9374L135.701 61.7345L136.069 61.6358L136.42 61.4822L137.1 61.1806C137.523 60.9478 137.933 60.6914 138.328 60.4127C138.71 60.1413 139.077 59.8483 139.425 59.5352C140.618 58.413 141.664 57.1453 142.54 55.7618C143.215 54.7243 143.826 53.6474 144.372 52.5369C144.833 51.6265 145.151 50.8916 145.37 50.4089L145.617 49.8605C145.635 49.8048 145.659 49.7514 145.689 49.7014Z" fill="#263238"/>
<path d="M123.723 39.9951C123.461 40.5185 123.164 41.0242 122.835 41.5089C122.073 42.6772 121.54 43.9802 121.266 45.348C121.095 46.7323 121.329 48.1367 121.941 49.3902C122.202 49.9139 122.433 50.4523 122.632 51.0026C122.526 50.8842 122.437 50.7512 122.369 50.6077C122.146 50.2401 121.943 49.8612 121.76 49.4724C121.475 48.8977 121.251 48.2948 121.091 47.6735C120.893 46.8995 120.855 46.0931 120.981 45.3042C121.261 43.8984 121.835 42.5676 122.665 41.3992C122.973 40.8988 123.327 40.4287 123.723 39.9951Z" fill="#263238"/>
<g opacity="0.2">
<path d="M124.853 61.2199C124.842 61.6955 124.935 62.1679 125.124 62.6044C125.313 63.0409 125.595 63.4311 125.95 63.7482C126.664 64.3793 127.517 64.8322 128.44 65.07C129.878 65.4769 131.385 65.5832 132.867 65.3823C134.348 65.1813 135.773 64.6773 137.051 63.9018C139.596 62.3497 141.329 59.5142 142.031 56.6348C142.031 56.6348 140.424 58.6586 139.365 59.7116C138.043 61.0454 136.298 61.8774 134.429 62.0645C131.21 62.5197 127.952 61.867 124.771 61.2144" fill="black"/>
</g>
<path d="M123.862 32.208C124.168 32.3294 124.465 32.4724 124.751 32.6358L126.994 33.8095L127.197 33.9192L126.999 34.0453C126.517 34.358 125.996 34.7035 125.447 35.0545C124.899 35.4055 124.46 35.6907 124.005 35.9759L123.796 36.113V35.8717C123.796 34.8022 123.796 33.8863 123.796 33.2391C123.778 32.894 123.8 32.548 123.862 32.208C123.932 32.5473 123.967 32.8928 123.966 33.2391C123.999 33.8863 124.032 34.7967 124.065 35.8662L123.851 35.7565L125.294 34.8187C125.842 34.4622 126.391 34.1276 126.862 33.815V34.0453C125.069 33.0471 123.813 32.2793 123.862 32.208Z" fill="#FAFAFA"/>
<path d="M117.759 37.6323C118.064 37.7567 118.36 37.8996 118.648 38.0601L120.891 39.2393L121.088 39.3435L120.896 39.4697L119.344 40.4843L117.902 41.4057L117.693 41.5373V41.296C117.693 40.232 117.693 39.3161 117.693 38.6689C117.675 38.322 117.697 37.9741 117.759 37.6323C117.828 37.9717 117.861 38.3172 117.858 38.6634C117.896 39.3106 117.929 40.2265 117.962 41.2905L117.748 41.1808L119.19 40.243L120.759 39.2393V39.4751C118.966 38.4769 117.71 37.7146 117.759 37.6323Z" fill="#FAFAFA"/>
<path d="M134.074 39.4927C134.07 39.1624 134.092 38.8323 134.14 38.5055C134.211 37.798 134.299 36.9478 134.398 35.9881V35.7632L134.59 35.9003L136.103 36.9643L137.497 37.957L137.699 38.1051L137.475 38.1983C136.487 38.6042 135.637 38.9442 135.034 39.1746C134.721 39.3207 134.391 39.4275 134.052 39.4927C134.339 39.3 134.646 39.14 134.968 39.0155C135.555 38.7413 136.389 38.3683 137.37 37.9186V38.1599L135.961 37.1672C135.412 36.7888 134.924 36.4213 134.447 36.0703L134.661 35.9771C134.403 38.0612 134.156 39.5091 134.074 39.4927Z" fill="#FAFAFA"/>
<path d="M123.301 45.9062C123.491 45.637 123.7 45.3822 123.927 45.1439L125.599 43.2407L125.753 43.0762L125.83 43.2956C126.022 43.844 126.23 44.4254 126.444 45.0396L126.992 46.685L127.069 46.9208L126.833 46.8605C125.797 46.6192 124.908 46.3998 124.283 46.2353C123.943 46.1722 123.612 46.0691 123.296 45.9281C123.64 45.9413 123.982 45.9891 124.316 46.0707C124.958 46.1914 125.852 46.3724 126.894 46.6192L126.74 46.8002C126.559 46.2901 126.367 45.7472 126.192 45.1548C126.016 44.5625 125.775 43.9482 125.588 43.3943L125.813 43.4436C124.398 44.9299 123.362 45.9665 123.301 45.9062Z" fill="#FAFAFA"/>
<path d="M131.724 46.7661C131.726 46.436 131.748 46.1064 131.79 45.7789C131.861 45.0659 131.949 44.2158 132.047 43.2615V43.0366L132.239 43.1682L133.759 44.2322L135.146 45.2304L135.349 45.373L135.124 45.4663C134.143 45.8721 133.292 46.2122 132.684 46.4425C132.369 46.5861 132.04 46.6946 131.702 46.7661C131.988 46.5724 132.295 46.4123 132.618 46.289C133.205 46.0147 134.044 45.6418 135.02 45.2195V45.4553L133.611 44.4626L132.102 43.3657L132.316 43.2725C132.053 45.3127 131.795 46.7771 131.724 46.7661Z" fill="#FAFAFA"/>
<path d="M128.73 51.8936C128.733 51.5635 128.755 51.2338 128.796 50.9063C128.873 50.1988 128.961 49.3487 129.054 48.3889V48.1641L129.24 48.3012L130.76 49.3597L132.153 50.3579L132.356 50.506L132.131 50.5992C131.144 51.0051 130.293 51.3396 129.685 51.57C129.372 51.7175 129.042 51.8262 128.703 51.8936C128.99 51.7024 129.297 51.5425 129.619 51.4164C130.211 51.1422 131.045 50.7692 132.021 50.3469V50.5828L130.617 49.5955L129.103 48.4986L129.317 48.4054C129.054 50.4676 128.818 51.8936 128.73 51.8936Z" fill="#FAFAFA"/>
<path d="M134.952 69.1694C134.947 68.8393 134.967 68.5093 135.012 68.1822C135.089 67.4692 135.177 66.6246 135.276 65.6648V65.4399L135.468 65.5716L136.981 66.6356L138.38 67.6338L138.583 67.7763L138.358 67.8696C137.371 68.2754 136.521 68.6155 135.917 68.8458C135.603 68.9885 135.273 69.097 134.936 69.1694C135.221 68.9752 135.529 68.8151 135.851 68.6923C136.438 68.418 137.272 68.0451 138.254 67.6228V67.8586L136.844 66.8714L135.33 65.7745L135.544 65.6867C135.276 67.738 135.034 69.1859 134.952 69.1694Z" fill="#FAFAFA"/>
<path d="M140.352 35.0542C140.351 34.724 140.373 34.3941 140.418 34.067C140.489 33.354 140.577 32.5039 140.675 31.5496V31.3247L140.867 31.4563L142.381 32.5203L143.774 33.5185L143.977 33.6611L143.752 33.7544C142.77 34.1602 141.92 34.5003 141.312 34.7306C140.997 34.8733 140.668 34.9818 140.33 35.0542C140.614 34.8579 140.922 34.6976 141.246 34.577C141.833 34.3028 142.672 33.9299 143.648 33.4801V33.7215L142.217 32.7507L140.708 31.6538L140.922 31.5605C140.681 33.6172 140.44 35.0652 140.352 35.0542Z" fill="#FAFAFA"/>
<path d="M126.863 41.1002C126.859 40.7699 126.881 40.4398 126.929 40.113C127.001 39.4 127.088 38.5499 127.187 37.5901V37.3652L127.379 37.5023L128.893 38.5664L130.286 39.5645L130.489 39.7071L130.264 39.8004C129.277 40.2062 128.427 40.5463 127.823 40.7766C127.509 40.9193 127.179 41.0278 126.842 41.1002C127.126 40.9032 127.434 40.7411 127.757 40.6176C128.344 40.3433 129.178 39.9759 130.16 39.5481V39.7894L128.75 38.7967L127.236 37.6998L127.45 37.6066C127.209 39.6633 126.962 41.1112 126.863 41.1002Z" fill="#FAFAFA"/>
<path d="M127.642 67.7422C127.645 67.4121 127.667 67.0825 127.708 66.755C127.779 66.0475 127.867 65.1974 127.965 64.2376V64.0127L128.157 64.1498L129.677 65.2138L131.064 66.2065L131.267 66.3546L131.042 66.4478C130.06 66.8537 129.21 67.1882 128.602 67.4186C128.29 67.5685 127.96 67.6773 127.62 67.7422C127.907 67.551 128.214 67.3911 128.536 67.265C129.123 66.9908 129.962 66.6178 130.938 66.1955V66.4314L129.528 65.4442L128.02 64.3472L128.234 64.254C127.96 66.3107 127.73 67.7586 127.642 67.7422Z" fill="#FAFAFA"/>
<path d="M142.076 45.4689C142.079 45.1388 142.101 44.8092 142.142 44.4817C142.214 43.7687 142.301 42.9185 142.4 41.9642V41.7339L142.587 41.871L144.106 42.935L145.499 43.9332L145.696 44.0758L145.477 44.169C144.49 44.5749 143.64 44.9149 143.031 45.1453C142.716 45.2889 142.387 45.3974 142.049 45.4689C142.334 45.2718 142.641 45.1098 142.965 44.9862C143.557 44.7175 144.391 44.3445 145.367 43.9167V44.1581L143.963 43.1654L142.449 42.0684L142.663 41.9752C142.406 44.0319 142.164 45.4798 142.076 45.4689Z" fill="#FAFAFA"/>
<path d="M135.828 57.8892C135.824 57.5589 135.846 57.2287 135.894 56.9019C135.965 56.189 136.053 55.3388 136.152 54.3845V54.1597L136.344 54.2913L137.858 55.3553L139.251 56.3535L139.454 56.4961L139.229 56.5893C138.242 56.9952 137.391 57.3352 136.788 57.5656C136.473 57.7083 136.144 57.8167 135.806 57.8892C136.094 57.698 136.401 57.5381 136.722 57.412C137.309 57.1378 138.143 56.7648 139.125 56.3425V56.5783L137.715 55.5911L136.201 54.4942L136.415 54.401C136.185 56.4577 135.911 57.9275 135.828 57.8892Z" fill="#FAFAFA"/>
<path d="M141.045 63.6432C141.04 63.3112 141.061 62.9794 141.106 62.6505C141.182 61.943 141.27 61.0929 141.369 60.1331V59.9082L141.561 60.0453L143.075 61.1093C143.563 61.4548 144.029 61.7949 144.468 62.102L144.671 62.2501L144.446 62.3433C143.459 62.7492 142.608 63.0892 142.005 63.3196C141.69 63.4623 141.361 63.5708 141.023 63.6432C141.306 63.443 141.614 63.2808 141.939 63.1606C142.526 62.8863 143.36 62.5134 144.342 62.0636V62.305L142.932 61.3123L141.418 60.2154L141.632 60.1221C141.369 62.2062 141.117 63.6542 141.045 63.6432Z" fill="#FAFAFA"/>
<path d="M137.472 51.5737C137.471 51.2435 137.493 50.9137 137.538 50.5865C137.609 49.8735 137.697 49.0234 137.796 48.0691V47.8442L137.988 47.9759L139.502 49.0399L140.895 50.0381L141.098 50.1807L140.873 50.2739C139.891 50.6798 139.041 51.0198 138.432 51.2501C138.117 51.3928 137.788 51.5013 137.45 51.5737C137.735 51.3774 138.042 51.2172 138.366 51.0966C138.953 50.8224 139.792 50.4494 140.769 49.9997V50.2355L139.359 49.2428L137.851 48.1459L138.065 48.0527C137.829 50.1423 137.56 51.5847 137.472 51.5737Z" fill="#FAFAFA"/>
<path d="M120.743 58.9668C120.738 58.6365 120.76 58.3064 120.809 57.9796C120.88 57.2666 120.968 56.422 121.066 55.4622V55.2373L121.258 55.3689L122.772 56.4329L124.165 57.4311L124.368 57.5737L124.143 57.667C123.156 58.0728 122.306 58.4129 121.703 58.6432C121.388 58.7859 121.059 58.8944 120.721 58.9668C121.008 58.7757 121.315 58.6157 121.637 58.4896C122.224 58.2154 123.057 57.8425 124.039 57.4202V57.656L122.63 56.6688L121.116 55.5719L121.33 55.4841C121.072 57.5353 120.825 58.9832 120.743 58.9668Z" fill="#FAFAFA"/>
<path d="M128.987 57.2305C128.99 56.9004 129.012 56.5708 129.053 56.2433C129.13 55.5357 129.217 54.6856 129.311 53.7258V53.501L129.503 53.6381L131.016 54.7021L132.409 55.6948L132.612 55.8429L132.388 55.9361C131.4 56.342 130.55 56.6765 129.941 56.9069C129.629 57.0544 129.299 57.1631 128.96 57.2305C129.247 57.0393 129.554 56.8794 129.876 56.7533C130.468 56.4791 131.302 56.1061 132.283 55.6564L132.256 55.8922L130.852 54.905L129.338 53.8081L129.552 53.7149C129.316 55.799 129.053 57.2469 128.987 57.2305Z" fill="#FAFAFA"/>
<path d="M114.64 55.2666C114.643 54.9365 114.665 54.6069 114.706 54.2794C114.777 53.5719 114.865 52.7218 114.964 51.762V51.5371L115.156 51.6742L116.669 52.7327L118.062 53.7309L118.265 53.879L118.041 53.9722C117.059 54.3781 116.209 54.7127 115.6 54.943C115.287 55.0897 114.957 55.1983 114.618 55.2666C114.906 55.0755 115.213 54.9155 115.534 54.7894C116.121 54.5152 116.96 54.1423 117.936 53.72V53.9558L116.527 52.9686L115.019 51.8717L115.232 51.7784C114.969 53.8351 114.728 55.2831 114.64 55.2666Z" fill="#FAFAFA"/>
<path d="M146.982 39.3504C146.657 39.295 146.338 39.2125 146.027 39.1036L143.598 38.3851L143.384 38.3193L143.548 38.1603L144.876 36.8659L146.11 35.6813L146.291 35.5112L146.34 35.7471C146.559 36.7946 146.735 37.6886 146.85 38.3303C146.932 38.6643 146.977 39.0065 146.982 39.3504C146.847 39.0331 146.748 38.7021 146.685 38.3632C146.521 37.738 146.313 36.844 146.077 35.8074L146.307 35.8732C145.918 36.2462 145.506 36.652 145.073 37.0743L143.729 38.3577L143.68 38.1328C145.638 38.7636 147.015 39.2791 146.982 39.3504Z" fill="#FAFAFA"/>
<path d="M110.477 55.4641C108.544 55.3087 106.622 55.045 104.718 54.6743C102.376 54.1258 102.415 53.8955 102.524 53.6322C102.81 52.9192 106.682 54.4714 106.029 53.6322C105.376 52.7931 101.093 52.294 101.417 51.5645C101.839 50.6102 105.87 52.3104 106.216 52.4311C106.561 52.5518 106.737 52.0417 106.418 51.9485C105.952 51.8223 101.126 50.3415 101.537 49.4036C101.762 48.8552 102.634 49.4036 102.634 49.4036C102.634 49.4036 107.055 51.1258 107.236 50.676C107.417 50.2263 104.85 49.1184 103.945 48.8113C103.04 48.5042 102.848 47.9612 103.292 47.6815C103.594 47.4895 106.342 48.367 107.214 48.6961C108.086 49.0252 110.472 49.9576 109.649 48.5316C108.826 47.1056 108.76 45.7235 108.98 45.3122C109.199 44.9008 109.835 45.1037 109.89 45.6138C110.002 46.1572 110.186 46.683 110.439 47.1769C110.628 47.581 110.882 47.9515 111.19 48.2738C111.459 48.5535 111.706 48.7894 111.931 48.9978L113.888 50.8406L112.528 55.6341L110.477 55.4641Z" fill="#FFBE9D"/>
<path d="M135.04 3.43166C134.343 2.33475 132.884 1.90148 131.557 1.91793C129.714 1.99189 127.948 2.67979 126.541 3.8723C125.134 5.0648 124.166 6.69347 123.791 8.49939C123.528 9.9857 123.681 11.5488 123.242 12.9803C122.844 13.9997 122.312 14.9622 121.663 15.8432C121.011 16.7227 120.558 17.7332 120.335 18.8049C120.232 19.3434 120.279 19.9002 120.473 20.4133C120.667 20.9264 120.999 21.3759 121.432 21.7117C120.891 22.2602 120.537 22.9668 120.423 23.7293C120.309 24.4919 120.44 25.271 120.798 25.954C121.156 26.6371 121.721 27.1887 122.413 27.5293C123.105 27.8699 123.887 27.9818 124.646 27.8489C125.442 27.7118 126.292 27.3004 127.016 27.6953C127.351 27.9263 127.649 28.2074 127.899 28.529C128.996 29.6533 130.827 29.8343 132.286 29.2694C133.736 28.6257 134.951 27.549 135.764 26.1871C135.994 25.8415 136.312 25.4357 136.707 25.4741C136.943 25.5325 137.159 25.6538 137.332 25.8251C138.057 26.3968 138.97 26.6764 139.891 26.609C140.812 26.5416 141.674 26.132 142.308 25.4608C142.942 24.7896 143.302 23.9054 143.317 22.9822C143.332 22.0589 143.001 21.1636 142.389 20.4722C143.04 20.2645 143.632 19.9036 144.115 19.4197C144.598 18.9359 144.958 18.3432 145.164 17.6915C145.558 16.3749 145.504 14.9649 145.011 13.6823C144.319 11.7792 142.948 10.2215 141.605 8.71329C140.376 7.3257 140.014 5.19221 138.786 3.8101C138.229 3.04329 137.415 2.50214 136.493 2.28539C135.576 2.20777 134.657 2.41255 133.86 2.87224" fill="#263238"/>
<path d="M132.278 4.09082C133.187 4.09077 134.086 4.27086 134.925 4.62067C135.763 4.97048 136.524 5.48306 137.163 6.12877C137.802 6.77448 138.307 7.54049 138.648 8.38251C138.989 9.22452 139.16 10.1258 139.15 11.0343L138.925 29.8189C138.9 30.4044 138.757 30.979 138.507 31.5092C138.257 32.0393 137.904 32.5145 137.469 32.907C137.034 33.2995 136.525 33.6014 135.972 33.7954C135.418 33.9893 134.832 34.0712 134.247 34.0365C131.658 33.9816 129.552 31.9798 129.547 29.5611C129.547 27.0217 129.481 24.3508 129.481 24.3508C129.481 24.3508 126.19 23.8023 125.538 19.5408C125.362 18.4439 125.351 14.5334 125.384 10.9026C125.4 9.0905 126.131 7.35801 127.418 6.08225C128.705 4.80649 130.444 4.09075 132.256 4.09082H132.278Z" fill="#FFBE9D"/>
<path d="M126.38 13.5019C126.38 13.6474 126.438 13.7869 126.541 13.8897C126.643 13.9926 126.783 14.0504 126.928 14.0504C127.065 14.0511 127.197 14.0009 127.298 13.9096C127.399 13.8183 127.463 13.6925 127.477 13.5568C127.477 13.4113 127.419 13.2718 127.316 13.1689C127.213 13.0661 127.074 13.0083 126.928 13.0083C126.792 13.0076 126.66 13.0578 126.559 13.1491C126.457 13.2404 126.394 13.3662 126.38 13.5019Z" fill="#263238"/>
<path d="M126.26 12.9079C126.326 12.9792 126.742 12.6721 127.357 12.6721C127.971 12.6721 128.377 12.9683 128.454 12.897C128.53 12.8257 128.415 12.7379 128.229 12.6008C127.972 12.4243 127.668 12.3305 127.357 12.3321C127.051 12.3308 126.754 12.4269 126.507 12.6063C126.309 12.7434 126.227 12.875 126.26 12.9079Z" fill="#263238"/>
<path d="M132.273 13.5019C132.273 13.6474 132.331 13.7869 132.434 13.8897C132.537 13.9926 132.676 14.0504 132.822 14.0504C132.89 14.0548 132.959 14.0455 133.024 14.0229C133.089 14.0004 133.149 13.9651 133.2 13.9191C133.251 13.8731 133.292 13.8174 133.322 13.7551C133.351 13.6929 133.367 13.6255 133.37 13.5568C133.37 13.4113 133.312 13.2718 133.209 13.1689C133.107 13.0661 132.967 13.0083 132.822 13.0083C132.685 13.0076 132.553 13.0578 132.452 13.1491C132.351 13.2404 132.287 13.3662 132.273 13.5019Z" fill="#263238"/>
<path d="M132.047 13.0124C132.118 13.0837 132.529 12.7766 133.144 12.7766C133.758 12.7766 134.164 13.0728 134.241 13.0015C134.317 12.9302 134.208 12.8424 134.016 12.7053C133.761 12.5286 133.459 12.4347 133.149 12.4365C132.842 12.4353 132.543 12.5313 132.294 12.7108C132.08 12.8479 132.014 12.9795 132.047 13.0124Z" fill="#263238"/>
<path d="M129.917 17.3798C129.604 17.286 129.282 17.2289 128.957 17.2097C128.809 17.2097 128.666 17.1604 128.639 17.0616C128.627 16.9046 128.663 16.7477 128.743 16.6119C128.88 16.2499 129.028 15.8715 129.187 15.4711C129.597 14.5003 129.93 13.4991 130.185 12.4766C129.694 13.4102 129.279 14.3824 128.946 15.3834L128.518 16.5351C128.425 16.7158 128.398 16.9234 128.441 17.122C128.463 17.175 128.496 17.2224 128.539 17.2605C128.582 17.2985 128.633 17.3262 128.688 17.3414C128.772 17.366 128.858 17.3789 128.946 17.3798C129.268 17.4214 129.594 17.4214 129.917 17.3798Z" fill="#263238"/>
<path d="M129.504 24.3509C131.513 24.3827 133.492 23.8547 135.219 22.8262C135.219 22.8262 133.836 25.7549 129.564 25.36L129.504 24.3509Z" fill="#EB996E"/>
<path d="M130.149 18.7976C130.263 18.6585 130.41 18.5497 130.576 18.4808C130.743 18.4119 130.924 18.3851 131.103 18.4027C131.232 18.4153 131.358 18.4538 131.472 18.516C131.586 18.5782 131.686 18.6628 131.767 18.7647C131.847 18.861 131.895 18.98 131.904 19.105C131.912 19.23 131.882 19.3546 131.816 19.4612C131.722 19.5681 131.598 19.6442 131.46 19.6794C131.322 19.7146 131.176 19.7074 131.043 19.6587C130.764 19.5616 130.508 19.4086 130.291 19.2089C130.224 19.1618 130.166 19.1022 130.121 19.0334C130.101 19.0005 130.09 18.9625 130.09 18.9237C130.09 18.885 130.101 18.847 130.121 18.814" fill="#EB996E"/>
<path d="M131.647 17.7861C131.548 17.7861 131.548 18.4223 131 18.883C130.451 19.3437 129.771 19.267 129.766 19.3547C129.76 19.4425 129.919 19.4809 130.21 19.4863C130.583 19.491 130.946 19.3649 131.236 19.1298C131.514 18.9007 131.693 18.5723 131.735 18.2139C131.762 17.9452 131.691 17.7861 131.647 17.7861Z" fill="#263238"/>
<path d="M132.025 11.3638C132.08 11.5228 132.672 11.4515 133.363 11.5338C134.054 11.6161 134.608 11.8025 134.701 11.6599C134.795 11.5174 134.647 11.4406 134.422 11.287C134.121 11.0943 133.779 10.9742 133.423 10.936C133.071 10.8931 132.713 10.9364 132.381 11.0621C132.124 11.1609 131.998 11.3089 132.025 11.3638Z" fill="#263238"/>
<path d="M126.474 11.201C126.578 11.3326 126.984 11.201 127.472 11.201C127.96 11.201 128.372 11.2888 128.47 11.1516C128.569 11.0145 128.443 10.9487 128.268 10.8226C128.025 10.6711 127.743 10.5949 127.457 10.6037C127.171 10.6125 126.894 10.7058 126.661 10.8719C126.485 10.9981 126.43 11.1352 126.474 11.201Z" fill="#263238"/>
<path d="M140.691 10.9188C140.389 8.33561 139.172 5.73045 136.95 4.37028C135.009 3.17465 133.018 2.90591 131.087 3.95894C130.274 3.84709 129.446 3.91644 128.663 4.16202C127.88 4.4076 127.161 4.82333 126.557 5.37944C125.313 6.57125 124.535 8.16796 124.363 9.88225C124.205 11.5896 124.471 13.3096 125.137 14.8896L125.466 10.5678C127.659 9.62448 130.106 7.76522 130.95 5.50558C131.38 7.03092 132.204 8.4162 133.339 9.52233C134.474 10.6285 135.881 11.4165 137.416 11.8073C137.21 13.0713 137.336 14.3672 137.781 15.568C138.226 16.7688 138.975 17.8334 139.956 18.6575C140.493 16.1127 140.992 13.5021 140.691 10.9188Z" fill="#263238"/>
<path d="M137.866 13.4981C138.2 15.1435 137.63 16.8327 137.213 18.4671C136.796 20.1015 136.544 21.9389 137.422 23.4032C137.739 23.7733 137.944 24.226 138.014 24.7086C137.922 25.1329 137.773 25.5426 137.57 25.9261C137.478 26.314 137.511 26.7209 137.663 27.089C137.816 27.4572 138.081 27.768 138.42 27.9773C139.117 28.3826 139.945 28.5025 140.729 28.3119C141.494 28.113 142.231 27.8182 142.923 27.4344L145.001 26.4033C145.317 26.2646 145.611 26.0797 145.873 25.8548C146.275 25.427 146.539 24.888 146.63 24.3082C147.077 22.0646 146.687 19.735 145.533 17.7596C144.436 15.7852 144.919 12.5109 143.005 11.2988" fill="#263238"/>
<path d="M143.955 26.702C144.34 26.6079 144.709 26.4602 145.052 26.2632C145.509 25.9726 145.895 25.5823 146.18 25.1217C146.464 24.661 146.642 24.1419 146.698 23.6032C146.759 22.8522 146.631 22.0978 146.325 21.4094C146.153 21.0318 145.94 20.6749 145.688 20.3454C145.42 20.0053 145.14 19.6872 144.789 19.3527C144.449 19.0109 144.136 18.6442 143.851 18.2558C143.555 17.8323 143.366 17.3427 143.303 16.8298C143.176 15.7768 143.571 14.7402 143.401 13.7365C143.317 13.2445 143.046 12.8043 142.644 12.508C142.237 12.2231 141.787 12.0046 141.312 11.8608C140.367 11.6006 139.466 11.1994 138.641 10.6706C137.278 9.74617 136.049 8.63891 134.988 7.3799C134.067 6.3159 133.398 5.39999 132.942 4.76378C132.717 4.44019 132.547 4.21532 132.432 4.01788C132.37 3.93225 132.317 3.84034 132.273 3.74365C132.273 3.74365 132.355 3.82043 132.482 3.98497L133.03 4.69796C133.513 5.31223 134.204 6.20621 135.136 7.24279C136.201 8.47642 137.423 9.56441 138.772 10.4787C139.587 10.9849 140.47 11.371 141.394 11.6249C141.901 11.7759 142.381 12.0073 142.815 12.3105C143.272 12.6476 143.58 13.149 143.676 13.7091C143.851 14.806 143.451 15.859 143.577 16.8243C143.703 17.7896 144.372 18.5355 144.997 19.1936C145.317 19.5177 145.619 19.8582 145.902 20.2138C146.164 20.5611 146.383 20.9386 146.555 21.3381C146.871 22.0584 146.993 22.8485 146.911 23.6306C146.84 24.2759 146.596 24.89 146.204 25.4076C145.909 25.7999 145.535 26.1267 145.107 26.3674C144.839 26.5135 144.551 26.6189 144.251 26.68C144.154 26.699 144.055 26.7064 143.955 26.702Z" fill="#455A64"/>
<path d="M142.637 9.89312C142.484 9.88412 142.332 9.85271 142.187 9.79988C141.782 9.68816 141.383 9.55451 140.992 9.39952C138.39 8.38869 136.051 6.80029 134.153 4.7541C133.796 4.35921 133.516 4.02465 133.341 3.78881C133.165 3.55298 133.072 3.41038 133.089 3.39941C133.513 3.78227 133.918 4.18683 134.301 4.6115C136.249 6.55538 138.544 8.11626 141.069 9.21303C142.034 9.66277 142.654 9.84925 142.637 9.89312Z" fill="#455A64"/>
<path d="M127.637 3.29801C127.637 3.27059 127.835 3.03475 128.263 2.74956C128.828 2.34379 129.498 2.11129 130.193 2.08044C130.583 2.07029 130.97 2.15104 131.323 2.31628C131.61 2.45732 131.861 2.66173 132.058 2.91409C132.157 3.02144 132.234 3.14758 132.284 3.2851C132.334 3.42262 132.356 3.56873 132.349 3.71484C132.218 3.47972 132.067 3.25591 131.899 3.04573C131.681 2.81659 131.417 2.63719 131.123 2.51981C130.83 2.40243 130.514 2.34984 130.199 2.36564C129.553 2.39825 128.924 2.58641 128.367 2.91409C128.138 3.06813 127.894 3.19686 127.637 3.29801Z" fill="#455A64"/>
<path d="M154.782 66.65L118.342 61.9541L114.587 91.0875L151.028 95.7834L154.782 66.65Z" fill="#F5F5F5"/>
<path d="M153.248 68.3194L119.366 63.9531L116.084 89.4185L149.966 93.7847L153.248 68.3194Z" fill="#EBEBEB"/>
<path d="M116.071 89.4308L129.946 75.1279L136.001 85.9812L141.654 81.3231L149.952 93.8032L116.071 89.4308Z" fill="#E0E0E0"/>
<path d="M140.639 74.5369C140.568 75.0638 140.343 75.5579 139.992 75.957C139.64 76.3561 139.179 76.6423 138.665 76.7796C138.152 76.9169 137.609 76.8992 137.105 76.7286C136.602 76.558 136.16 76.2422 135.836 75.821C135.511 75.3998 135.319 74.892 135.283 74.3616C135.246 73.8312 135.368 73.3019 135.632 72.8404C135.896 72.3789 136.29 72.0059 136.766 71.7683C137.241 71.5307 137.777 71.4391 138.304 71.5052C138.657 71.5494 138.998 71.6631 139.307 71.8397C139.616 72.0164 139.887 72.2525 140.104 72.5344C140.321 72.8162 140.48 73.1383 140.572 73.4821C140.664 73.8258 140.686 74.1843 140.639 74.5369Z" fill="#E0E0E0"/>
<path d="M72.6515 0.249023H0.223633V72.6769H72.6515V0.249023Z" fill="#F5F5F5"/>
<path d="M72.6485 72.6796C72.6485 71.9824 72.6159 43.6707 72.5686 0.251797L72.6485 0.335327H0.231598L0.326011 0.240903C0.326011 26.7513 0.326011 51.6202 0.326011 72.6687L0.246116 72.5852L72.6703 72.6687L0.246116 72.7486H0.162598V72.6687C0.162598 51.6057 0.162598 26.7622 0.162598 0.240903V0.146484H0.264281H72.6812H72.7647V0.226379C72.6812 43.6707 72.6485 71.9824 72.6485 72.6796Z" fill="#263238"/>
<path d="M66.1543 68.3626C66.8766 68.2691 67.6056 68.2375 68.3332 68.2682L68.2388 68.3626V67.9304C68.2388 67.7924 68.2388 67.6581 68.2388 67.5237C68.2388 67.284 68.2388 67.0552 68.257 66.8301C68.2464 66.6147 68.2696 66.399 68.326 66.1909C68.3775 66.3999 68.3995 66.615 68.3913 66.8301C68.3913 67.0552 68.3913 67.284 68.4131 67.5237C68.4131 67.6581 68.4131 67.7924 68.4131 67.9304V68.3626L68.3187 68.457C67.5959 68.489 66.8716 68.4574 66.1543 68.3626Z" fill="#455A64"/>
<path d="M57.0098 68.362C58.5312 68.2361 60.0605 68.2361 61.5819 68.362C60.0605 68.4879 58.5312 68.4879 57.0098 68.362Z" fill="#455A64"/>
<path d="M47.8669 68.362C49.3884 68.2361 50.9176 68.2361 52.4391 68.362C50.9176 68.4879 49.3884 68.4879 47.8669 68.362Z" fill="#455A64"/>
<path d="M38.7209 68.362C40.2424 68.2361 41.7716 68.2361 43.2931 68.362C41.7716 68.4879 40.2424 68.4879 38.7209 68.362Z" fill="#455A64"/>
<path d="M29.5784 68.362C31.0998 68.2361 32.6291 68.2361 34.1505 68.362C32.6291 68.4879 31.0998 68.4879 29.5784 68.362Z" fill="#455A64"/>
<path d="M20.4338 68.362C21.9553 68.2361 23.4845 68.2361 25.006 68.362C23.4845 68.4879 21.9553 68.4879 20.4338 68.362Z" fill="#455A64"/>
<path d="M11.2896 68.3615C12.0484 68.2682 12.8135 68.2366 13.5774 68.2671C14.3402 68.2367 15.1041 68.2682 15.8617 68.3615C15.1043 68.457 14.3402 68.4886 13.5774 68.456C12.8135 68.4887 12.0482 68.4571 11.2896 68.3615Z" fill="#455A64"/>
<path d="M4.54028 66.1812C4.63355 66.9035 4.66515 67.6324 4.6347 68.3601L4.54028 68.2657H5.39006L6.08005 68.2875C6.29511 68.2793 6.51026 68.3013 6.71921 68.3528C6.51109 68.4091 6.2954 68.4324 6.08005 68.4218L5.39006 68.44L4.99422 68.469H4.55481L4.46038 68.3746C4.42429 67.6425 4.45102 66.9087 4.54028 66.1812Z" fill="#455A64"/>
<path d="M4.53909 57.0366C4.63247 57.7954 4.66405 58.5606 4.63351 59.3245C4.66414 60.0872 4.63256 60.8512 4.53909 61.6088C4.44562 60.8512 4.41404 60.0872 4.44466 59.3245C4.41413 58.5606 4.44571 57.7954 4.53909 57.0366Z" fill="#455A64"/>
<path d="M4.53909 47.8921C4.63247 48.6509 4.66405 49.4161 4.63351 50.18C4.66414 50.9427 4.63256 51.7066 4.53909 52.4642C4.44562 51.7066 4.41404 50.9427 4.44466 50.18C4.41413 49.4161 4.44571 48.6509 4.53909 47.8921Z" fill="#455A64"/>
<path d="M4.53909 38.7563C4.63256 39.5139 4.66414 40.2779 4.63351 41.0406C4.66405 41.8045 4.63247 42.5697 4.53909 43.3285C4.44571 42.5697 4.41413 41.8045 4.44466 41.0406C4.41404 40.2779 4.44562 39.5139 4.53909 38.7563Z" fill="#455A64"/>
<path d="M4.53909 29.6133C4.63256 30.3709 4.66414 31.1348 4.63351 31.8975C4.66405 32.6615 4.63247 33.4266 4.53909 34.1854C4.44571 33.4266 4.41413 32.6615 4.44466 31.8975C4.41404 31.1348 4.44562 30.3709 4.53909 29.6133Z" fill="#455A64"/>
<path d="M4.53904 20.4624C4.63235 21.22 4.66393 21.9839 4.63346 22.7467C4.664 23.5106 4.63242 24.2757 4.53904 25.0345C4.44566 24.2757 4.41408 23.5106 4.44461 22.7467C4.41415 21.9839 4.44573 21.22 4.53904 20.4624Z" fill="#455A64"/>
<path d="M4.53904 11.3198C4.63235 12.0774 4.66393 12.8414 4.63346 13.6041C4.664 14.368 4.63242 15.1331 4.53904 15.892C4.44566 15.1331 4.41408 14.368 4.44461 13.6041C4.41415 12.8414 4.44573 12.0774 4.53904 11.3198Z" fill="#455A64"/>
<path d="M6.71559 4.55523C5.99328 4.64851 5.26433 4.68009 4.53665 4.64965L4.62744 4.55523V4.98738C4.62744 5.12538 4.62744 5.25975 4.62744 5.39412C4.62744 5.6338 4.62745 5.86259 4.60929 6.08775C4.61765 6.30302 4.5944 6.51836 4.54029 6.7269C4.4865 6.51834 4.46445 6.30287 4.47491 6.08775C4.47491 5.86259 4.47491 5.6338 4.45312 5.39412C4.45312 5.25975 4.45312 5.12538 4.45312 4.98738C4.45312 4.91475 4.45312 4.84212 4.45312 4.76949V4.55523L4.54755 4.46081C5.2716 4.42882 5.99706 4.46041 6.71559 4.55523Z" fill="#455A64"/>
<path d="M15.8617 4.55369C15.1041 4.647 14.3402 4.67858 13.5774 4.64811C12.8135 4.67865 12.0484 4.64707 11.2896 4.55369C12.0482 4.45813 12.8135 4.42655 13.5774 4.45927C14.3402 4.42663 15.1043 4.45821 15.8617 4.55369Z" fill="#455A64"/>
<path d="M25.006 4.55633C23.4845 4.68222 21.9553 4.68222 20.4338 4.55633C21.9553 4.43044 23.4845 4.43044 25.006 4.55633Z" fill="#455A64"/>
<path d="M34.1505 4.55633C32.6291 4.68222 31.0998 4.68222 29.5784 4.55633C31.0998 4.43044 32.6291 4.43044 34.1505 4.55633Z" fill="#455A64"/>
<path d="M43.2931 4.55633C41.7716 4.68222 40.2424 4.68222 38.7209 4.55633C40.2424 4.43044 41.7716 4.43044 43.2931 4.55633Z" fill="#455A64"/>
<path d="M52.4391 4.55633C50.9176 4.68222 49.3884 4.68222 47.8669 4.55633C49.3884 4.43044 50.9176 4.43044 52.4391 4.55633Z" fill="#455A64"/>
<path d="M61.5819 4.55633C60.0605 4.68222 58.5312 4.68222 57.0098 4.55633C58.5312 4.43044 60.0605 4.43044 61.5819 4.55633Z" fill="#455A64"/>
<path d="M68.3332 6.73505C68.2378 6.01293 68.2062 5.28379 68.2388 4.55612C68.4277 4.74496 68.2897 4.60696 68.3296 4.65053H67.4834L66.7898 4.62875C66.576 4.63679 66.362 4.61479 66.1543 4.56338C66.3616 4.50926 66.5757 4.48601 66.7898 4.49438H67.4834H67.8938H68.3296C68.3732 4.53433 68.2388 4.39996 68.4276 4.5888C68.4562 5.3056 68.4247 6.02353 68.3332 6.73505Z" fill="#455A64"/>
<path d="M68.3327 15.892C68.2372 15.1333 68.2056 14.368 68.2383 13.6041C68.2057 12.8414 68.2373 12.0772 68.3327 11.3198C68.4261 12.0774 68.4576 12.8414 68.4272 13.6041C68.4577 14.368 68.4261 15.1331 68.3327 15.892Z" fill="#455A64"/>
<path d="M68.3328 25.0345C68.2372 24.2759 68.2056 23.5106 68.2384 22.7467C68.2056 21.9839 68.2372 21.2198 68.3328 20.4624C68.4263 21.22 68.4578 21.9839 68.4272 22.7467C68.4577 23.5106 68.4262 24.2757 68.3328 25.0345Z" fill="#455A64"/>
<path d="M68.3328 34.1791C68.2372 33.4204 68.2056 32.6551 68.2384 31.8912C68.2056 31.1285 68.2372 30.3643 68.3328 29.6069C68.4263 30.3645 68.4578 31.1285 68.4272 31.8912C68.4577 32.6551 68.4262 33.4203 68.3328 34.1791Z" fill="#455A64"/>
<path d="M68.3328 43.3285C68.2372 42.5698 68.2056 41.8045 68.2384 41.0406C68.2056 40.2779 68.2372 39.5138 68.3328 38.7563C68.4263 39.5139 68.4578 40.2779 68.4272 41.0406C68.4577 41.8045 68.4262 42.5697 68.3328 43.3285Z" fill="#455A64"/>
<path d="M68.3328 52.4642C68.2372 51.7068 68.2056 50.9427 68.2384 50.18C68.2056 49.4161 68.2372 48.6507 68.3328 47.8921C68.4262 48.6509 68.4577 49.4161 68.4272 50.18C68.4578 50.9427 68.4263 51.7066 68.3328 52.4642Z" fill="#455A64"/>
<path d="M68.3328 61.6088C68.2372 60.8513 68.2056 60.0872 68.2384 59.3245C68.2056 58.5606 68.2372 57.7953 68.3328 57.0366C68.4262 57.7954 68.4577 58.5606 68.4272 59.3245C68.4578 60.0872 68.4263 60.8512 68.3328 61.6088Z" fill="#455A64"/>
<path d="M33.3192 24.1825C33.1967 24.1817 33.0747 24.1658 32.9561 24.1352C32.6002 24.0525 32.276 23.8683 32.0228 23.605C31.8148 23.4021 31.6547 23.1553 31.5542 22.8826C31.4537 22.61 31.4153 22.3183 31.4417 22.0289C31.4866 21.6633 31.6484 21.322 31.9029 21.0557C32.1836 20.7466 32.5754 20.5611 32.9924 20.54L32.9198 20.6126C32.8757 20.0713 33.0165 19.531 33.3192 19.0801C33.5038 18.846 33.7582 18.6768 34.0455 18.5971C34.3489 18.5262 34.6646 18.5262 34.968 18.5971L34.8663 18.6915C34.8327 18.3528 34.8812 18.011 35.0076 17.6949C35.1341 17.3789 35.3347 17.0979 35.5926 16.8758C35.8665 16.6447 36.1875 16.4762 36.5332 16.3819L36.7946 16.3092L37.0634 16.2657C37.243 16.2324 37.4254 16.2153 37.6081 16.2148C38.365 16.148 39.1245 16.3113 39.787 16.6833C40.1206 16.9072 40.3948 17.2088 40.586 17.5621C40.7712 17.9204 40.8847 18.3115 40.9201 18.7133C40.9364 18.8885 40.9364 19.0648 40.9201 19.2399L40.822 19.1346C41.5432 19.0835 42.2597 19.2851 42.8484 19.7047C43.3885 20.1316 43.8017 20.6979 44.0432 21.3426C44.1859 21.6462 44.2496 21.981 44.2284 22.3158C44.2014 22.6437 44.0928 22.9595 43.9125 23.2346C43.7406 23.4936 43.5146 23.7121 43.25 23.8751C42.9854 24.0382 42.6886 24.1418 42.38 24.1788L35.8214 24.2406H33.4935H33.3265C33.382 24.2344 33.438 24.2344 33.4935 24.2406L33.9802 24.2188L35.825 24.1679L42.3618 24.0372C42.6449 24.0014 42.9168 23.9046 43.1588 23.7535C43.4008 23.6024 43.6072 23.4006 43.7636 23.162C43.9315 22.9093 44.03 22.6169 44.0491 22.3141C44.0683 22.0113 44.0074 21.7088 43.8725 21.437C43.6614 20.8005 43.2765 20.2357 42.7613 19.8064C42.2055 19.4159 41.5323 19.2287 40.8547 19.2762H40.7458V19.1673C40.7602 19.0042 40.7602 18.8401 40.7458 18.677C40.7258 18.3036 40.6213 17.9396 40.4401 17.6125C40.2589 17.2853 40.0058 17.0036 39.6999 16.7886C39.0659 16.4332 38.3393 16.2776 37.6154 16.3419C36.9294 16.3294 36.2587 16.5453 35.7088 16.9556C35.4718 17.1607 35.2879 17.42 35.1728 17.7116C35.0577 18.0031 35.0148 18.3181 35.0479 18.6298V18.746L34.9353 18.7206C34.6695 18.6436 34.3874 18.6426 34.121 18.7177C33.8546 18.7928 33.6146 18.941 33.4282 19.1455C33.1449 19.5741 33.0168 20.0866 33.065 20.5981V20.6671H32.9924C32.6114 20.6849 32.2527 20.8519 31.9937 21.1319C31.752 21.376 31.5965 21.6922 31.5507 22.0326C31.5136 22.4855 31.6344 22.9373 31.8925 23.3113C32.1507 23.6853 32.5303 23.9585 32.967 24.0844C33.1994 24.1643 33.3192 24.1643 33.3192 24.1825Z" fill="#263238"/>
<path d="M39.4629 21.9858C38.8469 21.4361 38.2727 20.8413 37.7451 20.2063H37.8831L37.8504 20.2426C37.2889 20.8664 36.682 21.4478 36.0347 21.9821C36.5489 21.3165 37.1135 20.6912 37.7233 20.1119L37.7597 20.0756L37.8287 20.0029L37.8976 20.0792C38.4664 20.6746 38.9896 21.3119 39.4629 21.9858Z" fill="#263238"/>
<path d="M37.8123 26.2383C37.7188 25.2268 37.6872 24.2105 37.7179 23.1951C37.6872 22.1797 37.7188 21.1634 37.8123 20.1519C37.908 21.1633 37.9395 22.1797 37.9067 23.1951C37.9395 24.2105 37.908 25.2269 37.8123 26.2383Z" fill="#263238"/>
<path d="M22.6506 32.6184H20.9874L20.6424 33.4029H20.1812L21.6011 30.2725H22.0587L23.4823 33.4029H23.0138L22.6506 32.6184ZM22.4945 32.2553L21.819 30.7228L21.1435 32.2553H22.4945Z" fill="#263238"/>
<path d="M26.0801 30.0845V33.4037H25.6697V33.0406C25.5714 33.1705 25.4431 33.2747 25.2957 33.3442C25.1484 33.4138 24.9864 33.4467 24.8236 33.44C24.5028 33.44 24.1952 33.3126 23.9685 33.0858C23.7417 32.859 23.6143 32.5515 23.6143 32.2307C23.6143 31.91 23.7417 31.6024 23.9685 31.3756C24.1952 31.1488 24.5028 31.0214 24.8236 31.0214C24.9818 31.0156 25.1392 31.0471 25.283 31.1133C25.4269 31.1795 25.5531 31.2787 25.6516 31.4027V30.0954L26.0801 30.0845ZM25.6552 32.2198C25.6481 32.0634 25.5951 31.9125 25.503 31.7859C25.4108 31.6593 25.2835 31.5626 25.1368 31.5078C24.9901 31.453 24.8306 31.4424 24.678 31.4775C24.5254 31.5126 24.3865 31.5918 24.2785 31.7052C24.1705 31.8186 24.0982 31.9613 24.0706 32.1154C24.043 32.2695 24.0614 32.4284 24.1233 32.5722C24.1852 32.716 24.2881 32.8385 24.419 32.9243C24.55 33.0102 24.7033 33.0556 24.8599 33.0551C24.9685 33.0579 25.0766 33.038 25.177 32.9964C25.2775 32.9549 25.3681 32.8928 25.4431 32.8141C25.518 32.7354 25.5756 32.6418 25.6122 32.5395C25.6487 32.4371 25.6634 32.3282 25.6552 32.2198Z" fill="#263238"/>
<path d="M29.1314 30.0845V33.4037H28.721V33.0406C28.6227 33.1705 28.4943 33.2747 28.347 33.3442C28.1996 33.4138 28.0377 33.4467 27.8748 33.44C27.5541 33.44 27.2465 33.3126 27.0197 33.0858C26.7929 32.859 26.6655 32.5515 26.6655 32.2307C26.6655 31.91 26.7929 31.6024 27.0197 31.3756C27.2465 31.1488 27.5541 31.0214 27.8748 31.0214C28.033 31.0162 28.1902 31.0479 28.334 31.1141C28.4777 31.1803 28.604 31.2791 28.7028 31.4027V30.0954L29.1314 30.0845ZM28.7065 32.2198C28.6993 32.0634 28.6464 31.9125 28.5543 31.7859C28.4621 31.6593 28.3348 31.5626 28.1881 31.5078C28.0414 31.453 27.8819 31.4424 27.7293 31.4775C27.5766 31.5126 27.4377 31.5918 27.3297 31.7052C27.2218 31.8186 27.1495 31.9613 27.1219 32.1154C27.0943 32.2695 27.1126 32.4284 27.1746 32.5722C27.2365 32.716 27.3394 32.8385 27.4703 32.9243C27.6013 33.0102 27.7546 33.0556 27.9111 33.0551C28.0198 33.0579 28.1278 33.038 28.2283 32.9964C28.3288 32.9549 28.4194 32.8928 28.4943 32.8141C28.5693 32.7354 28.6269 32.6418 28.6634 32.5395C28.7 32.4371 28.7146 32.3282 28.7065 32.2198Z" fill="#263238"/>
<path d="M31.0701 30.2981C31.07 30.2604 31.0776 30.2232 31.0923 30.1885C31.1071 30.1538 31.1287 30.1225 31.1558 30.0964C31.1829 30.0703 31.215 30.0499 31.2502 30.0365C31.2854 30.0231 31.323 30.017 31.3606 30.0184C31.3977 30.0165 31.4349 30.0221 31.4698 30.0348C31.5048 30.0476 31.5368 30.0673 31.5639 30.0927C31.591 30.1182 31.6128 30.1488 31.6277 30.1829C31.6427 30.2169 31.6507 30.2536 31.6511 30.2908C31.6511 30.3679 31.6205 30.4418 31.566 30.4963C31.5115 30.5507 31.4376 30.5813 31.3606 30.5813C31.2835 30.5813 31.2096 30.5507 31.1552 30.4963C31.1007 30.4418 31.0701 30.3679 31.0701 30.2908V30.2981ZM31.1463 31.0244H31.5749V33.3958H31.1391L31.1463 31.0244Z" fill="#263238"/>
<path d="M33.7252 33.266C33.5778 33.3793 33.3953 33.4372 33.2095 33.4294C33.1102 33.441 33.0095 33.4304 32.9148 33.3984C32.82 33.3664 32.7336 33.3138 32.6616 33.2443C32.5897 33.1748 32.5341 33.0902 32.4989 32.9966C32.4636 32.903 32.4496 32.8027 32.4578 32.7031V31.403H32.0547V31.0398H32.4578V30.5205H32.8863V31.0398H33.5654V31.403H32.8863V32.6849C32.8812 32.7356 32.8868 32.7867 32.9028 32.8351C32.9188 32.8834 32.9447 32.9279 32.9789 32.9655C33.0132 33.0032 33.055 33.0332 33.1016 33.0537C33.1482 33.0742 33.1986 33.0846 33.2495 33.0844C33.3715 33.086 33.4905 33.0464 33.5872 32.9718L33.7252 33.266Z" fill="#263238"/>
<path d="M36.2973 32.3626H34.3762C34.4034 32.5658 34.5074 32.7509 34.6668 32.8799C34.8261 33.0089 35.0288 33.072 35.2332 33.0562C35.3616 33.061 35.4895 33.0378 35.608 32.9883C35.7265 32.9388 35.8328 32.8641 35.9196 32.7693L36.1557 33.0453C35.9811 33.2236 35.7585 33.3474 35.515 33.4017C35.2714 33.456 35.0174 33.4384 34.7836 33.3511C34.5498 33.2638 34.3464 33.1106 34.198 32.91C34.0497 32.7094 33.9627 32.47 33.9477 32.221C33.9406 32.0621 33.9664 31.9036 34.0233 31.7551C34.0802 31.6067 34.167 31.4715 34.2784 31.3581C34.3898 31.2446 34.5234 31.1553 34.6708 31.0957C34.8182 31.0361 34.9762 31.0075 35.1352 31.0117C35.2945 31.0073 35.4529 31.0362 35.6004 31.0966C35.7478 31.157 35.8811 31.2475 35.9915 31.3624C36.1019 31.4773 36.1871 31.614 36.2417 31.7637C36.2962 31.9134 36.3189 32.0729 36.3082 32.2319C36.308 32.2757 36.3044 32.3194 36.2973 32.3626ZM34.3762 32.0539H35.8978C35.8755 31.8678 35.7858 31.6964 35.6456 31.572C35.5054 31.4476 35.3244 31.3789 35.137 31.3789C34.9496 31.3789 34.7686 31.4476 34.6284 31.572C34.4882 31.6964 34.3985 31.8678 34.3762 32.0539Z" fill="#263238"/>
<path d="M40.8335 32.0392V33.4047H40.4049V32.09C40.4049 31.6252 40.1798 31.3964 39.7912 31.3964C39.6887 31.3899 39.5861 31.4064 39.4908 31.4447C39.3955 31.4829 39.3099 31.5419 39.2403 31.6174C39.1707 31.6929 39.1189 31.783 39.0885 31.8811C39.0582 31.9792 39.0501 32.0829 39.0649 32.1845V33.4047H38.6364V32.09C38.6364 31.6252 38.4148 31.3964 38.0226 31.3964C37.6304 31.3964 37.3145 31.6688 37.3145 32.1845V33.4047H36.8823V31.0333H37.3108V31.3964C37.4071 31.2738 37.5319 31.1766 37.6743 31.1133C37.8167 31.05 37.9725 31.0225 38.1279 31.0333C38.2927 31.022 38.4573 31.0573 38.603 31.1349C38.7488 31.2126 38.8698 31.3296 38.9523 31.4727C39.0558 31.3295 39.1934 31.2144 39.3525 31.1377C39.5116 31.061 39.6874 31.0251 39.8638 31.0333C39.9969 31.0234 40.1304 31.0429 40.255 31.0905C40.3797 31.1381 40.4923 31.2125 40.5848 31.3086C40.6774 31.4046 40.7477 31.5199 40.7906 31.6462C40.8336 31.7724 40.8482 31.9066 40.8335 32.0392Z" fill="#263238"/>
<path d="M42.762 30.2981C42.7619 30.2604 42.7695 30.2232 42.7842 30.1885C42.799 30.1538 42.8205 30.1225 42.8477 30.0964C42.8748 30.0703 42.9069 30.0499 42.9421 30.0365C42.9773 30.0231 43.0149 30.017 43.0525 30.0184C43.0896 30.0165 43.1268 30.0221 43.1617 30.0348C43.1967 30.0476 43.2287 30.0673 43.2558 30.0927C43.2829 30.1182 43.3047 30.1488 43.3196 30.1829C43.3346 30.2169 43.3426 30.2536 43.343 30.2908C43.343 30.3679 43.3124 30.4418 43.2579 30.4963C43.2034 30.5507 43.1295 30.5813 43.0525 30.5813C42.9754 30.5813 42.9015 30.5507 42.8471 30.4963C42.7926 30.4418 42.762 30.3679 42.762 30.2908V30.2981ZM42.8382 31.0244H43.2668V33.3958H42.8382V31.0244Z" fill="#263238"/>
<path d="M48.0102 32.0404V33.4059H47.5817V32.0913C47.5817 31.6264 47.3565 31.3976 46.968 31.3976C46.8655 31.3912 46.7629 31.4076 46.6675 31.4459C46.5722 31.4841 46.4867 31.5431 46.4171 31.6186C46.3475 31.6941 46.2956 31.7842 46.2653 31.8823C46.2349 31.9804 46.2269 32.0841 46.2417 32.1857V33.4059H45.8131V32.0913C45.8131 31.6264 45.5916 31.3976 45.1994 31.3976C44.8072 31.3976 44.4912 31.67 44.4912 32.1857V33.4059H44.0591V31.0345H44.4731V31.3976C44.5695 31.2753 44.6943 31.1782 44.8367 31.115C44.9791 31.0517 45.1347 31.0241 45.2902 31.0345C45.4549 31.0232 45.6195 31.0585 45.7653 31.1362C45.911 31.2138 46.032 31.3308 46.1145 31.4739C46.2181 31.3307 46.3556 31.2156 46.5147 31.1389C46.6739 31.0622 46.8496 31.0263 47.0261 31.0345C47.1603 31.0223 47.2955 31.0402 47.4219 31.0867C47.5483 31.1333 47.6628 31.2074 47.757 31.3037C47.8512 31.4 47.9228 31.5161 47.9666 31.6435C48.0104 31.771 48.0253 31.9065 48.0102 32.0404Z" fill="#263238"/>
<path d="M50.6814 31.9742V33.405H50.2746V33.0927C50.1838 33.2097 50.0651 33.302 49.9293 33.361C49.7934 33.42 49.645 33.4439 49.4975 33.4305C48.96 33.4305 48.6187 33.1436 48.6187 32.7332C48.6187 32.3228 48.8656 32.0396 49.5738 32.0396H50.2529V31.9561C50.2529 31.5929 50.0422 31.3823 49.6173 31.3823C49.3445 31.379 49.079 31.4701 48.8656 31.6401L48.6877 31.3169C48.9703 31.1094 49.314 31.002 49.6645 31.0118C50.3146 31.0118 50.6814 31.3242 50.6814 31.9742ZM50.2529 32.6787V32.3483H49.5883C49.167 32.3483 49.0435 32.5153 49.0435 32.7114C49.0435 32.9075 49.2396 33.0964 49.5665 33.0964C49.7103 33.1077 49.854 33.0734 49.9772 32.9985C50.1004 32.9235 50.1968 32.8116 50.2529 32.6787Z" fill="#263238"/>
<path d="M53.7576 31.0317V33.0799C53.7576 33.9188 53.3328 34.2965 52.5265 34.2965C52.1193 34.3106 51.7198 34.1821 51.3971 33.9333L51.6005 33.6028C51.8622 33.8056 52.1846 33.9143 52.5156 33.9115C53.0749 33.9115 53.3291 33.6501 53.3291 33.1162V32.9274C53.2224 33.047 53.0905 33.1415 52.943 33.2043C52.7955 33.2671 52.6359 33.2965 52.4757 33.2905C52.325 33.2905 52.1758 33.2608 52.0365 33.2032C51.8973 33.1455 51.7708 33.061 51.6642 32.9544C51.5577 32.8478 51.4731 32.7213 51.4155 32.5821C51.3578 32.4429 51.3281 32.2937 51.3281 32.143C51.3281 31.9923 51.3578 31.843 51.4155 31.7038C51.4731 31.5646 51.5577 31.4381 51.6642 31.3315C51.7708 31.2249 51.8973 31.1404 52.0365 31.0827C52.1758 31.0251 52.325 30.9954 52.4757 30.9954C52.6415 30.9892 52.8066 31.021 52.9583 31.0884C53.11 31.1557 53.2443 31.2568 53.3509 31.384V31.0208L53.7576 31.0317ZM53.3364 32.1539C53.3451 31.9905 53.3046 31.8283 53.2201 31.6883C53.1356 31.5482 53.0111 31.4367 52.8625 31.3682C52.714 31.2998 52.5483 31.2774 52.3869 31.3042C52.2256 31.3309 52.0759 31.4054 51.9574 31.5181C51.8389 31.6309 51.7569 31.7766 51.7221 31.9364C51.6872 32.0962 51.7012 32.2628 51.7621 32.4146C51.823 32.5664 51.9281 32.6964 52.0638 32.7878C52.1994 32.8793 52.3593 32.9279 52.5229 32.9274C52.6284 32.9356 52.7345 32.9215 52.8342 32.886C52.9339 32.8506 53.0251 32.7946 53.1018 32.7217C53.1785 32.6487 53.239 32.5605 53.2794 32.4627C53.3198 32.3649 53.3392 32.2596 53.3364 32.1539Z" fill="#263238"/>
<path d="M56.7057 32.3626H54.7846C54.8119 32.5658 54.9158 32.7509 55.0752 32.8799C55.2346 33.0089 55.4373 33.072 55.6417 33.0562C55.7701 33.061 55.8979 33.0378 56.0164 32.9883C56.135 32.9388 56.2413 32.8641 56.328 32.7693L56.5641 33.0453C56.3895 33.2236 56.167 33.3474 55.9234 33.4017C55.6799 33.456 55.4258 33.4384 55.1921 33.3511C54.9583 33.2638 54.7549 33.1106 54.6065 32.91C54.4581 32.7094 54.3711 32.47 54.3561 32.221C54.3491 32.0621 54.3748 31.9036 54.4317 31.7551C54.4886 31.6067 54.5755 31.4715 54.6869 31.3581C54.7983 31.2446 54.9318 31.1553 55.0792 31.0957C55.2266 31.0361 55.3847 31.0075 55.5436 31.0117C55.7029 31.0073 55.8614 31.0362 56.0088 31.0966C56.1563 31.157 56.2895 31.2475 56.4 31.3624C56.5104 31.4773 56.5956 31.614 56.6501 31.7637C56.7047 31.9134 56.7273 32.0729 56.7166 32.2319C56.7165 32.2757 56.7128 32.3194 56.7057 32.3626ZM54.7846 32.0539H56.3063C56.284 31.8678 56.1942 31.6964 56.054 31.572C55.9138 31.4476 55.7329 31.3789 55.5454 31.3789C55.358 31.3789 55.1771 31.4476 55.0369 31.572C54.8967 31.6964 54.8069 31.8678 54.7846 32.0539Z" fill="#263238"/>
<path d="M36.5359 49.9814H16.072C15.7333 49.9805 15.4087 49.8455 15.1692 49.606C14.9296 49.3664 14.7947 49.0418 14.7937 48.7031C14.7947 48.3644 14.9296 48.0398 15.1692 47.8003C15.4087 47.5608 15.7333 47.4258 16.072 47.4248H36.5359C36.8749 47.4248 37.2 47.5595 37.4398 47.7992C37.6795 48.0389 37.8142 48.3641 37.8142 48.7031C37.8142 49.0421 37.6795 49.3673 37.4398 49.607C37.2 49.8467 36.8749 49.9814 36.5359 49.9814Z" fill="#91AF93"/>
<path d="M31.8125 52.8535V54.2117H31.5765V54.0083C31.5232 54.0796 31.4534 54.1366 31.373 54.1746C31.2926 54.2126 31.2041 54.2303 31.1153 54.2262C31.0357 54.2351 30.9552 54.2258 30.8797 54.199C30.8043 54.1723 30.7358 54.1288 30.6796 54.0719C30.6233 54.0149 30.5807 53.946 30.5549 53.8702C30.5291 53.7944 30.5208 53.7137 30.5306 53.6343V52.8535H30.7776V53.6089C30.7776 53.874 30.9119 54.0083 31.1407 54.0083C31.1999 54.0122 31.2592 54.0027 31.3142 53.9808C31.3693 53.9588 31.4188 53.9249 31.4592 53.8814C31.4995 53.838 31.5296 53.7861 31.5474 53.7295C31.5652 53.6729 31.5702 53.6131 31.562 53.5544V52.8535H31.8125Z" fill="#263238"/>
<path d="M33.682 53.5323C33.6866 53.624 33.6721 53.7156 33.6393 53.8014C33.6065 53.8872 33.5563 53.9651 33.4917 54.0304C33.4271 54.0957 33.3497 54.1468 33.2643 54.1804C33.1788 54.2141 33.0874 54.2296 32.9956 54.2259C32.9048 54.2293 32.8145 54.2114 32.7318 54.1736C32.6492 54.1357 32.5766 54.079 32.5199 54.0081V54.7089H32.2729V52.8568H32.509V53.0711C32.5663 52.9973 32.6403 52.938 32.7248 52.8983C32.8094 52.8585 32.9022 52.8393 32.9956 52.8423C33.087 52.8387 33.1782 52.8541 33.2634 52.8876C33.3485 52.921 33.4258 52.9718 33.4903 53.0366C33.5548 53.1015 33.6052 53.179 33.6382 53.2643C33.6712 53.3497 33.6861 53.4409 33.682 53.5323ZM33.4351 53.5323C33.4315 53.4419 33.4014 53.3546 33.3487 53.2812C33.2959 53.2078 33.2226 53.1515 33.1381 53.1194C33.0536 53.0872 32.9615 53.0807 32.8733 53.1004C32.785 53.1202 32.7045 53.1655 32.6418 53.2307C32.5791 53.2959 32.537 53.378 32.5206 53.467C32.5042 53.5559 32.5144 53.6477 32.5497 53.7309C32.5851 53.8141 32.6442 53.8851 32.7196 53.935C32.795 53.985 32.8834 54.0116 32.9738 54.0117C33.037 54.0144 33.1 54.0037 33.1588 53.9804C33.2176 53.9571 33.2708 53.9217 33.315 53.8765C33.3592 53.8313 33.3934 53.7773 33.4153 53.718C33.4373 53.6587 33.4464 53.5954 33.4423 53.5323H33.4351Z" fill="#263238"/>
<path d="M34.0439 52.3081H34.2909V54.2111H34.0439V52.3081Z" fill="#263238"/>
<path d="M34.6224 53.5296C34.6195 53.3897 34.6582 53.2521 34.7335 53.1342C34.8088 53.0163 34.9173 52.9233 35.0453 52.867C35.1734 52.8107 35.3152 52.7936 35.453 52.8178C35.5908 52.8421 35.7183 52.9065 35.8195 53.0032C35.9206 53.0998 35.9909 53.2242 36.0215 53.3607C36.052 53.4972 36.0414 53.6397 35.9911 53.7702C35.9407 53.9007 35.8528 54.0134 35.7385 54.094C35.6242 54.1746 35.4885 54.2196 35.3487 54.2232C35.2542 54.2304 35.1594 54.2176 35.0702 54.1857C34.981 54.1538 34.8995 54.1036 34.831 54.0382C34.7625 53.9728 34.7086 53.8937 34.6726 53.8061C34.6367 53.7184 34.6196 53.6242 34.6224 53.5296ZM35.7881 53.5296C35.7938 53.4658 35.7861 53.4016 35.7656 53.3409C35.7451 53.2803 35.7122 53.2246 35.669 53.1773C35.6258 53.1301 35.5732 53.0924 35.5146 53.0666C35.456 53.0408 35.3927 53.0275 35.3287 53.0275C35.2647 53.0275 35.2014 53.0408 35.1428 53.0666C35.0842 53.0924 35.0317 53.1301 34.9884 53.1773C34.9452 53.2246 34.9123 53.2803 34.8918 53.3409C34.8713 53.4016 34.8636 53.4658 34.8693 53.5296C34.8636 53.5933 34.8713 53.6576 34.8918 53.7182C34.9123 53.7789 34.9452 53.8346 34.9884 53.8818C35.0317 53.929 35.0842 53.9667 35.1428 53.9925C35.2014 54.0183 35.2647 54.0317 35.3287 54.0317C35.3927 54.0317 35.456 54.0183 35.5146 53.9925C35.5732 53.9667 35.6258 53.929 35.669 53.8818C35.7122 53.8346 35.7451 53.7789 35.7656 53.7182C35.7861 53.6576 35.7938 53.5933 35.7881 53.5296Z" fill="#263238"/>
<path d="M37.4432 53.3879V54.2086H37.2071V54.0307C37.1554 54.0983 37.0871 54.1515 37.0089 54.1852C36.9307 54.2189 36.8451 54.232 36.7604 54.2232C36.4554 54.2232 36.2593 54.0597 36.2593 53.8237C36.2593 53.5876 36.4009 53.4278 36.804 53.4278H37.1962V53.377C37.1962 53.17 37.0764 53.0502 36.8331 53.0502C36.6766 53.0476 36.5241 53.0989 36.4009 53.1954L36.2992 53.0102C36.4607 52.8909 36.6578 52.8295 36.8585 52.8359C37.2325 52.8541 37.4432 53.0175 37.4432 53.3879ZM37.1962 53.7946V53.6058H36.8149C36.5716 53.6058 36.5026 53.7002 36.5026 53.8128C36.5026 53.9254 36.6152 54.0343 36.804 54.0343C36.8863 54.0407 36.9685 54.021 37.0389 53.9779C37.1093 53.9349 37.1644 53.8708 37.1962 53.7946Z" fill="#263238"/>
<path d="M39.192 52.3081V54.2111H38.9559V53.9968C38.9002 54.0715 38.8271 54.1314 38.7429 54.1713C38.6587 54.2112 38.566 54.2298 38.4729 54.2256C38.289 54.2256 38.1125 54.1525 37.9825 54.0224C37.8524 53.8923 37.7793 53.7159 37.7793 53.5319C37.7793 53.348 37.8524 53.1716 37.9825 53.0415C38.1125 52.9114 38.289 52.8383 38.4729 52.8383C38.5632 52.8352 38.6529 52.8533 38.7349 52.8911C38.8169 52.929 38.8889 52.9855 38.945 53.0562V52.3081H39.192ZM38.9487 53.5319C38.9444 53.4425 38.914 53.3563 38.8612 53.2839C38.8084 53.2116 38.7355 53.1564 38.6516 53.1251C38.5677 53.0937 38.4765 53.0877 38.3892 53.1078C38.3019 53.1278 38.2224 53.173 38.1606 53.2378C38.0988 53.3026 38.0573 53.3841 38.0414 53.4722C38.0254 53.5603 38.0356 53.6512 38.0708 53.7335C38.106 53.8159 38.1646 53.8861 38.2393 53.9354C38.314 53.9848 38.4015 54.0112 38.4911 54.0113C38.5535 54.013 38.6156 54.0016 38.6733 53.9778C38.7311 53.954 38.7832 53.9184 38.8263 53.8732C38.8694 53.828 38.9026 53.7743 38.9237 53.7156C38.9447 53.6568 38.9533 53.5942 38.9487 53.5319Z" fill="#263238"/>
<path d="M39.6149 52.4297C39.6135 52.3964 39.622 52.3634 39.6395 52.335C39.6569 52.3066 39.6825 52.284 39.7128 52.2703C39.7432 52.2565 39.777 52.2521 39.8099 52.2577C39.8427 52.2633 39.8732 52.2787 39.8973 52.3017C39.9214 52.3248 39.938 52.3545 39.9451 52.3871C39.9521 52.4197 39.9493 52.4536 39.9369 52.4846C39.9245 52.5155 39.9031 52.542 39.8755 52.5607C39.8479 52.5794 39.8153 52.5894 39.782 52.5895C39.7604 52.5905 39.7388 52.5871 39.7186 52.5795C39.6983 52.5719 39.6799 52.5603 39.6642 52.5453C39.6486 52.5304 39.6362 52.5124 39.6277 52.4926C39.6192 52.4727 39.6149 52.4513 39.6149 52.4297ZM39.6585 52.8509H39.9054V54.2092H39.6585V52.8509Z" fill="#263238"/>
<path d="M41.6705 53.4284V54.2092H41.4236V53.4575C41.4236 53.1887 41.2892 53.058 41.0604 53.058C41.0009 53.0532 40.9411 53.0618 40.8852 53.083C40.8294 53.1042 40.779 53.1376 40.7376 53.1807C40.6963 53.2238 40.665 53.2755 40.6461 53.3322C40.6272 53.3889 40.6211 53.449 40.6283 53.5083V54.2092H40.3813V52.8546H40.6174V53.058C40.676 52.9854 40.751 52.9278 40.8362 52.8899C40.9215 52.852 41.0145 52.8349 41.1077 52.8401C41.1852 52.8348 41.2629 52.8466 41.3353 52.8747C41.4077 52.9028 41.4731 52.9464 41.5268 53.0025C41.5805 53.0587 41.6212 53.1259 41.646 53.1995C41.6709 53.2731 41.6792 53.3512 41.6705 53.4284Z" fill="#263238"/>
<path d="M43.431 52.8554V54.0284C43.4452 54.1241 43.4368 54.2217 43.4063 54.3135C43.3759 54.4052 43.3243 54.4886 43.2558 54.5568C43.1872 54.625 43.1036 54.6761 43.0117 54.7061C42.9197 54.7361 42.822 54.744 42.7265 54.7293C42.4927 54.7395 42.2627 54.6675 42.0764 54.5259L42.1926 54.3335C42.3424 54.4517 42.5284 54.5145 42.7192 54.5114C43.0388 54.5114 43.1841 54.3625 43.1841 54.0538V53.9449C43.1233 54.0144 43.0477 54.0695 42.9628 54.1059C42.878 54.1424 42.7861 54.1593 42.6938 54.1555C42.6031 54.1622 42.512 54.1502 42.4262 54.1201C42.3404 54.0901 42.2618 54.0426 42.1951 53.9808C42.1285 53.9189 42.0753 53.8439 42.039 53.7606C42.0027 53.6773 41.9839 53.5873 41.9839 53.4964C41.9839 53.4055 42.0027 53.3155 42.039 53.2322C42.0753 53.1488 42.1285 53.0739 42.1951 53.012C42.2618 52.9502 42.3404 52.9027 42.4262 52.8726C42.512 52.8426 42.6031 52.8305 42.6938 52.8373C42.7896 52.8336 42.8849 52.8519 42.9724 52.891C43.06 52.93 43.1374 52.9887 43.1986 53.0624V52.8554H43.431ZM43.1913 53.4982C43.1957 53.4047 43.1719 53.3121 43.1232 53.2323C43.0744 53.1524 43.0029 53.089 42.9177 53.0502C42.8326 53.0114 42.7378 52.9989 42.6455 53.0145C42.5533 53.03 42.4678 53.0728 42.4001 53.1374C42.3324 53.2019 42.2855 53.2853 42.2656 53.3767C42.2457 53.4681 42.2536 53.5634 42.2883 53.6503C42.3231 53.7372 42.383 53.8117 42.4605 53.8642C42.5379 53.9167 42.6293 53.9448 42.7228 53.9449C42.7839 53.949 42.8451 53.9402 42.9025 53.9193C42.96 53.8983 43.0125 53.8656 43.0566 53.8232C43.1007 53.7808 43.1354 53.7297 43.1586 53.6731C43.1818 53.6165 43.193 53.5557 43.1913 53.4946V53.4982Z" fill="#263238"/>
<path d="M43.7891 54.0489C43.7886 54.0258 43.7927 54.0029 43.8013 53.9816C43.8099 53.9602 43.8227 53.9408 43.839 53.9245C43.8553 53.9082 43.8747 53.8954 43.8961 53.8868C43.9175 53.8782 43.9404 53.8741 43.9634 53.8746C44.0115 53.8746 44.0577 53.8937 44.0918 53.9277C44.1258 53.9618 44.145 54.008 44.145 54.0561C44.145 54.1043 44.1258 54.1505 44.0918 54.1845C44.0577 54.2186 44.0115 54.2377 43.9634 54.2377C43.939 54.2384 43.9149 54.2338 43.8924 54.2244C43.87 54.2149 43.8499 54.2007 43.8334 54.1829C43.8168 54.165 43.8044 54.1438 43.7967 54.1207C43.7891 54.0975 43.7865 54.0731 43.7891 54.0489Z" fill="#263238"/>
<path d="M44.3689 54.0489C44.3684 54.0258 44.3726 54.0029 44.3812 53.9816C44.3897 53.9602 44.4026 53.9408 44.4189 53.9245C44.4351 53.9082 44.4545 53.8954 44.4759 53.8868C44.4973 53.8782 44.5202 53.8741 44.5432 53.8746C44.5914 53.8746 44.6376 53.8937 44.6716 53.9277C44.7057 53.9618 44.7248 54.008 44.7248 54.0561C44.7248 54.1043 44.7057 54.1505 44.6716 54.1845C44.6376 54.2186 44.5914 54.2377 44.5432 54.2377C44.5189 54.2384 44.4947 54.2338 44.4723 54.2244C44.4498 54.2149 44.4297 54.2007 44.4132 54.1829C44.3967 54.165 44.3842 54.1438 44.3765 54.1207C44.3689 54.0975 44.3663 54.0731 44.3689 54.0489Z" fill="#263238"/>
<path d="M44.939 54.0489C44.9385 54.0258 44.9426 54.0029 44.9512 53.9816C44.9598 53.9602 44.9726 53.9408 44.9889 53.9245C45.0052 53.9082 45.0246 53.8954 45.046 53.8868C45.0674 53.8782 45.0903 53.8741 45.1133 53.8746C45.1614 53.8746 45.2076 53.8937 45.2417 53.9277C45.2757 53.9618 45.2949 54.008 45.2949 54.0561C45.2949 54.1043 45.2757 54.1505 45.2417 54.1845C45.2076 54.2186 45.1614 54.2377 45.1133 54.2377C45.089 54.2384 45.0648 54.2338 45.0423 54.2244C45.0199 54.2149 44.9998 54.2007 44.9833 54.1829C44.9667 54.165 44.9542 54.1438 44.9466 54.1207C44.939 54.0975 44.9364 54.0731 44.939 54.0489Z" fill="#263238"/>
<path d="M36.2556 44.8647C36.2556 45.2932 35.9469 45.6418 35.3077 45.6418C34.9766 45.6491 34.6531 45.5413 34.3926 45.3368L34.556 45.0571C34.7649 45.2334 35.0308 45.3276 35.3041 45.3223C35.6672 45.3223 35.896 45.1479 35.896 44.8756C35.896 44.6032 35.7181 44.4216 35.1407 44.4216H34.5742L34.7049 43.1143H36.1139V43.412H35.0063L34.9373 44.0984H35.2169C35.9614 44.0911 36.2556 44.4035 36.2556 44.8647Z" fill="#91AF93"/>
<path d="M36.5452 44.3462C36.5452 43.5327 36.981 43.0679 37.5656 43.0679C38.1503 43.0679 38.5825 43.5327 38.5825 44.3462C38.5825 45.1597 38.1467 45.6245 37.5656 45.6245C36.9846 45.6245 36.5452 45.1597 36.5452 44.3462ZM38.2266 44.3462C38.2266 43.707 37.9542 43.3874 37.5656 43.3874C37.1771 43.3874 36.9011 43.707 36.9011 44.3462C36.9011 44.9853 37.1734 45.3049 37.5656 45.3049C37.9578 45.3049 38.2266 44.9853 38.2266 44.3462Z" fill="#91AF93"/>
<path d="M38.8882 43.774C38.8769 43.6902 38.8835 43.605 38.9073 43.5239C38.9312 43.4428 38.9718 43.3676 39.0266 43.3032C39.0814 43.2388 39.1491 43.1867 39.2254 43.1502C39.3016 43.1137 39.3847 43.0936 39.4692 43.0913C39.8142 43.0913 40.0466 43.3637 40.0466 43.774C40.0466 44.1844 39.8142 44.4531 39.4692 44.4531C39.3849 44.4513 39.3019 44.4318 39.2256 44.3956C39.1493 44.3595 39.0816 44.3077 39.0267 44.2436C38.9719 44.1795 38.9312 44.1046 38.9073 44.0236C38.8834 43.9427 38.8769 43.8577 38.8882 43.774ZM39.8179 43.774C39.8179 43.4726 39.6871 43.2947 39.4547 43.2947C39.2223 43.2947 39.0915 43.4763 39.0915 43.774C39.0915 44.0718 39.2295 44.2498 39.4547 44.2498C39.6799 44.2498 39.8179 44.0537 39.8179 43.774ZM40.9727 43.1131H41.2487L39.5419 45.6116H39.2695L40.9727 43.1131ZM40.4715 44.9507C40.4896 44.8397 40.5391 44.7362 40.6141 44.6524C40.6892 44.5687 40.7867 44.5082 40.8951 44.4782C41.0035 44.4481 41.1182 44.4498 41.2256 44.4829C41.3331 44.5161 41.4288 44.5793 41.5014 44.6652C41.574 44.7511 41.6205 44.8559 41.6354 44.9674C41.6502 45.0789 41.6328 45.1923 41.5852 45.2942C41.5376 45.3961 41.4618 45.4822 41.3667 45.5423C41.2717 45.6024 41.1614 45.634 41.049 45.6334C40.963 45.6309 40.8785 45.6101 40.8013 45.5723C40.724 45.5344 40.6557 45.4805 40.601 45.4141C40.5463 45.3477 40.5065 45.2704 40.4841 45.1873C40.4618 45.1043 40.4575 45.0174 40.4715 44.9325V44.9507ZM41.3976 44.9507C41.3976 44.6565 41.2632 44.4713 41.0344 44.4713C40.8056 44.4713 40.6713 44.6529 40.6713 44.9507C40.6713 45.2485 40.802 45.43 41.0344 45.43C41.2669 45.43 41.3976 45.2267 41.3976 44.9325V44.9507Z" fill="#91AF93"/>
<path d="M57.8591 49.9769C57.8591 49.9769 57.939 49.9769 58.0915 49.9442C58.388 49.8846 58.6533 49.7206 58.8392 49.4821C59.0251 49.2435 59.1193 48.9462 59.1047 48.6441C59.0932 48.392 59.005 48.1495 58.8518 47.9489C58.6986 47.7484 58.4878 47.5994 58.2477 47.522C57.9523 47.4562 57.6486 47.4354 57.347 47.4602H56.3338H54.0314H48.4279L15.969 47.4857C15.7853 47.4859 15.6042 47.5287 15.4398 47.6106C15.2753 47.6925 15.1321 47.8113 15.0212 47.9578C14.911 48.1033 14.8359 48.2724 14.8018 48.4518C14.7678 48.6312 14.7757 48.816 14.8249 48.9918C14.8741 49.1676 14.9633 49.3297 15.0856 49.4653C15.2079 49.6009 15.3598 49.7064 15.5296 49.7735C15.6998 49.8381 15.8816 49.8666 16.0635 49.8571H29.8198L44.415 49.8789L54.253 49.9079H56.9258L54.253 49.9261L44.415 49.9551L29.8198 49.9769H21.2021H16.0635C15.8568 49.9853 15.6505 49.9519 15.457 49.8789C15.1605 49.7604 14.9146 49.5422 14.7616 49.262C14.6086 48.9818 14.5581 48.657 14.6187 48.3435C14.6794 48.03 14.8474 47.7475 15.0938 47.5445C15.3403 47.3416 15.6498 47.2309 15.969 47.2314L48.4279 47.2605H54.0314H56.3338H57.347C57.6562 47.2391 57.9669 47.2624 58.2695 47.3295C58.5211 47.4149 58.741 47.5743 58.9004 47.7869C59.0598 47.9994 59.1513 48.2552 59.1628 48.5207C59.1701 48.7133 59.1344 48.9051 59.0584 49.0822C58.9824 49.2593 58.868 49.4173 58.7234 49.5448C58.5468 49.7022 58.3288 49.8055 58.0951 49.8425C58.0238 49.8991 57.9442 49.9444 57.8591 49.9769Z" fill="#263238"/>
</svg>
