<svg width="20" height="21" viewBox="0 0 20 21" fill="none" xmlns="http://www.w3.org/2000/svg">
<path d="M10 0.5C12.6522 0.5 15.1957 1.55357 17.0711 3.42893C18.9464 5.3043 20 7.84784 20 10.5C20 13.1522 18.9464 15.6957 17.0711 17.5711C15.1957 19.4464 12.6522 20.5 10 20.5C7.34784 20.5 4.8043 19.4464 2.92893 17.5711C1.05357 15.6957 0 13.1522 0 10.5C0 7.84784 1.05357 5.3043 2.92893 3.42893C4.8043 1.55357 7.34784 0.5 10 0.5ZM8.75429 12.4729L6.53286 10.25C6.45322 10.1704 6.35868 10.1072 6.25463 10.0641C6.15057 10.021 6.03905 9.99881 5.92643 9.99881C5.8138 9.99881 5.70228 10.021 5.59823 10.0641C5.49418 10.1072 5.39964 10.1704 5.32 10.25C5.15917 10.4108 5.06881 10.629 5.06881 10.8564C5.06881 11.0839 5.15917 11.302 5.32 11.4629L8.14857 14.2914C8.22798 14.3715 8.32246 14.435 8.42654 14.4783C8.53062 14.5217 8.64225 14.544 8.755 14.544C8.86775 14.544 8.97938 14.5217 9.08346 14.4783C9.18754 14.435 9.28202 14.3715 9.36143 14.2914L15.2186 8.43286C15.2993 8.35355 15.3635 8.25905 15.4075 8.15481C15.4515 8.05056 15.4744 7.93864 15.4749 7.82549C15.4754 7.71235 15.4536 7.60022 15.4105 7.49557C15.3675 7.39092 15.3042 7.29583 15.2242 7.21577C15.1443 7.13572 15.0493 7.07229 14.9447 7.02914C14.8401 6.98599 14.728 6.96398 14.6148 6.96437C14.5017 6.96476 14.3897 6.98755 14.2854 7.03143C14.1811 7.0753 14.0865 7.13939 14.0071 7.22L8.75429 12.4729Z" fill="#B5B7C0"/>
</svg>
